<svg xmlns="http://www.w3.org/2000/svg" xmlns:xlink="http://www.w3.org/1999/xlink" width="717" height="593"><defs><filter id="a" width="106%" height="108%" x="-3%" y="-4%" filterUnits="objectBoundingBox"><feOffset dy="2" in="SourceAlpha" result="shadowOffsetOuter1"/><feGaussianBlur in="shadowOffsetOuter1" result="shadowBlurOuter1" stdDeviation="4"/><feColorMatrix in="shadowBlurOuter1" result="shadowMatrixOuter1" values="0 0 0 0 0 0 0 0 0 0 0 0 0 0 0 0 0 0 0.1 0"/><feMerge><feMergeNode in="shadowMatrixOuter1"/><feMergeNode in="SourceGraphic"/></feMerge></filter><filter id="e" width="113.4%" height="111.6%" x="-6.7%" y="-5.4%" filterUnits="objectBoundingBox"><feOffset dy="2" in="SourceAlpha" result="shadowOffsetOuter1"/><feGaussianBlur in="shadowOffsetOuter1" result="shadowBlurOuter1" stdDeviation="10"/><feColorMatrix in="shadowBlurOuter1" values="0 0 0 0 0.862745098 0 0 0 0 0.882352941 0 0 0 0 0.905882353 0 0 0 1 0"/></filter><linearGradient id="d" x1="50%" x2="50%" y1="0%" y2="59.2%"><stop offset="0%" stop-color="#FFF" stop-opacity="0"/><stop offset="100%" stop-color="#FFF"/></linearGradient><rect id="f" width="464" height="534" x="129" rx="8"/><path id="b" d="M16 0h640a16 16 0 0116 16v484H0V16A16 16 0 0116 0z"/></defs><g fill="none" fill-rule="evenodd" transform="translate(0 18)"><g filter="url(#a)" transform="translate(16 44)"><mask id="c" fill="#fff"><use xlink:href="#b"/></mask><use fill="#E3EBF6" fill-rule="nonzero" opacity=".5" xlink:href="#b"/><rect width="36" height="33.2" x="26.5" y="411" fill="#D3D7DD" fill-rule="nonzero" mask="url(#c)" opacity=".5" rx="4"/><rect width="36" height="33.2" x="26.5" y="474" fill="#D3D7DD" fill-rule="nonzero" mask="url(#c)" opacity=".5" rx="4"/><path fill="#FFF" fill-rule="nonzero" mask="url(#c)" d="M-60 0h832v515H-60z"/><path fill="#DCE1E7" fill-rule="nonzero" mask="url(#c)" d="M0 0h694v56H0z"/></g><path fill="url(#d)" fill-rule="nonzero" d="M0 396h717v179H0z"/><g fill-rule="nonzero"><use fill="#000" filter="url(#e)" xlink:href="#f"/><use fill="#FFF" xlink:href="#f"/></g><path fill="#B8C3CF" d="M304.3 178.5v-15.8c0-.3.2-.5.5-.5h5.4c2.9 0 5 2 5 4.4 0 1.9-1.4 3.2-2.5 3.9 1.2.5 3 1.7 3 3.9 0 2.7-2.3 4.6-5.3 4.6h-5.6a.5.5 0 01-.5-.5zm2.5-9h3.2c1.6 0 2.5-1.1 2.5-2.6 0-1.4-1-2.4-2.5-2.4h-3.2v5zm0 7.3h3.6c1.5 0 2.6-1.1 2.6-2.6s-1.4-2.5-3-2.5h-3.2v5zm11-.8c0-1.7 1.4-3 3.8-3l2 .2c0-1.5-.3-2.1-1.6-2.1-1 0-2.1.3-2.6.4-.3.1-.5 0-.6-.3l-.2-1c0-.2.1-.4.3-.5.2 0 1.6-.5 3.4-.5 3 0 3.3 1.8 3.3 4.2v5.1c0 .3-.2.5-.4.5h-.7c-.2 0-.3-.1-.4-.3l-.3-.7c-.5.5-1.4 1.2-3 1.2-1.7 0-3-1.2-3-3.2zm2 0c0 .9.7 1.5 1.5 1.5 1 0 2-.7 2.2-1.2v-1.5c-.1-.1-.8-.4-1.7-.4-1.1 0-2 .6-2 1.6zm8.8 2.5V170c0-.3.3-.5.5-.5h.7c.2 0 .3.1.4.3l.3.8a5 5 0 013.3-1.3c3 0 4 2 4 4.5v4.8c0 .3-.2.5-.4.5H336a.5.5 0 01-.4-.5v-4.9c0-1.5-.8-2.4-2-2.4-1.6 0-2.6 1.2-2.7 1.5v5.8c0 .4-.1.5-.6.5h-1.2a.5.5 0 01-.5-.5zm11.5-2.5c0-1.7 1.4-3 3.9-3 1 0 1.9.2 1.9.2 0-1.5-.3-2.1-1.5-2.1-1.1 0-2.2.3-2.7.4-.3.1-.5 0-.5-.3l-.2-1c-.1-.2 0-.4.3-.5.2 0 1.5-.5 3.3-.5 3 0 3.4 1.8 3.4 4.2v5.1c0 .3-.3.5-.5.5h-.7c-.2 0-.3-.1-.4-.3l-.2-.7c-.5.5-1.5 1.2-3 1.2-1.8 0-3-1.2-3-3.2zm2.1 0c0 .9.6 1.5 1.5 1.5 1 0 1.9-.7 2.1-1.2v-1.5c-.1-.1-.8-.4-1.6-.4-1.2 0-2 .6-2 1.6zm8.8 2.5V170c0-.3.2-.5.4-.5h.7c.2 0 .4.1.4.3l.3.8a5 5 0 013.4-1.3c2.9 0 4 2 4 4.5v4.8c0 .3-.2.5-.5.5h-1.3a.5.5 0 01-.5-.5v-4.9c0-1.5-.7-2.4-2-2.4-1.5 0-2.5 1.2-2.7 1.5v5.8c0 .4-.1.5-.5.5h-1.3a.5.5 0 01-.4-.5zm11.5-2.5c0-1.7 1.4-3 3.8-3l2 .2c0-1.5-.3-2.1-1.6-2.1-1 0-2.2.3-2.7.4-.2.1-.4 0-.5-.3l-.2-1c0-.2.1-.4.3-.5.2 0 1.6-.5 3.3-.5 3.1 0 3.4 1.8 3.4 4.2v5.1c0 .3-.2.5-.5.5h-.6c-.2 0-.3-.1-.4-.3l-.3-.7c-.5.5-1.4 1.2-3 1.2-1.7 0-3-1.2-3-3.2zm2 0c0 .9.6 1.5 1.5 1.5 1 0 1.9-.7 2.2-1.2v-1.5c-.2-.1-.8-.4-1.7-.4-1.1 0-2 .6-2 1.6zm8.4 2.3c-.1-.1-.2-.4-.1-.5l.5-1c0-.2.3-.2.6-.1 0 0 1 .6 2.2.6.7 0 1.2-.3 1.2-.8 0-.6-.6-1-1.9-1.6-1.5-.6-2.7-1.5-2.7-3.1 0-1.2 1-2.6 3.3-2.6 1.3 0 2.3.4 2.8.7.2.1.3.5.2.7l-.4.8c-.2.2-.5.3-.7.2 0 0-1-.5-2-.5-.7 0-1 .4-1 .7 0 .6.6 1 1.5 1.3 1.8.8 3.2 1.5 3.2 3.3 0 1.5-1.4 2.8-3.5 2.8a5 5 0 01-3.2-1zm15 .2v-15.8c0-.3.3-.5.5-.5h1.6c.2 0 .5.2.5.5v15.8c0 .3-.3.5-.5.5h-1.6a.5.5 0 01-.4-.5zm6.5 0V170c0-.3.2-.5.4-.5h.7c.2 0 .3.1.4.3l.3.8a5 5 0 013.3-1.3c3 0 4 2 4 4.5v4.8c0 .3-.2.5-.4.5h-1.4a.5.5 0 01-.4-.5v-4.9c0-1.5-.8-2.4-2-2.4-1.5 0-2.6 1.2-2.7 1.5v5.8c0 .4-.1.5-.5.5h-1.3a.5.5 0 01-.4-.5zm11.4-4.3c0-2.8 2.4-5 5-5 1.5 0 2.7.6 3.5 1.7.2.2.2.5 0 .6l-.8.8c-.3.2-.5 0-.7-.1-.4-.5-1.1-1-2-1-1.5 0-2.7 1.4-2.7 3 0 1.7 1.2 3 2.8 3 1.2 0 1.7-.6 2.2-1.1.2-.2.4-.2.6 0l.7.5c.2.1.3.4.2.6-.8 1.2-2.1 2-3.8 2a5 5 0 01-5-5zm10.7 3.4a1.7 1.7 0 113.3 0c0 .9-.7 1.6-1.7 1.6-.9 0-1.6-.7-1.6-1.6z"/><circle cx="361.5" cy="92.5" r="45.5" fill="#94EFCE" fill-rule="nonzero"/><g fill="#187F86" fill-rule="nonzero"><path d="M376.7 72.4h-4.2v4.3h4.2v-4.3zm1 7.1h-6a2 2 0 01-2-2v-6c0-1 .8-2 2-2h6a2 2 0 012 2v6a2 2 0 01-2 2z"/><path d="M369.8 78.5V77h9.3l.4.7c3.5 6.9 4.3 11.1 3.7 17.7-.9 9-8.3 17.6-21 19.7a24 24 0 01-17.5-2.8c-2-1.3-3.2-2.5-3.9-3.5l-.2-.3V102h1.3c12.6-.7 20.4-5 24.6-11.8a22.2 22.2 0 003.3-11.7zm2.5 4.6a25 25 0 01-3.3 8.6c-4.6 7.3-12.9 12-25.6 13v2.8l.5.5c.6.6 1.4 1.3 2.4 1.9 3.8 2.5 9 3.5 15.5 2.4 11.3-2 17.8-9.5 18.5-17.2.6-5.8 0-9.4-3-15.3h-4.6c0 1-.2 2.1-.4 3.3z"/><path d="M373.4 78.7l2.8-.6.2 1.6c.5 4.4.3 9.1-1.2 13.6-.5 1.8-1.3 3.4-2.2 5-4.5 7-13.7 10.6-31 10.2v-2.8c16.5.4 24.7-2.9 28.5-9 .8-1.3 1.5-2.7 2-4.3a29 29 0 00.9-13.7z"/></g><path fill="#41465A" d="M269.3 220.5v-15.8c0-.3.2-.5.5-.5h5.4c2.9 0 5 2 5 4.4 0 1.9-1.4 3.2-2.5 3.9 1.2.5 3 1.7 3 3.9 0 2.7-2.3 4.6-5.3 4.6h-5.6a.5.5 0 01-.5-.5zm2.5-9h3.2c1.6 0 2.5-1.1 2.5-2.6 0-1.4-1-2.4-2.5-2.4h-3.2v5zm0 7.3h3.6c1.5 0 2.6-1.1 2.6-2.6s-1.4-2.5-3-2.5h-3.2v5zm11-2.6c0-2.7 2-5 4.8-5a4.3 4.3 0 014.4 5c0 .3-.3.5-.5.5H285c0 1.3 1.2 2.5 2.8 2.5a4 4 0 002.1-.7c.3-.1.5-.2.6 0l.7 1c.2.1.3.3 0 .5-.7.6-2 1.2-3.6 1.2-2.9 0-4.8-2.2-4.8-5zm2.3-1h4.7c-.1-1.2-1-2.2-2.2-2.2-1.3 0-2.3 1-2.5 2.1zm8.5 1c0-2.8 2.4-5 5-5 1.5 0 2.6.6 3.5 1.7.2.2.1.5 0 .6l-.9.8c-.3.2-.4 0-.6-.1-.5-.5-1.2-1-2-1-1.5 0-2.7 1.4-2.7 3 0 1.7 1.2 3 2.7 3 1.3 0 1.8-.6 2.3-1.1.2-.2.4-.2.6 0l.7.5c.2.1.3.4.1.6-.7 1.2-2 2-3.7 2a5 5 0 01-5-5zm10.4 0a5 5 0 014.9-5 5 5 0 014.8 5 5 5 0 01-4.8 5 5 5 0 01-4.9-5zm2.1 0c0 1.6 1.2 3 2.8 3 1.5 0 2.7-1.4 2.7-3s-1.2-3-2.7-3c-1.6 0-2.8 1.4-2.8 3zm10 4.3V212c0-.3.2-.5.5-.5h.6c.2 0 .4.1.4.3l.3.8c.2-.2 1.3-1.3 3.2-1.3 1.4 0 2.4.5 3 1.5.3-.3 1.7-1.5 3.5-1.5 3 0 4 2 4 4.5v4.8c0 .3-.2.5-.4.5h-1.4a.5.5 0 01-.4-.5v-4.9c0-1.5-.7-2.4-2-2.4-1.5 0-2.3 1-2.5 1.2v6.2c0 .2-.2.4-.4.4h-1.3a.5.5 0 01-.4-.5v-4.9c0-1.5-.7-2.4-2-2.4a2.7 2.7 0 00-2.4 1.5v5.8c0 .3-.3.5-.5.5h-1.3a.5.5 0 01-.5-.5zm17.8-4.3c0-2.7 2-5 4.8-5a4.3 4.3 0 014.4 5c0 .3-.2.5-.5.5h-6.5c0 1.3 1.2 2.5 2.8 2.5a4 4 0 002.1-.7c.3-.1.5-.2.7 0l.6 1c.2.1.3.3 0 .5-.7.6-2 1.2-3.6 1.2-2.9 0-4.8-2.2-4.8-5zm2.3-1h4.7c0-1.2-1-2.2-2.2-2.2-1.3 0-2.3 1-2.5 2.1zm13.8 1a5 5 0 014.8-5 5 5 0 014.9 5 5 5 0 01-4.9 5 5 5 0 01-4.8-5zm2.1 0c0 1.6 1.2 3 2.7 3 1.6 0 2.8-1.4 2.8-3s-1.2-3-2.8-3c-1.5 0-2.7 1.4-2.7 3zm9.8.5v-4.8c0-.3.3-.5.5-.5h1.4c.2 0 .4.2.4.5v4.9c0 1.5.8 2.4 2 2.4 1.4 0 2.3-1.2 2.4-1.6v-5.7c0-.4.2-.5.5-.5h1.2c.3 0 .5.2.5.5v8.6c0 .3-.2.5-.5.5h-.6c-.3 0-.4-.2-.5-.4l-.2-.7c-.2.2-1.2 1.3-3.2 1.3-2.8 0-3.9-2-3.9-4.5zm12 3.8V212c0-.3.2-.5.5-.5h.7l.4.3.2.9c.2-.3 1.1-1.4 2.9-1.4.9 0 2 .2 1.7.8l-.6 1.2c0 .3-.3.3-.5.2l-.9-.1c-1.4 0-2 1-2.1 1.1v6.1c0 .5-.3.5-.7.5h-1.1a.5.5 0 01-.5-.5zm12.3.5c-.4 0-.6-.3-.4-.6l7.3-16.2.5-.2h.2c.1 0 .3 0 .4.2l7.3 16.2c.2.3 0 .6-.4.6h-1.5a.6.6 0 01-.6-.4l-1.4-3.2h-7.9l-1.5 3.2c0 .2-.2.4-.5.4h-1.5zm4.4-5.7h6l-2.9-6.6h-.1l-3 6.6zm13.3 5.2v-7.1h-1.2a.5.5 0 01-.4-.5v-1c0-.3.2-.5.4-.5h1.2V209c0-3 1.9-4.7 4.7-4.8 1.8 0 2.9.8 3.2 1a4 4 0 013.2-1.2c1.6 0 3.2.7 3.7 1 .2.2.2.4.1.6l-.6 1.2c-.2.2-.4.2-.6 0-.2 0-1.5-.7-2.5-.7s-2 .7-2 2.3v3h6.4c.2 0 .5.2.5.5v8.6c0 .3-.3.5-.5.5h-1.4a.5.5 0 01-.4-.5v-7.1H413v7.1c0 .3-.2.5-.5.5h-1.4a.5.5 0 01-.4-.5v-7.1h-4.6v7.1c0 .3-.2.5-.4.5h-1.4a.5.5 0 01-.5-.5zm2.3-9.1h4.6v-4.2c-.2-.4-1.1-1-2.1-1-1.3 0-2.5.9-2.5 2.8v2.4zm16.9 9.1v-15.8c0-.3.2-.5.4-.5h1.4c.2 0 .5.2.5.5v15.8c0 .3-.3.5-.5.5h-1.4a.5.5 0 01-.4-.5zm6.5-13c-.8 0-1.4-.6-1.4-1.4 0-.8.6-1.4 1.4-1.4a1.4 1.4 0 110 2.8zm-1.1 13V212c0-.3.2-.5.4-.5h1.4c.2 0 .5.2.5.5v8.6c0 .3-.3.5-.5.5h-1.4a.5.5 0 01-.4-.5zm4.7-2.5c0-1.7 1.4-3 3.8-3l2 .2c0-1.5-.4-2.1-1.6-2.1-1 0-2.2.3-2.7.4-.3.1-.4 0-.5-.3l-.2-1c0-.2.1-.4.3-.5.2 0 1.6-.5 3.3-.5 3.1 0 3.4 1.8 3.4 4.2v5.1c0 .3-.2.5-.5.5h-.6c-.2 0-.3-.1-.4-.3l-.3-.7c-.5.5-1.4 1.2-3 1.2-1.7 0-3-1.2-3-3.2zm2 0c0 .9.6 1.5 1.5 1.5 1 0 1.9-.7 2.2-1.2v-1.5c-.2-.1-.8-.4-1.7-.4-1.1 0-2 .6-2 1.6zm9.4.4v-5h-1a.5.5 0 01-.4-.5v-1c0-.3.2-.5.4-.5h1v-2.7c0-.2.3-.4.5-.4h1.4c.2 0 .4.2.4.4v2.7h2.5c.2 0 .4.2.4.5v1c0 .3-.2.5-.4.5h-2.5v4.7c0 .9.3 1 .8 1a4 4 0 001.4-.4c.3-.2.5 0 .6.2l.4 1c.1.3 0 .5-.2.6-.2.2-1.7.7-2.8.7-1.9 0-2.5-1.1-2.5-2.8zm7-2.2c0-2.7 2-5 4.8-5a4.3 4.3 0 014.4 5c0 .3-.2.5-.4.5h-6.6c.1 1.3 1.2 2.5 2.8 2.5a4 4 0 002.1-.7c.3-.1.5-.2.7 0l.7 1c.1.1.2.3 0 .5-.8.6-2 1.2-3.6 1.2-3 0-4.9-2.2-4.9-5zm2.4-1h4.6c0-1.2-1-2.2-2.2-2.2-1.3 0-2.3 1-2.4 2.1z"/><rect width="189" height="60" x="268" y="420" fill="#2AC38C" fill-rule="nonzero" rx="8"/><path fill="#FFF" d="M349.1 449.6a8.6 8.6 0 0114.5-6.4c.2.2.2.5 0 .7l-1 1c-.3.3-.5.3-.7 0a6.4 6.4 0 00-4-1.6c-3.5 0-6.1 3-6.1 6.3s2.6 6.2 6 6.2c2 0 3.4-.7 3.6-.8v-2.7h-2.3c-.3 0-.5-.2-.5-.4v-1.4c0-.3.2-.5.5-.5h4.3c.3 0 .5.2.5.5v5.8l-.2.4s-2.5 1.5-6 1.5a8.6 8.6 0 01-8.6-8.6zm17 3.6a5 5 0 015-5 5 5 0 014.8 5 5 5 0 01-4.9 5 5 5 0 01-4.8-5zm2.2 0c0 1.6 1.2 3 2.7 3 1.5 0 2.7-1.4 2.7-3s-1.2-3-2.7-3c-1.5 0-2.7 1.4-2.7 3z"/><rect width="22" height="22" x="202.5" y="267" fill="#DCE1E7" fill-rule="nonzero" rx="4"/><rect width="282" height="22" x="240.5" y="267" fill="#DCE1E7" fill-rule="nonzero" opacity=".8" rx="4"/><rect width="22" height="22" x="202.5" y="312" fill="#DCE1E7" fill-rule="nonzero" rx="4"/><rect width="282" height="22" x="240.5" y="312" fill="#DCE1E7" fill-rule="nonzero" opacity=".8" rx="4"/><rect width="22" height="22" x="202.5" y="357" fill="#DCE1E7" fill-rule="nonzero" rx="4"/><rect width="282" height="22" x="240.5" y="357" fill="#DCE1E7" fill-rule="nonzero" opacity=".8" rx="4"/></g></svg>