<svg xmlns="http://www.w3.org/2000/svg" xmlns:xlink="http://www.w3.org/1999/xlink" width="754" height="546"><defs><filter id="a" width="106%" height="108%" x="-3%" y="-4%" filterUnits="objectBoundingBox"><feOffset dy="2" in="SourceAlpha" result="shadowOffsetOuter1"/><feGaussianBlur in="shadowOffsetOuter1" result="shadowBlurOuter1" stdDeviation="4"/><feColorMatrix in="shadowBlurOuter1" result="shadowMatrixOuter1" values="0 0 0 0 0 0 0 0 0 0 0 0 0 0 0 0 0 0 0.1 0"/><feMerge><feMergeNode in="shadowMatrixOuter1"/><feMergeNode in="SourceGraphic"/></feMerge></filter><filter id="e" width="122.3%" height="112.9%" x="-11.2%" y="-6.1%" filterUnits="objectBoundingBox"><feOffset dy="2" in="SourceAlpha" result="shadowOffsetOuter1"/><feGaussianBlur in="shadowOffsetOuter1" result="shadowBlurOuter1" stdDeviation="10"/><feColorMatrix in="shadowBlurOuter1" values="0 0 0 0 0.862745098 0 0 0 0 0.882352941 0 0 0 0 0.905882353 0 0 0 1 0"/></filter><path id="b" d="M16 0h640a16 16 0 0116 16v484H0V16A16 16 0 0116 0z"/><path id="g" d="M24 2.3h-4.2a1.2 1.2 0 010-2.3h7c.7 0 1.2.5 1.2 1.2v7a1.2 1.2 0 01-2.3 0V4l-9.1 9c-.5.5-1.2.5-1.7 0l-5-5-8 8a1.2 1.2 0 11-1.6-1.7l8.8-8.7c.4-.5 1.2-.5 1.6 0l5 5L24 2.3z"/><linearGradient id="d" x1="10.9%" x2="90.9%" y1="39.6%" y2="41.6%"><stop offset="0%" stop-color="#0934C4"/><stop offset="100%" stop-color="#2195B7"/></linearGradient><rect id="f" width="278" height="479" x="448" rx="8"/></defs><g fill="none" fill-rule="evenodd"><g filter="url(#a)" transform="translate(8 36)"><mask id="c" fill="#fff"><use xlink:href="#b"/></mask><use fill="#E3EBF6" fill-rule="nonzero" opacity=".5" xlink:href="#b"/><rect width="36" height="33.2" x="26.5" y="155" fill="#D3D7DD" fill-rule="nonzero" mask="url(#c)" opacity=".5" rx="4"/><rect width="36" height="33.2" x="26.5" y="91" fill="#D3D7DD" fill-rule="nonzero" mask="url(#c)" opacity=".5" rx="4"/><rect width="36" height="33.2" x="26.5" y="218" fill="#D3D7DD" fill-rule="nonzero" mask="url(#c)" opacity=".5" rx="4"/><rect width="36" height="33.2" x="26.5" y="283" fill="#D3D7DD" fill-rule="nonzero" mask="url(#c)" opacity=".5" rx="4"/><rect width="36" height="33.2" x="26.5" y="347" fill="#D3D7DD" fill-rule="nonzero" mask="url(#c)" opacity=".5" rx="4"/><rect width="36" height="33.2" x="26.5" y="411" fill="#D3D7DD" fill-rule="nonzero" mask="url(#c)" opacity=".5" rx="4"/><rect width="36" height="33.2" x="26.5" y="474" fill="#D3D7DD" fill-rule="nonzero" mask="url(#c)" opacity=".5" rx="4"/><path fill="#FFF" fill-rule="nonzero" mask="url(#c)" d="M89 0h683v515H89z"/><path fill="url(#d)" fill-rule="nonzero" mask="url(#c)" d="M0 0h694v56H0z"/></g><g fill-rule="nonzero" transform="translate(8 18)"><use fill="#000" filter="url(#e)" xlink:href="#f"/><use fill="#FFF" xlink:href="#f"/></g><path stroke="#B8C3CF" stroke-linecap="square" d="M456 92h278"/><path fill="#B8C3CF" d="M504.8 56.7a6.5 6.5 0 0110.9-4.8v.5l-.8.8c-.1.2-.3.2-.4 0-.9-.7-2-1.2-3.2-1.2a4.6 4.6 0 00-4.5 4.7c0 2.5 2 4.6 4.6 4.6 1.3 0 2.2-.5 3-1.1.2-.2.4-.2.5 0l.8.7c.2.2.1.4 0 .5a6.5 6.5 0 01-10.9-4.7zm12.4 2.7c0-2 1.6-3.8 3.6-3.8s3.6 1.7 3.6 3.8c0 2-1.6 3.8-3.6 3.8s-3.6-1.7-3.6-3.8zm1.6 0c0 1.2.9 2.2 2 2.2s2-1 2-2.2c0-1.2-.9-2.2-2-2.2s-2 1-2 2.2zm7.4 3.3V56c0-.1.2-.3.4-.3h.5c.1 0 .2 0 .3.2l.2.6c.1-.1 1-1 2.4-1 1 0 1.8.4 2.3 1.2a4 4 0 012.6-1.2c2.2 0 3 1.6 3 3.4v3.7c0 .1-.2.3-.4.3h-1a.3.3 0 01-.3-.3V59c0-1.2-.6-1.8-1.5-1.8-1.1 0-1.8.8-1.9.9v4.6c0 .1 0 .3-.3.3h-1a.3.3 0 01-.3-.3V59c0-1.2-.5-1.8-1.5-1.8a2 2 0 00-1.8 1v4.5c0 .1-.1.3-.3.3h-1a.4.4 0 01-.4-.3zm14 0V56c0-.1 0-.3.3-.3h.5c.1 0 .2 0 .3.2l.2.6c.1-.1 1-1 2.3-1 1 0 1.8.4 2.4 1.2a4 4 0 012.6-1.2c2.2 0 3 1.6 3 3.4v3.7c0 .1-.2.3-.4.3h-1a.3.3 0 01-.4-.3V59c0-1.2-.5-1.8-1.5-1.8s-1.7.8-1.8.9v4.6c0 .1-.1.3-.3.3h-1a.3.3 0 01-.3-.3V59c0-1.2-.5-1.8-1.5-1.8a2 2 0 00-1.8 1v4.5l-.3.3h-1a.4.4 0 01-.4-.3zm14.6-9.8a1 1 0 01-1-1c0-.7.4-1.1 1-1.1a1 1 0 110 2zm-.8 9.8V56c0-.1.1-.3.3-.3h1c.2 0 .4.2.4.3v6.6l-.3.3h-1a.4.4 0 01-.4-.3zm3.7-.3c-.1 0-.2-.2-.1-.3l.4-.7c0-.2.3-.2.4-.1 0 0 .8.4 1.7.4.5 0 .9-.2.9-.6 0-.5-.4-.7-1.4-1.1-1.1-.5-2-1.2-2-2.4 0-.9.7-2 2.4-2 1 0 1.8.3 2.1.6.2 0 .3.3.2.5l-.3.6c-.1.2-.4.2-.5.2 0 0-.8-.4-1.5-.4-.6 0-.8.2-.8.5 0 .5.5.7 1.2 1 1.3.6 2.4 1.1 2.4 2.5 0 1-1.1 2-2.7 2-1.2 0-2-.4-2.4-.7zm6.5 0c-.2 0-.2-.2-.2-.3l.4-.7c.1-.2.3-.2.5-.1 0 0 .8.4 1.6.4.6 0 1-.2 1-.6 0-.5-.5-.7-1.5-1.1-1-.5-2-1.2-2-2.4 0-.9.7-2 2.5-2 1 0 1.7.3 2 .6.2 0 .3.3.2.5l-.3.6c0 .2-.3.2-.5.2 0 0-.8-.4-1.4-.4-.7 0-.9.2-.9.5 0 .5.5.7 1.2 1 1.3.6 2.4 1.1 2.4 2.5 0 1-1 2-2.7 2-1.2 0-2-.4-2.3-.7zm7.6-9.5a1 1 0 01-1-1c0-.7.4-1.1 1-1.1a1 1 0 110 2zm-.9 9.8V56c0-.1.2-.3.4-.3h1c.2 0 .3.2.3.3v6.6c0 .1-.1.3-.3.3h-1a.4.4 0 01-.4-.3zm3.5-3.3c0-2 1.7-3.8 3.7-3.8s3.6 1.7 3.6 3.8c0 2-1.6 3.8-3.6 3.8s-3.7-1.7-3.7-3.8zm1.6 0c0 1.2 1 2.2 2 2.2 1.2 0 2.1-1 2.1-2.2 0-1.2-.9-2.2-2-2.2-1.2 0-2 1-2 2.2zm7.5 3.3V56l.3-.3h.6c.1 0 .2 0 .3.2l.2.6c.1-.1 1-1 2.5-1 2.2 0 3 1.6 3 3.4v3.7l-.3.3h-1a.3.3 0 01-.4-.3V59c0-1.2-.6-1.8-1.5-1.8-1.1 0-2 .8-2 1v4.5c0 .2-.1.3-.4.3h-1a.4.4 0 01-.3-.3zm12.6-2c0-1.2 1-2.3 2.9-2.3.7 0 1.4.3 1.4.3 0-1.2-.2-1.6-1.1-1.6-.9 0-1.7.2-2 .3-.3 0-.4 0-.4-.3l-.2-.7c0-.2 0-.3.3-.4 0 0 1.1-.4 2.4-.4 2.3 0 2.6 1.4 2.6 3.2v3.9c0 .1-.2.3-.4.3h-.5c-.2 0-.2 0-.3-.3l-.2-.4c-.4.3-1 .9-2.2.9-1.3 0-2.3-1-2.3-2.4zm1.6 0c0 .7.4 1.2 1 1.2.8 0 1.5-.5 1.7-.9v-1.1c-.1-.1-.6-.3-1.3-.3-.9 0-1.4.4-1.4 1.1zm6.5 2V56c0-.1.2-.3.4-.3h.5c.1 0 .2 0 .3.2l.2.6c.1-.1 1-1 2.4-1 1 0 1.8.4 2.3 1.2a4 4 0 012.6-1.2c2.2 0 3 1.6 3 3.4v3.7c0 .1-.2.3-.4.3h-1a.3.3 0 01-.3-.3V59c0-1.2-.6-1.8-1.5-1.8-1.1 0-1.8.8-1.9.9v4.6c0 .1-.1.3-.3.3h-1a.3.3 0 01-.3-.3V59c0-1.2-.5-1.8-1.5-1.8a2 2 0 00-1.8 1v4.5c0 .1-.1.3-.3.3h-1a.4.4 0 01-.4-.3zm13.4-3.3c0-2 1.6-3.8 3.6-3.8s3.6 1.7 3.6 3.8c0 2-1.6 3.8-3.6 3.8s-3.6-1.7-3.6-3.8zm1.6 0c0 1.2.9 2.2 2 2.2s2-1 2-2.2c0-1.2-.9-2.2-2-2.2s-2 1-2 2.2zm7.3.4V56c0-.1.2-.3.4-.3h1c.2 0 .3.2.3.3v3.7c0 1.2.6 1.8 1.5 1.8 1 0 1.7-.8 1.8-1.2V56c0-.2.1-.3.4-.3h1l.3.3v6.6c0 .1-.2.3-.4.3h-.5c-.2 0-.2-.1-.3-.3l-.2-.5c-.1.1-.9 1-2.4 1-2.1 0-2.9-1.6-2.9-3.4zm9 2.9V56c0-.1.2-.3.4-.3h.5c.1 0 .2 0 .3.2l.2.6c.1-.1 1-1 2.5-1 2.2 0 3 1.6 3 3.4v3.7l-.3.3h-1a.3.3 0 01-.4-.3V59c0-1.2-.6-1.8-1.5-1.8-1.1 0-2 .8-2 1v4.5c0 .2-.1.3-.4.3h-1a.4.4 0 01-.3-.3zm9.6-1.7v-3.7h-.7a.3.3 0 01-.4-.3v-1c0-.2.2-.3.4-.3h.7v-2c0-.2.2-.3.4-.3h1c.2 0 .3.1.3.3v2h1.8c.2 0 .4.1.4.3v.9c0 .1-.2.3-.4.3h-1.8v3.6c0 .6.2.7.6.7a3 3 0 001-.3c.3-.2.4 0 .5.1l.3.8c.1.2 0 .3-.1.4-.2.1-1.3.6-2.1.6-1.5 0-1.9-.9-1.9-2.2z"/><path fill="#2AC38C" d="M620.3 139.4h-3.5V138h3.5v-3.6h1.6v3.6h3.5v1.5H622v3.6h-1.6v-3.6zm17.5 5.6h-2v-10.7l-.5.5-2 1.6-1-1.3 3.8-3h1.7V145zm13.4-2.8h-1.7v2.8h-2v-2.8h-6v-1.6l6-8.5h2v8.4h1.7v1.7zm-3.8-1.7v-3.2l.1-2.9-.8 1.4-3.2 4.7h4zm5.3 3.4c0-.4 0-.8.3-1 .2-.2.5-.3 1-.3.4 0 .7 0 1 .3.2.3.3.6.3 1s-.1.7-.4 1c-.2.2-.5.4-1 .4-.4 0-.7-.2-.9-.4-.2-.2-.3-.6-.3-1zm4.6-4.4c0-5 2-7.5 6.1-7.5l1.7.1v1.8c-.5-.2-1-.2-1.6-.2-1.4 0-2.4.3-3.1 1-.7.8-1 2-1.1 3.6.4-.5.7-.8 1.2-1 .5-.3 1.1-.5 1.8-.5 1.2 0 2 .4 2.7 1.1.7.7 1 1.7 1 3s-.4 2.3-1.1 3.1a4 4 0 01-3.1 1.2 4.2 4.2 0 01-4-2.6c-.3-.9-.5-1.9-.5-3zm4.5 4a2 2 0 001.6-.7 3 3 0 00.6-2c0-.7-.2-1.3-.6-1.7-.3-.4-.9-.6-1.6-.6-.4 0-.8 0-1.2.2l-1 .8-.2 1c0 .9.2 1.6.6 2.1.5.6 1 .9 1.8.9zm14.9-1.3h-1.8v2.8h-2v-2.8h-5.8v-1.6l5.8-8.5h2v8.4h1.8v1.7zm-3.8-1.7v-3.2l.1-2.9-.8 1.4-3.2 4.7h4z"/><path fill="#000" d="M505.5 131h9v1.7h-7.2v3.9h6.3v1.5h-6.3v5.9h-1.8v-13zm14.6 3.4a4.3 4.3 0 013.4 1.7c.3.4.5 1 .6 1.6l.1 2.1h-6.9c0 1 .3 1.7.7 2.3.4.6 1 .9 2 .9a2.5 2.5 0 002.5-2h1.6c0 .4-.2.8-.4 1.2-.2.4-.5.8-.8 1-.5.5-1 .8-1.8 1l-1.3.1a4 4 0 01-3-1.2 5 5 0 01-1.2-3.6c0-1.5.4-2.8 1.3-3.7a4 4 0 013.2-1.4zm2.5 4.1c0-.6-.2-1.2-.5-1.6-.4-.8-1.1-1.1-2.1-1.1-.7 0-1.4.2-1.8.7a3 3 0 00-.8 2h5.2zm3.4-7.5h1.6v4.7a3.5 3.5 0 012.8-1.4c1.2 0 2.1.4 2.8 1.2.8.9 1.1 2 1.1 3.6 0 1.5-.3 2.7-1 3.7-.8 1-1.8 1.5-3 1.5a3 3 0 01-1.9-.5l-.9-1v1.2H526v-13zm4.2 11.9c.8 0 1.5-.3 1.9-1a5 5 0 00.6-2.7c0-1-.2-1.8-.6-2.5-.4-.6-1-1-1.9-1-.7 0-1.4.3-1.9.9-.5.5-.8 1.4-.8 2.6 0 .9.1 1.6.3 2.1.4 1 1.2 1.6 2.4 1.6zm10.4 1.1c0-1 .3-2 .7-2.8.3-.8 1.1-1.6 2.2-2.2l1.7-1a8 8 0 001.6-1.1c.5-.5.7-1 .7-1.7s-.2-1.3-.6-1.7c-.5-.5-1-.7-1.8-.7-1 0-1.8.4-2.2 1.3-.3.4-.4 1-.4 1.8h-1.6c0-1.1.2-2 .6-2.7.7-1.2 1.9-1.8 3.6-1.8 1.5 0 2.5.4 3.2 1.1a4 4 0 011 2.6c0 1-.4 2-1 2.6-.5.4-1.2 1-2.3 1.5l-1.2.7c-.6.3-1 .6-1.3 1-.6.4-1 1-1.2 1.6h7v1.5h-8.7zm11.2-9v-1c1-.1 1.9-.3 2.3-.6.5-.2.8-.9 1-1.8h1.3V144h-1.7v-9h-3z" opacity=".6"/><path fill="#2AC38C" d="M620.3 199.4h-3.5V198h3.5v-3.6h1.6v3.6h3.5v1.5H622v3.6h-1.6v-3.6zm20.2 5.6h-8.8v-1.6l3.4-3.3 1.9-2.1c.3-.4.6-.8.7-1.2l.2-1.2c0-.6-.2-1-.5-1.4a2 2 0 00-1.4-.5l-1.5.3c-.4.2-1 .5-1.6 1l-1-1.4c.6-.6 1.3-1 2-1.3l2.1-.3c1.2 0 2.2.3 3 .9.6.6 1 1.5 1 2.5 0 .6-.1 1.2-.3 1.7-.2.5-.5 1-1 1.6-.4.5-1.1 1.3-2.1 2.2l-2.2 2.2h6v1.9zm10.2 0H642v-1.6l3.3-3.3 2-2.1.7-1.2.2-1.2c0-.6-.2-1-.5-1.4a2 2 0 00-1.5-.5c-.5 0-1 .1-1.4.3-.5.2-1 .5-1.6 1l-1.1-1.4c.7-.6 1.4-1 2-1.3.7-.2 1.5-.3 2.2-.3 1.2 0 2.2.3 2.9.9.7.6 1 1.5 1 2.5 0 .6 0 1.2-.2 1.7l-1 1.6c-.4.5-1.1 1.3-2.1 2.2l-2.3 2.2h6.1v1.9zm2-1.1c0-.4 0-.8.3-1 .2-.2.5-.3 1-.3.4 0 .7 0 1 .3.2.3.3.6.3 1s-.1.7-.4 1c-.2.2-.5.4-1 .4-.4 0-.7-.2-.9-.4-.2-.2-.3-.6-.3-1zm13.2 1.1h-8.7v-1.6l3.4-3.3 1.9-2.1c.3-.4.6-.8.7-1.2l.2-1.2c0-.6-.2-1-.5-1.4a2 2 0 00-1.5-.5c-.4 0-1 .1-1.4.3-.4.2-1 .5-1.6 1l-1-1.4c.6-.6 1.3-1 2-1.3l2.1-.3c1.2 0 2.2.3 3 .9.6.6 1 1.5 1 2.5 0 .6-.1 1.2-.3 1.7-.2.5-.5 1-1 1.6-.4.5-1.1 1.3-2.1 2.2l-2.3 2.2h6.1v1.9zm6-8c1.3 0 2.3.3 3 1 .8.7 1.2 1.6 1.2 2.8 0 1.4-.4 2.4-1.3 3.2-.9.8-2 1.2-3.7 1.2a7 7 0 01-3.4-.7v-1.9c.5.3 1 .5 1.7.6l1.7.3c1 0 1.6-.3 2.1-.7.5-.4.8-1 .8-1.8 0-1.5-1-2.3-3-2.3h-1l-1 .3-1-.6.5-6.2h6.7v1.8h-4.9l-.3 3.2a61.6 61.6 0 011.9-.2z"/><path fill="#000" d="M505.5 191h9v1.7h-7.2v3.9h6.3v1.5h-6.3v5.9h-1.8v-13zm14.6 3.4a4.3 4.3 0 013.4 1.7c.3.4.5 1 .6 1.6l.1 2.1h-6.9c0 1 .3 1.7.7 2.3.4.6 1 .9 2 .9a2.5 2.5 0 002.5-2h1.6c0 .4-.2.8-.4 1.2-.2.4-.5.8-.8 1-.5.5-1 .8-1.8 1l-1.3.1a4 4 0 01-3-1.2 5 5 0 01-1.2-3.6c0-1.5.4-2.8 1.3-3.7a4 4 0 013.2-1.4zm2.5 4.1c0-.6-.2-1.2-.5-1.6-.4-.8-1.1-1.1-2.1-1.1-.7 0-1.4.2-1.8.7a3 3 0 00-.8 2h5.2zm3.4-7.5h1.6v4.7a3.5 3.5 0 012.8-1.4c1.2 0 2.1.4 2.8 1.2.8.9 1.1 2 1.1 3.6 0 1.5-.3 2.7-1 3.7-.8 1-1.8 1.5-3 1.5a3 3 0 01-1.9-.5l-.9-1v1.2H526v-13zm4.2 11.9c.8 0 1.5-.3 1.9-1a5 5 0 00.6-2.7c0-1-.2-1.8-.6-2.5-.4-.6-1-1-1.9-1-.7 0-1.4.3-1.9.9-.5.5-.8 1.4-.8 2.6 0 .9.1 1.6.3 2.1.4 1 1.2 1.6 2.4 1.6zm10.4 1.1c0-1 .3-2 .7-2.8.3-.8 1.1-1.6 2.2-2.2l1.7-1a8 8 0 001.6-1.1c.5-.5.7-1 .7-1.7s-.2-1.3-.6-1.7c-.5-.5-1-.7-1.8-.7-1 0-1.8.4-2.2 1.3-.3.4-.4 1-.4 1.8h-1.6c0-1.1.2-2 .6-2.7.7-1.2 1.9-1.8 3.6-1.8 1.5 0 2.5.4 3.2 1.1a4 4 0 011 2.6c0 1-.4 2-1 2.6-.5.4-1.2 1-2.3 1.5l-1.2.7c-.6.3-1 .6-1.3 1-.6.4-1 1-1.2 1.6h7v1.5h-8.7zm10 0c0-1 .3-2 .7-2.8.4-.8 1.1-1.6 2.2-2.2l1.7-1a8 8 0 001.6-1.1c.5-.5.7-1 .7-1.7s-.2-1.3-.6-1.7c-.5-.5-1-.7-1.8-.7-1 0-1.8.4-2.2 1.3-.2.4-.4 1-.4 1.8H551c0-1.1.2-2 .6-2.7.7-1.2 1.9-1.8 3.6-1.8 1.5 0 2.5.4 3.2 1.1a4 4 0 011 2.6c0 1-.4 2-1 2.6-.5.4-1.2 1-2.3 1.5l-1.2.7c-.6.3-1 .6-1.3 1-.6.4-1 1-1.1 1.6h6.8v1.5h-8.6z" opacity=".6"/><path fill="#C7C7C7" d="M616.6 261v-1.7h4.6v1.8h-4.6zm19.4 4h-8.7v-1.6l3.3-3.3 2-2.1.6-1.2c.2-.4.2-.8.2-1.2 0-.6-.1-1-.5-1.4a2 2 0 00-1.4-.5l-1.5.3c-.4.2-1 .5-1.6 1l-1-1.4c.6-.6 1.3-1 2-1.3.7-.2 1.4-.3 2.2-.3 1.2 0 2.1.3 2.8.9.8.6 1.1 1.5 1.1 2.5 0 .6 0 1.2-.3 1.7-.2.5-.5 1-1 1.6-.4.5-1.1 1.3-2.1 2.2l-2.2 2.2h6v1.9zm7.6 0h-2v-10.7l-.5.5-2 1.6-1-1.3 3.8-3h1.7V265zm4.6-1.1c0-.4.1-.8.3-1 .2-.2.6-.3 1-.3s.7 0 1 .3c.2.3.3.6.3 1s-.1.7-.3 1c-.3.2-.6.4-1 .4s-.8-.2-1-.4c-.2-.2-.3-.6-.3-1zm13.3-5.3c0 2.2-.4 3.9-1.1 5-.7 1-1.8 1.6-3.3 1.6-1.4 0-2.5-.6-3.3-1.7a9 9 0 01-1-5c0-2.2.3-3.9 1-5 .7-1 1.8-1.6 3.3-1.6 1.4 0 2.5.6 3.3 1.7a9 9 0 011 5zm-6.7 0c0 1.7.2 3 .6 3.7.3.8 1 1.2 1.7 1.2.8 0 1.4-.4 1.7-1.2.4-.8.6-2 .6-3.7 0-1.7-.2-3-.6-3.8-.3-.7-1-1.1-1.7-1.1-.8 0-1.4.4-1.7 1.1-.4.8-.6 2-.6 3.8zm17 6.4H663v-1.6l3.3-3.3 2-2.1.7-1.2.2-1.2c0-.6-.2-1-.5-1.4a2 2 0 00-1.5-.5c-.5 0-1 .1-1.4.3-.4.2-1 .5-1.6 1l-1.1-1.4c.7-.6 1.4-1 2-1.3l2.2-.3c1.2 0 2.2.3 3 .9.6.6 1 1.5 1 2.5 0 .6-.1 1.2-.3 1.7-.2.5-.5 1-1 1.6-.4.5-1.1 1.3-2.1 2.2l-2.3 2.2h6.1v1.9z"/><path fill="#000" d="M505.5 251h9v1.7h-7.2v3.9h6.3v1.5h-6.3v5.9h-1.8v-13zm14.6 3.4a4.3 4.3 0 013.4 1.7c.3.4.5 1 .6 1.6l.1 2.1h-6.9c0 1 .3 1.7.7 2.3.4.6 1 .9 2 .9a2.5 2.5 0 002.5-2h1.6c0 .4-.2.8-.4 1.2-.2.4-.5.8-.8 1-.5.5-1 .8-1.8 1l-1.3.1a4 4 0 01-3-1.2 5 5 0 01-1.2-3.6c0-1.5.4-2.8 1.3-3.7a4 4 0 013.2-1.4zm2.5 4.1c0-.6-.2-1.2-.5-1.6-.4-.8-1.1-1.1-2.1-1.1-.7 0-1.4.2-1.8.7a3 3 0 00-.8 2h5.2zm3.4-7.5h1.6v4.7a3.5 3.5 0 012.8-1.4c1.2 0 2.1.4 2.8 1.2.8.9 1.1 2 1.1 3.6 0 1.5-.3 2.7-1 3.7-.8 1-1.8 1.5-3 1.5a3 3 0 01-1.9-.5l-.9-1v1.2H526v-13zm4.2 11.9c.8 0 1.5-.3 1.9-1a5 5 0 00.6-2.7c0-1-.2-1.8-.6-2.5-.4-.6-1-1-1.9-1-.7 0-1.4.3-1.9.9-.5.5-.8 1.4-.8 2.6 0 .9.1 1.6.3 2.1.4 1 1.2 1.6 2.4 1.6zm10.4 1.1c0-1 .3-2 .7-2.8.3-.8 1.1-1.6 2.2-2.2l1.7-1a8 8 0 001.6-1.1c.5-.5.7-1 .7-1.7s-.2-1.3-.6-1.7c-.5-.5-1-.7-1.8-.7-1 0-1.8.4-2.2 1.3-.3.4-.4 1-.4 1.8h-1.6c0-1.1.2-2 .6-2.7.7-1.2 1.9-1.8 3.6-1.8 1.5 0 2.5.4 3.2 1.1a4 4 0 011 2.6c0 1-.4 2-1 2.6-.5.4-1.2 1-2.3 1.5l-1.2.7c-.6.3-1 .6-1.3 1-.6.4-1 1-1.2 1.6h7v1.5h-8.7zm14.1.3c-1.5 0-2.6-.4-3.2-1.2-.7-.8-1-1.8-1-3h1.6c0 .8.2 1.4.5 1.8.4.7 1.1 1 2.2 1a3 3 0 002-.7c.5-.4.8-1 .8-1.7 0-.9-.3-1.5-.8-1.8a4 4 0 00-2.3-.5 11.9 11.9 0 00-.6 0v-1.4a7.9 7.9 0 00.8 0c.6 0 1 0 1.4-.2.7-.4 1-1 1-1.8 0-.6-.2-1.1-.6-1.5-.5-.3-1-.5-1.6-.5-1 0-1.8.4-2.2 1l-.4 1.7h-1.5c0-.9.2-1.7.5-2.3.7-1.2 1.8-1.8 3.4-1.8 1.3 0 2.3.3 3 .9.7.5 1 1.4 1 2.4 0 .8-.1 1.4-.6 2-.2.2-.5.5-1 .6.7.2 1.2.6 1.6 1 .4.6.6 1.2.6 2 0 1.2-.4 2.2-1.2 3-.8.7-2 1-3.4 1z" opacity=".6"/><path fill="#2AC38C" d="M620.3 319.4h-3.5V318h3.5v-3.6h1.6v3.6h3.5v1.5H622v3.6h-1.6v-3.6zm19.7-4.3a3 3 0 01-.7 2c-.5.6-1.2 1-2 1.1v.1c1 .1 1.8.5 2.3 1 .5.5.7 1.2.7 2 0 1.2-.4 2.2-1.3 2.9a6 6 0 01-3.7 1c-1.4 0-2.6-.3-3.6-.7v-1.9a8.2 8.2 0 003.5.9c1 0 1.7-.2 2.2-.6.5-.3.8-1 .8-1.7s-.3-1.2-.9-1.5c-.5-.3-1.4-.5-2.5-.5h-1.1v-1.7h1.1c2 0 3-.7 3-2 0-.6-.1-1-.5-1.4-.3-.3-.8-.4-1.5-.4-.5 0-1 0-1.4.2-.5.1-1 .4-1.6.8l-1-1.4a6.7 6.7 0 014-1.3c1.3 0 2.4.2 3 .8.8.6 1.2 1.3 1.2 2.3zm10.7 9.9H642v-1.6l3.3-3.3 2-2.1.7-1.2.2-1.2c0-.6-.2-1-.5-1.4a2 2 0 00-1.5-.5c-.5 0-1 .1-1.4.3-.5.2-1 .5-1.6 1l-1.1-1.4c.7-.6 1.4-1 2-1.3.7-.2 1.5-.3 2.2-.3 1.2 0 2.2.3 2.9.9.7.6 1 1.5 1 2.5 0 .6 0 1.2-.2 1.7l-1 1.6c-.4.5-1.1 1.3-2.1 2.2l-2.3 2.2h6.1v1.9zm2-1.1c0-.4 0-.8.3-1 .2-.2.5-.3 1-.3.4 0 .7 0 1 .3.2.3.3.6.3 1s-.1.7-.4 1c-.2.2-.5.4-1 .4-.4 0-.7-.2-.9-.4-.2-.2-.3-.6-.3-1zm10.6 1.1h-2v-10.7l-.5.5-2 1.6-1-1.3 3.8-3h1.7V325zm10.3 0h-2v-10.7l-.5.5-2 1.6-1-1.3 3.8-3h1.7V325z"/><path fill="#000" d="M505.5 311h9v1.7h-7.2v3.9h6.3v1.5h-6.3v5.9h-1.8v-13zm14.6 3.4a4.3 4.3 0 013.4 1.7c.3.4.5 1 .6 1.6l.1 2.1h-6.9c0 1 .3 1.7.7 2.3.4.6 1 .9 2 .9a2.5 2.5 0 002.5-2h1.6c0 .4-.2.8-.4 1.2-.2.4-.5.8-.8 1-.5.5-1 .8-1.8 1l-1.3.1a4 4 0 01-3-1.2 5 5 0 01-1.2-3.6c0-1.5.4-2.8 1.3-3.7a4 4 0 013.2-1.4zm2.5 4.1c0-.6-.2-1.2-.5-1.6-.4-.8-1.1-1.1-2.1-1.1-.7 0-1.4.2-1.8.7a3 3 0 00-.8 2h5.2zm3.4-7.5h1.6v4.7a3.5 3.5 0 012.8-1.4c1.2 0 2.1.4 2.8 1.2.8.9 1.1 2 1.1 3.6 0 1.5-.3 2.7-1 3.7-.8 1-1.8 1.5-3 1.5a3 3 0 01-1.9-.5l-.9-1v1.2H526v-13zm4.2 11.9c.8 0 1.5-.3 1.9-1a5 5 0 00.6-2.7c0-1-.2-1.8-.6-2.5-.4-.6-1-1-1.9-1-.7 0-1.4.3-1.9.9-.5.5-.8 1.4-.8 2.6 0 .9.1 1.6.3 2.1.4 1 1.2 1.6 2.4 1.6zm10.4 1.1c0-1 .3-2 .7-2.8.3-.8 1.1-1.6 2.2-2.2l1.7-1a8 8 0 001.6-1.1c.5-.5.7-1 .7-1.7s-.2-1.3-.6-1.7c-.5-.5-1-.7-1.8-.7-1 0-1.8.4-2.2 1.3-.3.4-.4 1-.4 1.8h-1.6c0-1.1.2-2 .6-2.7.7-1.2 1.9-1.8 3.6-1.8 1.5 0 2.5.4 3.2 1.1a4 4 0 011 2.6c0 1-.4 2-1 2.6-.5.4-1.2 1-2.3 1.5l-1.2.7c-.6.3-1 .6-1.3 1-.6.4-1 1-1.2 1.6h7v1.5h-8.7zm15.4-4.5v-5.7l-4 5.7h4zm0 4.5v-3h-5.5v-1.6l5.8-8h1.3v8.1h1.8v1.4h-1.8v3.1H556z" opacity=".6"/><path fill="#2AC38C" d="M620.3 379.4h-3.5V378h3.5v-3.6h1.6v3.6h3.5v1.5H622v3.6h-1.6v-3.6zm19.7-4.3a3 3 0 01-.7 2c-.5.6-1.2 1-2 1.1v.1c1 .1 1.8.5 2.3 1 .5.5.7 1.2.7 2 0 1.2-.4 2.2-1.3 2.9a6 6 0 01-3.7 1c-1.4 0-2.6-.3-3.6-.7v-1.9a8.2 8.2 0 003.5.9c1 0 1.7-.2 2.2-.6.5-.3.8-1 .8-1.7s-.3-1.2-.9-1.5c-.5-.3-1.4-.5-2.5-.5h-1.1v-1.7h1.1c2 0 3-.7 3-2 0-.6-.1-1-.5-1.4-.3-.3-.8-.4-1.5-.4-.5 0-1 0-1.4.2-.5.1-1 .4-1.6.8l-1-1.4a6.7 6.7 0 014-1.3c1.3 0 2.4.2 3 .8.8.6 1.2 1.3 1.2 2.3zm3.5 9.9l5-11H642v-1.8h8.9v1.4l-5 11.4h-2.3zm9.2-1.1c0-.4 0-.8.3-1 .2-.2.5-.3 1-.3.4 0 .7 0 1 .3.2.3.3.6.3 1s-.1.7-.4 1c-.2.2-.5.4-1 .4-.4 0-.7-.2-.9-.4-.2-.2-.3-.6-.3-1zm8.9-12c1.2 0 2.2.4 2.9 1 .7.5 1 1.2 1 2.2 0 1.3-.8 2.3-2.3 3.1 1 .5 1.7 1 2.1 1.6.4.6.6 1.2.6 1.9 0 1-.3 1.9-1.1 2.5-.8.7-1.9 1-3.2 1-1.4 0-2.5-.3-3.2-1a3 3 0 01-1.2-2.5c0-.7.2-1.3.6-1.9.4-.6 1-1 2-1.5a5 5 0 01-1.7-1.5c-.3-.5-.5-1.1-.5-1.8 0-.9.4-1.6 1.1-2.2.7-.5 1.7-.8 2.9-.8zm-2.4 9.8c0 .6.2 1 .6 1.4.5.3 1 .5 1.8.5.7 0 1.3-.2 1.7-.5.5-.4.7-.9.7-1.4 0-.5-.2-1-.6-1.3-.4-.4-1-.8-1.8-1.1l-.2-.2c-.8.4-1.4.8-1.7 1.2-.3.4-.5.8-.5 1.4zm2.4-8.1c-.6 0-1.1.1-1.5.4-.3.3-.5.7-.5 1.2 0 .3 0 .6.2.8l.6.7 1.2.7c.7-.3 1.2-.7 1.5-1 .3-.4.4-.8.4-1.2 0-.5-.1-.9-.5-1.2-.4-.3-.8-.4-1.4-.4zm14.6 5c0 2.2-.3 3.9-1 5-.8 1-1.9 1.6-3.3 1.6-1.5 0-2.6-.6-3.3-1.7a9 9 0 01-1.1-5c0-2.2.4-3.9 1-5 .8-1 1.9-1.6 3.4-1.6 1.4 0 2.5.6 3.2 1.7a9 9 0 011.1 5zm-6.6 0c0 1.7.2 3 .5 3.7.4.8 1 1.2 1.8 1.2.7 0 1.3-.4 1.7-1.2.4-.8.5-2 .5-3.7 0-1.7-.1-3-.5-3.8-.4-.7-1-1.1-1.7-1.1-.8 0-1.4.4-1.8 1.1-.3.8-.5 2-.5 3.8z"/><path fill="#000" d="M505.5 371h9v1.7h-7.2v3.9h6.3v1.5h-6.3v5.9h-1.8v-13zm14.6 3.4a4.3 4.3 0 013.4 1.7c.3.4.5 1 .6 1.6l.1 2.1h-6.9c0 1 .3 1.7.7 2.3.4.6 1 .9 2 .9a2.5 2.5 0 002.5-2h1.6c0 .4-.2.8-.4 1.2-.2.4-.5.8-.8 1-.5.5-1 .8-1.8 1l-1.3.1a4 4 0 01-3-1.2 5 5 0 01-1.2-3.6c0-1.5.4-2.8 1.3-3.7a4 4 0 013.2-1.4zm2.5 4.1c0-.6-.2-1.2-.5-1.6-.4-.8-1.1-1.1-2.1-1.1-.7 0-1.4.2-1.8.7a3 3 0 00-.8 2h5.2zm3.4-7.5h1.6v4.7a3.5 3.5 0 012.8-1.4c1.2 0 2.1.4 2.8 1.2.8.9 1.1 2 1.1 3.6 0 1.5-.3 2.7-1 3.7-.8 1-1.8 1.5-3 1.5a3 3 0 01-1.9-.5l-.9-1v1.2H526v-13zm4.2 11.9c.8 0 1.5-.3 1.9-1a5 5 0 00.6-2.7c0-1-.2-1.8-.6-2.5-.4-.6-1-1-1.9-1-.7 0-1.4.3-1.9.9-.5.5-.8 1.4-.8 2.6 0 .9.1 1.6.3 2.1.4 1 1.2 1.6 2.4 1.6zm10.4 1.1c0-1 .3-2 .7-2.8.3-.8 1.1-1.6 2.2-2.2l1.7-1a8 8 0 001.6-1.1c.5-.5.7-1 .7-1.7s-.2-1.3-.6-1.7c-.5-.5-1-.7-1.8-.7-1 0-1.8.4-2.2 1.3-.3.4-.4 1-.4 1.8h-1.6c0-1.1.2-2 .6-2.7.7-1.2 1.9-1.8 3.6-1.8 1.5 0 2.5.4 3.2 1.1a4 4 0 011 2.6c0 1-.4 2-1 2.6-.5.4-1.2 1-2.3 1.5l-1.2.7c-.6.3-1 .6-1.3 1-.6.4-1 1-1.2 1.6h7v1.5h-8.7zm11.7-3.2c0 .9.5 1.5 1.2 1.9l1.3.2c1 0 1.6-.3 2-.9.5-.6.8-1.2.8-2a2.6 2.6 0 00-2.8-2.7 3 3 0 00-1.4.3 3 3 0 00-1 .9l-1.3-.1 1-6.8h6.5v1.6h-5.4l-.5 3.5.8-.5c.5-.2 1-.3 1.6-.3 1.2 0 2.2.3 3 1 .8.8 1.2 1.8 1.2 3 0 1.1-.4 2.1-1.1 3-.8 1-2 1.4-3.5 1.4-1 0-2-.3-2.8-.8-.8-.6-1.2-1.5-1.3-2.7h1.7z" opacity=".6"/><use fill="#B8C3CF" fill-rule="nonzero" xlink:href="#g" transform="translate(148 155)"/><path fill="#B8C3CF" d="M189.1 161.6a8.6 8.6 0 0114.5-6.4c.2.2.2.5 0 .7l-1 1c-.2.3-.4.3-.7 0a6.5 6.5 0 00-4.1-1.6c-3.4 0-6 3-6 6.3s2.6 6.2 6 6.2c1.8 0 3-.7 4.1-1.6.3-.2.5-.1.6 0l1.1 1c.2.2.2.5 0 .7a8.6 8.6 0 01-14.5-6.3zm16.4 3.6a5 5 0 014.9-5 5 5 0 014.8 5 5 5 0 01-4.8 5 5 5 0 01-4.9-5zm2.2 0c0 1.6 1.2 3 2.7 3 1.5 0 2.7-1.4 2.7-3s-1.2-3-2.7-3c-1.5 0-2.7 1.4-2.7 3zm10 4.3V161c0-.3.2-.5.4-.5h.7c.2 0 .3.1.4.3l.3.8a5 5 0 013.3-1.3c3 0 4 2 4 4.5v4.8c0 .3-.2.5-.4.5H225a.5.5 0 01-.4-.5v-4.9c0-1.5-.8-2.4-2-2.4-1.6 0-2.6 1.2-2.7 1.5v5.8c0 .4-.1.5-.6.5h-1.2a.5.5 0 01-.5-.5zm15 .5l-4.2-9c-.1-.4 0-.6.4-.6h1.4c.3 0 .4.1.4.3l2.5 5.6 2.7-5.6c0-.3.3-.3.6-.3h1.1c.4 0 .5.2.4.6l-4.3 9-.4.2h-.1c-.2 0-.4 0-.4-.2zm6.4-4.8c0-2.7 2-5 4.8-5a4.3 4.3 0 014.4 5c0 .3-.3.5-.5.5h-6.5c0 1.3 1.2 2.5 2.8 2.5a4 4 0 002.1-.7c.3-.1.5-.2.6 0l.7 1c.2.1.3.3 0 .5-.7.6-2 1.2-3.6 1.2-2.9 0-4.8-2.2-4.8-5zm2.3-1h4.7c0-1.2-1-2.2-2.2-2.2-1.3 0-2.3 1-2.5 2.1zm9.2 5.3V161c0-.3.2-.5.5-.5h.7l.4.3.2.9c.2-.3 1.1-1.4 2.8-1.4 1 0 2 .2 1.8.8l-.6 1.2c-.1.3-.3.3-.6.2l-.8-.1c-1.4 0-2 1-2.1 1.1v6.1c0 .5-.3.5-.7.5h-1.1a.5.5 0 01-.5-.5zm7.6-.2c-.1-.1-.2-.4-.1-.5l.5-1c.1-.2.4-.2.6-.1 0 0 1 .6 2.2.6.8 0 1.2-.3 1.2-.8 0-.6-.5-1-1.8-1.6-1.5-.6-2.8-1.5-2.8-3.1 0-1.2 1-2.6 3.3-2.6 1.4 0 2.4.4 2.9.7.2.1.3.5.1.7l-.4.8c-.1.2-.4.3-.6.2 0 0-1-.5-2-.5-.8 0-1 .4-1 .7 0 .6.5 1 1.5 1.3 1.7.8 3.2 1.5 3.2 3.3 0 1.5-1.4 2.8-3.6 2.8a5 5 0 01-3.2-1zm10.2-12.8c-.8 0-1.4-.6-1.4-1.4 0-.8.6-1.4 1.4-1.4a1.4 1.4 0 110 2.8zm-1.1 13V161c0-.3.2-.5.4-.5h1.4c.2 0 .5.2.5.5v8.6c0 .3-.3.5-.5.5h-1.4a.5.5 0 01-.4-.5zm4.7-4.3a5 5 0 014.8-5 5 5 0 014.8 5 5 5 0 01-4.8 5 5 5 0 01-4.8-5zm2 0c0 1.6 1.3 3 2.8 3 1.5 0 2.7-1.4 2.7-3s-1.2-3-2.7-3c-1.5 0-2.7 1.4-2.7 3zm10 4.3V161c0-.3.3-.5.5-.5h.7c.2 0 .3.1.4.3l.3.8a5 5 0 013.3-1.3c3 0 4 2 4 4.5v4.8c0 .3-.2.5-.4.5h-1.4a.5.5 0 01-.4-.5v-4.9c0-1.5-.8-2.4-2-2.4-1.5 0-2.6 1.2-2.7 1.5v5.8c0 .4-.1.5-.5.5h-1.3a.5.5 0 01-.5-.5zm11.8-.2c-.1-.1-.2-.4-.1-.5l.5-1c0-.2.3-.2.6-.1 0 0 1 .6 2.2.6.7 0 1.2-.3 1.2-.8 0-.6-.6-1-1.9-1.6-1.5-.6-2.7-1.5-2.7-3.1 0-1.2 1-2.6 3.3-2.6 1.3 0 2.3.4 2.8.7.2.1.3.5.2.7l-.4.8c-.1.2-.5.3-.7.2 0 0-1-.5-2-.5-.7 0-1 .4-1 .7 0 .6.6 1 1.5 1.3 1.8.8 3.2 1.5 3.2 3.3 0 1.5-1.4 2.8-3.5 2.8a5 5 0 01-3.2-1z"/><path fill="#BEC8D3" fill-rule="nonzero" d="M147 212h2v225.2a7 7 0 007 7h283v2H156c-5 0-9-4-9-9V212z"/><path fill="#DCE1E7" fill-rule="nonzero" d="M160.8 391.5l2.4-1.7c15.2 22 29.9 29.2 44.4 22 7.8-3.8 13-12.5 21.5-33.3l2-4.7a142 142 0 0112.8-26.2c5.6-8.4 11.9-13.4 19.5-15a21 21 0 0119.2 5c4 3.4 6.5 7.2 11.6 16l.3.4a65.5 65.5 0 009.5 13.7c3.8 4 7.8 5.9 12.8 5.9 4.7 0 8-2.8 10.8-8.7a99.6 99.6 0 006.2-22.2l1-5.6 1.2-5.6c2.5-11.2 4.9-19.1 8.3-25.8 4.2-8.4 9.9-14.1 17.4-16.8 9-3.3 16.5-1.2 22.7 5.3 4.8 5 8.5 12.2 12.7 23.2l5.7 15.4c3.5 8.8 6.3 12.7 9.2 12.7 1.6 0 3.1-3.4 4.1-10.3 1-6 1.3-13 1.8-28l.9-20.7c.9-16.3 2.3-28.5 4.9-38.3 3.2-12.2 8-20 15-22.6l1.2 2.8c-11.2 4.2-16.2 23.4-18.1 58.2a965 965 0 00-.9 20.8c-.5 15.1-.9 22-1.8 28.2-1.2 8.5-3.2 12.9-7.1 12.9-4.7 0-8-4.6-12-14.6l-5.7-15.4a66.8 66.8 0 00-12.1-22.2 16.7 16.7 0 00-19.5-4.6 29 29 0 00-15.8 15.4c-3.2 6.4-5.5 14-8 25l-1 5.6-1.2 5.5c-2.4 11.8-4 17.8-6.4 23-3.2 6.8-7.5 10.4-13.5 10.4-5.8 0-10.7-2.3-15-6.8a67.6 67.6 0 01-9.9-14.3l-.2-.4c-5-8.5-7.5-12.1-11.1-15.3a18 18 0 00-16.6-4.2c-6.8 1.4-12.4 6-17.6 13.7-4.1 6.1-7.3 13-12.6 25.6l-1.9 4.7a160.8 160.8 0 01-9.9 21.1c-4 6.9-8.2 11.4-13.1 13.9-16 7.9-32.2 0-48.1-23z"/><path fill="#B8C3CF" fill-rule="nonzero" d="M672.2 55.2l1.3 1.6-6.6 5.4-6.5-5.4 1.2-1.6 5.3 4.4z"/></g></svg>