<svg xmlns="http://www.w3.org/2000/svg" xmlns:xlink="http://www.w3.org/1999/xlink" width="688" height="516"><defs><linearGradient id="d" x1="10.9%" x2="90.9%" y1="39.6%" y2="41.6%"><stop offset="0%" stop-color="#0934C4"/><stop offset="100%" stop-color="#2195B7"/></linearGradient><linearGradient id="e" x1="2%" x2="106.3%" y1="113.1%" y2="-7.9%"><stop offset="0%" stop-color="#2FDFBF"/><stop offset="0%" stop-color="#2FDFBF"/><stop offset="100%" stop-color="#2F74FF"/></linearGradient><path id="b" d="M16 0h640a16 16 0 0116 16v484H0V16A16 16 0 0116 0z"/><path id="f" d="M26.2 11.3c.2.2.4.3.7.3h.2a3.9 3.9 0 010 7.8c-.4 0-.7.2-.9.5-.1.3 0 .7.2 1a3.9 3.9 0 11-5.4 5.5v-.1a.8.8 0 00-1-.2c-.3.2-.5.5-.5.8v.2a3.9 3.9 0 01-7.8 0c0-.4-.2-.7-.6-.9a.8.8 0 00-1 .2A3.9 3.9 0 114.6 21h.1c.2-.3.3-.7.2-1a.8.8 0 00-.8-.5h-.2a3.9 3.9 0 010-7.8c.4 0 .7-.2.9-.6.1-.3 0-.7-.2-1A3.9 3.9 0 1110 4.6v.1c.3.2.7.3 1 .2l.3-.1c.2-.2.3-.4.3-.7v-.2a3.9 3.9 0 017.8 0c0 .4.2.7.5.9.3.1.7 0 1-.2a3.9 3.9 0 115.5 5.4h-.1c-.2.3-.3.7-.2 1l.1.3zm-14.4-4c-1.2.5-2.6.2-3.5-.8h-.1a1.3 1.3 0 10-1.8 1.8c1 1 1.3 2.6.8 3.8A3.4 3.4 0 014 14.3h-.1a1.3 1.3 0 100 2.6H4c1.4 0 2.6.8 3.1 2 .6 1.3.3 2.8-.7 3.8v.1a1.3 1.3 0 101.8 1.8c1-1 2.6-1.3 3.8-.8 1.3.5 2.2 1.8 2.2 3.2v.1a1.3 1.3 0 102.6 0V27c0-1.4.8-2.6 2-3.1 1.3-.6 2.8-.3 3.8.7h.1a1.3 1.3 0 101.8-1.8c-1-1-1.3-2.6-.7-3.8.5-1.3 1.7-2.1 3.1-2.1h.1a1.3 1.3 0 000-2.6c-1.4 0-2.6-.8-3.1-2l-.1-.4c-.5-1.2-.2-2.6.8-3.5v-.1a1.3 1.3 0 10-1.8-1.8c-1 1-2.6 1.3-3.8.7-1.3-.5-2.1-1.7-2.1-3.1V4a1.3 1.3 0 00-2.6 0c0 1.4-.8 2.6-2 3.1l-.4.1zm3.7 13.4a5.2 5.2 0 110-10.4 5.2 5.2 0 010 10.4zm0-2.6a2.6 2.6 0 100-5.2 2.6 2.6 0 000 5.2z"/><filter id="a" width="106%" height="108%" x="-3%" y="-4%" filterUnits="objectBoundingBox"><feOffset dy="2" in="SourceAlpha" result="shadowOffsetOuter1"/><feGaussianBlur in="shadowOffsetOuter1" result="shadowBlurOuter1" stdDeviation="4"/><feColorMatrix in="shadowBlurOuter1" result="shadowMatrixOuter1" values="0 0 0 0 0 0 0 0 0 0 0 0 0 0 0 0 0 0 0.1 0"/><feMerge><feMergeNode in="shadowMatrixOuter1"/><feMergeNode in="SourceGraphic"/></feMerge></filter></defs><g fill="none" fill-rule="evenodd"><g filter="url(#a)" transform="translate(8 6)"><mask id="c" fill="#fff"><use xlink:href="#b"/></mask><use fill="#E3EBF6" fill-rule="nonzero" opacity=".5" xlink:href="#b"/><rect width="36" height="33.2" x="27" y="91" fill="#D3D7DD" fill-rule="nonzero" mask="url(#c)" opacity=".5" rx="4"/><rect width="36" height="33.2" x="27" y="156.5" fill="#FFF" fill-rule="nonzero" mask="url(#c)" rx="4"/><rect width="36" height="33.2" x="26.5" y="218" fill="#D3D7DD" fill-rule="nonzero" mask="url(#c)" opacity=".5" rx="4"/><rect width="36" height="33.2" x="26.5" y="283" fill="#D3D7DD" fill-rule="nonzero" mask="url(#c)" opacity=".5" rx="4"/><rect width="36" height="33.2" x="26.5" y="347" fill="#D3D7DD" fill-rule="nonzero" mask="url(#c)" opacity=".5" rx="4"/><rect width="36" height="33.2" x="26.5" y="411" fill="#D3D7DD" fill-rule="nonzero" mask="url(#c)" opacity=".5" rx="4"/><rect width="36" height="33.2" x="26.5" y="474" fill="#D3D7DD" fill-rule="nonzero" mask="url(#c)" opacity=".5" rx="4"/><path fill="#FFF" fill-rule="nonzero" mask="url(#c)" d="M89 0h683v515H89z"/><path fill="url(#d)" fill-rule="nonzero" mask="url(#c)" d="M0 0h694v56H0z"/></g><path fill="#41465A" d="M202.3 128.5v-16.1c0-.2.2-.4.5-.4h.6l10.4 12v-11.3c0-.3.2-.5.5-.5h1.5c.3 0 .5.2.5.5v16.1c0 .2-.2.4-.5.4h-.6L204.8 117v11.6c0 .3-.2.5-.5.5h-1.5a.5.5 0 01-.5-.5zm17.2-4.3c0-2.7 1.9-5 4.8-5a4.3 4.3 0 014.3 5c0 .3-.2.5-.4.5h-6.5c0 1.3 1.2 2.5 2.7 2.5a4 4 0 002.2-.7c.3-.1.4-.2.6 0l.7 1c.2.1.2.3 0 .5-.8.6-2 1.2-3.6 1.2-3 0-4.8-2.2-4.8-5zm2.3-1h4.6c0-1.2-1-2.2-2.2-2.2-1.3 0-2.3 1-2.4 2.1zm11.1 5.8l-2.8-9c-.2-.4 0-.6.3-.6h1.3c.2 0 .4.1.4.3l1.6 5.3 2.6-5.6.4-.2h.2c.2 0 .3 0 .4.2l2.5 5.6 1.6-5.3c.2-.3.5-.3.8-.3h1c.3 0 .4.2.3.6l-2.8 9c0 .1-.2.2-.5.2-.2 0-.4 0-.5-.2l-3-6.4-2.9 6.4-.3.2h-.2c-.2 0-.3 0-.4-.2zm17 0c-.4 0-.6-.3-.4-.6l7.4-16.2.4-.2h.2c.1 0 .3 0 .4.2l7.3 16.2c.2.3 0 .6-.4.6h-1.5a.6.6 0 01-.5-.4l-1.5-3.2h-7.9l-1.4 3.2c-.1.2-.3.4-.6.4H250zm4.5-5.7h6l-3-6.6h-.1l-3 6.6zm13.2 5.2v-7.1h-1.1a.5.5 0 01-.5-.5v-1c0-.3.2-.5.5-.5h1.1V117c0-3 1.9-4.7 4.7-4.8 1.9 0 3 .8 3.2 1a4 4 0 013.2-1.2c1.6 0 3.2.7 3.7 1 .2.2.2.4.1.6l-.6 1.2c-.2.2-.4.2-.6 0-.2 0-1.5-.7-2.5-.7s-2 .7-2 2.3v3h6.4c.2 0 .5.2.5.5v8.6c0 .3-.3.5-.5.5h-1.4a.5.5 0 01-.4-.5v-7.1h-4.6v7.1c0 .3-.2.5-.5.5H275a.5.5 0 01-.4-.5v-7.1H270v7.1c0 .3-.2.5-.4.5H268a.5.5 0 01-.5-.5zm2.3-9.1h4.6v-4.2c-.2-.4-1.1-1-2.1-1-1.3 0-2.5.9-2.5 2.8v2.4zm16.9 9.1v-15.8c0-.3.2-.5.4-.5h1.4c.2 0 .5.2.5.5v15.8c0 .3-.3.5-.5.5h-1.4a.5.5 0 01-.4-.5zm6.5-13c-.8 0-1.4-.6-1.4-1.4 0-.8.6-1.4 1.4-1.4a1.4 1.4 0 110 2.8zm-1.1 13V120c0-.3.2-.5.4-.5h1.4c.2 0 .5.2.5.5v8.6c0 .3-.3.5-.5.5h-1.4a.5.5 0 01-.4-.5zm4.7-2.5c0-1.7 1.4-3 3.8-3l2 .2c0-1.5-.3-2.1-1.6-2.1-1 0-2.1.3-2.7.4-.2.1-.4 0-.5-.3l-.2-1c0-.2.1-.4.3-.5.2 0 1.6-.5 3.4-.5 3 0 3.3 1.8 3.3 4.2v5.1c0 .3-.2.5-.4.5h-.7c-.2 0-.3-.1-.4-.3l-.3-.7c-.5.5-1.4 1.2-3 1.2-1.7 0-3-1.2-3-3.2zm2 0c0 .9.7 1.5 1.5 1.5 1 0 2-.7 2.2-1.2v-1.5c-.1-.1-.8-.4-1.7-.4-1.1 0-2 .6-2 1.6zm9.5.4v-5h-1a.5.5 0 01-.5-.5v-1c0-.3.2-.5.5-.5h1v-2.7c0-.2.2-.4.4-.4h1.4c.2 0 .4.2.4.4v2.7h2.5c.2 0 .4.2.4.5v1c0 .3-.2.5-.4.5h-2.5v4.7c0 .9.3 1 .8 1a4 4 0 001.4-.4c.4-.2.5 0 .6.2l.4 1c.2.3 0 .5-.2.6-.2.2-1.6.7-2.8.7-1.9 0-2.4-1.1-2.4-2.8zm7-2.2c0-2.7 1.9-5 4.7-5a4.3 4.3 0 014.4 5c0 .3-.2.5-.4.5h-6.5c0 1.3 1.2 2.5 2.7 2.5a4 4 0 002.1-.7c.3-.1.5-.2.7 0l.7 1c.1.1.2.3 0 .5-.8.6-2 1.2-3.6 1.2-3 0-4.9-2.2-4.9-5zm2.3-1h4.6c0-1.2-1-2.2-2.2-2.2-1.3 0-2.3 1-2.4 2.1zm15.2 5.3v-7.1h-1.2a.5.5 0 01-.4-.5v-1c0-.3.2-.5.4-.5h1.2v-3c0-3 2-4.4 4.3-4.4 2 0 3.3 1.3 3.3 1.3l.2-.7c.1-.2.2-.4.5-.4h.6c.3 0 .5.2.5.5v15.8c0 .3-.2.5-.5.5h-1.4a.5.5 0 01-.4-.5v-13c0-.1-1-1.4-2.6-1.4-1 0-2.2.7-2.2 2.3v3h2.4c.3 0 .5.2.5.5v1c0 .3-.2.5-.5.5h-2.4v7.1c0 .3-.2.5-.4.5h-1.5c-.2 0-.4-.2-.4-.5zm11.8-4.3a5 5 0 014.8-5 5 5 0 014.9 5 5 5 0 01-4.9 5 5 5 0 01-4.8-5zm2.1 0c0 1.6 1.2 3 2.7 3 1.5 0 2.7-1.4 2.7-3s-1.2-3-2.7-3c-1.5 0-2.7 1.4-2.7 3zm12 4.8l-3-9c0-.4 0-.6.4-.6h1.3c.2 0 .4.1.4.3l1.6 5.3 2.6-5.6.4-.2h.2c.2 0 .3 0 .4.2l2.5 5.6 1.6-5.3c.2-.3.5-.3.8-.3h1c.2 0 .4.2.3.6l-2.8 9-.5.2c-.3 0-.4 0-.5-.2l-3-6.4-2.9 6.4-.4.2c-.3 0-.4 0-.5-.2z"/><path fill="#B8C3CF" d="M229.3 228.5v-16.1c0-.2.2-.4.5-.4h.6l10.4 12v-11.3c0-.3.2-.5.5-.5h1.5c.3 0 .5.2.5.5v16.1c0 .2-.2.4-.5.4h-.6L231.8 217v11.6c0 .3-.2.5-.5.5h-1.5a.5.5 0 01-.5-.5zm17.2-4.3c0-2.7 1.9-5 4.8-5a4.3 4.3 0 014.3 5c0 .3-.2.5-.4.5h-6.5c0 1.3 1.2 2.5 2.7 2.5a4 4 0 002.2-.7c.3-.1.4-.2.6 0l.7 1c.2.1.2.3 0 .5-.8.6-2 1.2-3.6 1.2-3 0-4.8-2.2-4.8-5zm2.3-1h4.6c0-1.2-1-2.2-2.2-2.2-1.3 0-2.3 1-2.4 2.1zm11.1 5.8l-2.8-9c-.2-.4 0-.6.3-.6h1.3c.2 0 .4.1.4.3l1.6 5.3 2.6-5.6.4-.2h.2c.2 0 .3 0 .4.2l2.5 5.6 1.6-5.3c.2-.3.5-.3.8-.3h1c.3 0 .4.2.3.6l-2.8 9c0 .1-.2.2-.5.2-.2 0-.4 0-.5-.2l-3-6.4-2.9 6.4-.3.2h-.2c-.2 0-.3 0-.4-.2zm17 0c-.4 0-.6-.3-.4-.6l7.4-16.2.4-.2h.2c.1 0 .3 0 .4.2l7.3 16.2c.2.3 0 .6-.4.6h-1.5a.6.6 0 01-.5-.4l-1.5-3.2h-7.9l-1.4 3.2c-.1.2-.3.4-.6.4H277zm4.5-5.7h6l-3-6.6h-.1l-3 6.6zm13.2 5.2v-7.1h-1.1a.5.5 0 01-.5-.5v-1c0-.3.2-.5.5-.5h1.1V217c0-3 1.9-4.7 4.7-4.8 1.9 0 3 .8 3.2 1a4 4 0 013.2-1.2c1.6 0 3.2.7 3.7 1 .2.2.2.4.1.6l-.6 1.2c-.2.2-.4.2-.6 0-.2 0-1.5-.7-2.5-.7s-2 .7-2 2.3v3h6.4c.2 0 .5.2.5.5v8.6c0 .3-.3.5-.5.5h-1.4a.5.5 0 01-.4-.5v-7.1h-4.6v7.1c0 .3-.2.5-.5.5H302a.5.5 0 01-.4-.5v-7.1H297v7.1c0 .3-.2.5-.4.5H295a.5.5 0 01-.5-.5zm2.3-9.1h4.6v-4.2c-.2-.4-1.1-1-2.1-1-1.3 0-2.5.9-2.5 2.8v2.4zm16.9 9.1v-15.8c0-.3.2-.5.4-.5h1.4c.2 0 .5.2.5.5v15.8c0 .3-.3.5-.5.5h-1.4a.5.5 0 01-.4-.5zm6.5-13c-.8 0-1.4-.6-1.4-1.4 0-.8.6-1.4 1.4-1.4a1.4 1.4 0 110 2.8zm-1.1 13V220c0-.3.2-.5.4-.5h1.4c.2 0 .5.2.5.5v8.6c0 .3-.3.5-.5.5h-1.4a.5.5 0 01-.4-.5zm4.7-2.5c0-1.7 1.4-3 3.8-3l2 .2c0-1.5-.3-2.1-1.6-2.1-1 0-2.1.3-2.7.4-.2.1-.4 0-.5-.3l-.2-1c0-.2.1-.4.3-.5.2 0 1.6-.5 3.4-.5 3 0 3.3 1.8 3.3 4.2v5.1c0 .3-.2.5-.4.5h-.7c-.2 0-.3-.1-.4-.3l-.3-.7c-.5.5-1.4 1.2-3 1.2-1.7 0-3-1.2-3-3.2zm2 0c0 .9.7 1.5 1.5 1.5 1 0 2-.7 2.2-1.2v-1.5c-.1-.1-.8-.4-1.7-.4-1.1 0-2 .6-2 1.6zm9.5.4v-5h-1a.5.5 0 01-.5-.5v-1c0-.3.2-.5.5-.5h1v-2.7c0-.2.2-.4.4-.4h1.4c.2 0 .4.2.4.4v2.7h2.5c.2 0 .4.2.4.5v1c0 .3-.2.5-.4.5h-2.5v4.7c0 .9.3 1 .8 1a4 4 0 001.4-.4c.4-.2.5 0 .6.2l.4 1c.2.3 0 .5-.2.6-.2.2-1.6.7-2.8.7-1.9 0-2.4-1.1-2.4-2.8zm7-2.2c0-2.7 1.9-5 4.7-5a4.3 4.3 0 014.4 5c0 .3-.2.5-.4.5h-6.5c0 1.3 1.2 2.5 2.7 2.5a4 4 0 002.1-.7c.3-.1.5-.2.7 0l.7 1c.1.1.2.3 0 .5-.8.6-2 1.2-3.6 1.2-3 0-4.9-2.2-4.9-5zm2.3-1h4.6c0-1.2-1-2.2-2.2-2.2-1.3 0-2.3 1-2.4 2.1zm14.3 4.1c-.2-.1-.4-.3-.2-.7l.7-1c.2-.3.5-.4.8-.2.1.1 2 1.7 3.8 1.7 1.7 0 2.7-1 2.7-2.3 0-1.4-1.2-2.3-3.6-3.3-2.4-1-4.4-2.3-4.4-5.1 0-1.9 1.5-4.4 5.3-4.4 2.4 0 4.2 1.2 4.4 1.4.2.1.4.4.2.8l-.6.9c-.2.3-.5.5-.9.2-.1 0-1.8-1.2-3.2-1.2-2 0-2.7 1.3-2.7 2.2 0 1.4 1 2.2 3 3 2.8 1.2 5.2 2.5 5.2 5.4 0 2.5-2.2 4.5-5.4 4.5-2.9 0-4.7-1.5-5.1-1.9zm14.1-11.8c-.7 0-1.3-.6-1.3-1.4 0-.8.6-1.4 1.3-1.4a1.4 1.4 0 110 2.8zm-1 13V220c0-.3.1-.5.4-.5h1.4c.2 0 .4.2.4.5v8.6c0 .3-.2.5-.4.5h-1.4a.5.5 0 01-.5-.5zm4.4 0c0-2 1.7-2.8 1.7-2.8s-.8-.9-.8-2.3c0-2.3 1.7-4.2 4.2-4.2h4.2c.2 0 .4.2.4.4v.6c0 .2 0 .4-.2.4l-1.4.4s1 .8 1 2.6c0 2-1.5 3.9-4 3.9-1.2 0-2-.4-2.1-.4-.2 0-1 .4-1 1.2 0 .5.4 1 1.2 1h3.2c2.1 0 3.8 1 3.8 3.2 0 2-2 4-5.1 4-3.4 0-4.8-1.8-4.8-3.3 0-1.5 1.2-2.2 1.4-2.3-.5-.2-1.7-.9-1.7-2.5zm5.1-2.9c1.2 0 2-.9 2-2.2 0-1.3-.8-2.2-2-2.2s-2.1 1-2.1 2.2c0 1.3.9 2.2 2.1 2.2zm-2.5 7.2c0 1 1 1.7 2.5 1.7 1.4 0 2.7-.8 2.7-2 0-.3-.2-1.3-1.8-1.3h-2.1c-.2.1-1.3.5-1.3 1.6zm9.4-4.3V220c0-.3.2-.5.4-.5h.7c.2 0 .4.1.4.3l.3.8a5 5 0 013.4-1.3c2.9 0 4 2 4 4.5v4.8c0 .3-.3.5-.5.5h-1.4a.5.5 0 01-.4-.5v-4.9c0-1.5-.8-2.4-2-2.4-1.5 0-2.6 1.2-2.7 1.5v5.8c0 .4-.1.5-.5.5h-1.3a.5.5 0 01-.4-.5zm12-3.8v-4.8c0-.3.2-.5.5-.5h1.3c.3 0 .5.2.5.5v4.9c0 1.5.7 2.4 2 2.4 1.4 0 2.3-1.2 2.3-1.6v-5.7c0-.4.2-.5.6-.5h1.2c.3 0 .5.2.5.5v8.6c0 .3-.2.5-.5.5h-.7c-.2 0-.3-.2-.4-.4l-.2-.7c-.2.2-1.2 1.3-3.2 1.3-2.9 0-3.9-2-3.9-4.5zm14.3 3.9v7.1c0 .3-.2.5-.5.5H413a.5.5 0 01-.5-.5V220c0-.3.2-.5.5-.5h.7c.2 0 .3.1.4.3l.2.6c.2-.1 1.2-1.1 3-1.1 2.6 0 4.5 2.3 4.5 5 0 2.8-2 5-4.6 5-1.3 0-2.2-.5-2.4-.6zm0-2.1s.8.7 2 .7c1.6 0 2.8-1.3 2.8-3 0-1.6-1-3-2.6-3a2.5 2.5 0 00-2.2 1.4v3.9zM227.5 360c-.4 0-.6-.3-.4-.6l7.3-16.2.4-.2h.3c.1 0 .3 0 .4.2l7.3 16.2c.2.3 0 .6-.4.6H241a.6.6 0 01-.6-.4l-1.4-3.2h-8l-1.5 3.2c0 .2-.2.4-.5.4h-1.5zm4.4-5.7h6l-3-6.6-3 6.6zm11.9.9c0-2.8 2-5 4.7-5 1.2 0 2 .4 2.3.5v-7c0-.3.2-.5.4-.5h1.4c.3 0 .5.2.5.5v15.8c0 .3-.2.5-.5.5h-.7c-.2 0-.3-.2-.4-.4l-.2-.7s-1.2 1.3-3 1.3c-2.6 0-4.5-2.2-4.5-5zm2.2 0c0 1.6 1 3 2.5 3s2.2-1.2 2.3-1.5v-3.9s-.8-.6-2-.6c-1.7 0-2.8 1.4-2.8 3zm9.5 0c0-2.8 2-5 4.7-5 1.3 0 2.1.4 2.3.5v-7c0-.3.3-.5.5-.5h1.4c.2 0 .4.2.4.5v15.8c0 .3-.2.5-.4.5h-.7c-.2 0-.4-.2-.5-.4l-.2-.7s-1.1 1.3-3 1.3c-2.5 0-4.5-2.2-4.5-5zm2.2 0c0 1.6 1 3 2.6 3 1.5 0 2.1-1.2 2.3-1.5v-3.9s-.9-.6-2.1-.6c-1.6 0-2.8 1.4-2.8 3zm16.2 2.2v-5h-1a.5.5 0 01-.5-.5v-1c0-.3.2-.5.5-.5h1v-2.7c0-.2.2-.4.4-.4h1.4c.2 0 .4.2.4.4v2.7h2.5c.2 0 .4.2.4.5v1c0 .3-.2.5-.4.5H276v4.7c0 .9.3 1 .8 1a4 4 0 001.5-.4c.3-.2.4 0 .5.2l.4 1c.2.3 0 .5-.2.6-.2.2-1.6.7-2.8.7-1.9 0-2.4-1.1-2.4-2.8zm7-2.2a5 5 0 014.8-5 5 5 0 014.8 5 5 5 0 01-4.8 5 5 5 0 01-4.9-5zm2 0c0 1.6 1.3 3 2.8 3 1.5 0 2.7-1.4 2.7-3s-1.2-3-2.7-3c-1.5 0-2.7 1.4-2.7 3zm15.3 4.3v-15.8c0-.3.2-.5.5-.5h1.3c.3 0 .5.2.5.5v15.8c0 .3-.2.5-.5.5h-1.3a.5.5 0 01-.5-.5zm6.5-13c-.8 0-1.4-.6-1.4-1.4 0-.8.6-1.4 1.4-1.4a1.4 1.4 0 110 2.8zm-1 13V351c0-.3.1-.5.4-.5h1.3c.3 0 .5.2.5.5v8.6c0 .3-.2.5-.5.5h-1.3a.5.5 0 01-.5-.5zm4.9-.2c-.2-.1-.3-.4-.2-.5l.5-1c.1-.2.4-.2.6-.1 0 0 1 .6 2.3.6.7 0 1.1-.3 1.1-.8 0-.6-.5-1-1.8-1.6-1.5-.6-2.7-1.5-2.7-3.1 0-1.2 1-2.6 3.2-2.6 1.4 0 2.4.4 2.9.7.2.1.3.5.2.7l-.5.8c0 .2-.4.3-.6.2 0 0-1-.5-2-.5-.8 0-1 .4-1 .7 0 .6.6 1 1.5 1.3 1.8.8 3.2 1.5 3.2 3.3 0 1.5-1.4 2.8-3.6 2.8a5 5 0 01-3.1-1zm9.6-2v-5h-1a.5.5 0 01-.4-.4v-1c0-.3.2-.5.4-.5h1v-2.7c0-.2.2-.4.5-.4h1.3c.3 0 .5.2.5.4v2.7h2.4c.3 0 .5.2.5.5v1c0 .3-.2.5-.5.5h-2.4v4.7c0 .9.3 1 .7 1a4 4 0 001.5-.4c.3-.2.5 0 .6.2l.4 1c.1.3 0 .5-.2.6-.3.2-1.7.7-2.8.7-2 0-2.5-1.1-2.5-2.8zm9.1-4c-.8 0-1.5-.7-1.5-1.6 0-.8.7-1.5 1.5-1.5.9 0 1.6.7 1.6 1.5 0 .9-.7 1.6-1.6 1.6zm-1.5 5.4c0-.9.7-1.6 1.5-1.6.9 0 1.6.7 1.6 1.6 0 .8-.7 1.5-1.6 1.5-.8 0-1.5-.7-1.5-1.5zm11 .7l2.9-16c0-.3.2-.4.4-.4h.4c.2 0 .4 0 .4.2l5 12.3h.1l5-12.3.4-.2h.4c.2 0 .4.1.5.3l3 16.1c0 .4-.2.6-.5.6h-1.6a.5.5 0 01-.4-.3l-1.8-10.8-4.4 11c0 .2-.2.3-.4.3h-.4c-.2 0-.4 0-.5-.2l-4.3-11h-.1l-1.7 10.7c0 .1-.3.3-.5.3h-1.5c-.4 0-.5-.2-.5-.6zm24 .3l-4.1-8.7c-.2-.3 0-.6.4-.6h1.6l.4.3 3 6.3 2.9-6.3c0-.3.2-.3.5-.3h1.3c.4 0 .6.3.4.6l-7.3 16-.4.2H358c-.3 0-.5-.3-.4-.6l3.2-7zm12.9-2.7c0-1.7 1.4-3 3.8-3 1 0 1.9.2 1.9.2 0-1.5-.3-2.1-1.5-2.1-1 0-2.2.3-2.7.4-.3.1-.4 0-.5-.3l-.2-1c0-.2.1-.4.3-.5.2 0 1.6-.5 3.3-.5 3.1 0 3.4 1.8 3.4 4.2v5.1c0 .3-.2.5-.5.5h-.6c-.3 0-.4-.1-.4-.3l-.3-.7c-.5.5-1.5 1.2-3 1.2-1.7 0-3-1.2-3-3.2zm2 0c0 .9.6 1.5 1.5 1.5 1 0 1.9-.7 2.2-1.2v-1.5c-.2-.1-.8-.4-1.7-.4-1.2 0-2 .6-2 1.6zm9.6 2.5v-7.1H384a.5.5 0 01-.5-.5v-1c0-.3.2-.5.5-.5h1.2V348c0-3 1.8-4.7 4.7-4.8 1.8 0 2.9.8 3.2 1a4 4 0 013.2-1.2c1.6 0 3.1.7 3.6 1 .2.2.3.4.2.6l-.7 1.2c-.1.2-.3.2-.6 0-.2 0-1.4-.7-2.5-.7-1 0-2 .7-2 2.3v3h6.5c.2 0 .4.2.4.5v8.6c0 .3-.2.5-.4.5h-1.4a.5.5 0 01-.5-.5v-7.1h-4.6v7.1c0 .3-.2.5-.4.5h-1.4a.5.5 0 01-.5-.5v-7.1h-4.5v7.1c0 .3-.2.5-.5.5h-1.4a.5.5 0 01-.4-.5zm2.3-9.1h4.5v-3l.1-1.2c-.3-.4-1.2-1-2.2-1-1.3 0-2.4.9-2.4 2.8v2.4zm16.8 9.1v-15.8c0-.3.2-.5.5-.5h1.4c.2 0 .4.2.4.5v15.8c0 .3-.2.5-.4.5h-1.4a.5.5 0 01-.5-.5zm6.5-13c-.7 0-1.3-.6-1.3-1.4 0-.8.6-1.4 1.3-1.4a1.4 1.4 0 110 2.8zm-1 13V351c0-.3.1-.5.4-.5h1.4c.2 0 .4.2.4.5v8.6c0 .3-.2.5-.4.5h-1.4a.5.5 0 01-.5-.5zm4.6-2.5c0-1.7 1.4-3 3.9-3 1 0 1.9.2 1.9.2 0-1.5-.3-2.1-1.5-2.1-1.1 0-2.2.3-2.7.4-.3.1-.5 0-.5-.3l-.2-1c-.1-.2 0-.4.3-.5.2 0 1.5-.5 3.3-.5 3 0 3.4 1.8 3.4 4.2v5.1c0 .3-.3.5-.5.5h-.7c-.2 0-.3-.1-.4-.3l-.2-.7c-.5.5-1.5 1.2-3 1.2-1.8 0-3-1.2-3-3.2zm2.1 0c0 .9.6 1.5 1.5 1.5 1 0 1.9-.7 2.1-1.2v-1.5c-.1-.1-.8-.4-1.6-.4-1.2 0-2 .6-2 1.6zm9.4.4v-5h-1a.5.5 0 01-.5-.5v-1c0-.3.2-.5.5-.5h1v-2.7c0-.2.2-.4.5-.4h1.3c.3 0 .5.2.5.4v2.7h2.4c.3 0 .5.2.5.5v1c0 .3-.2.5-.5.5h-2.4v4.7c0 .9.3 1 .7 1a4 4 0 001.5-.4c.3-.2.5 0 .5.2l.5 1c.1.3 0 .5-.2.6-.3.2-1.7.7-2.8.7-2 0-2.5-1.1-2.5-2.8zm7-2.2c0-2.7 2-5 4.8-5a4.3 4.3 0 014.4 5c0 .3-.3.5-.5.5h-6.5c0 1.3 1.2 2.5 2.8 2.5a4 4 0 002.1-.7c.3-.1.5-.2.6 0l.7 1c.2.1.3.3 0 .5-.7.6-2 1.2-3.6 1.2-2.9 0-4.8-2.2-4.8-5zm2.3-1h4.7c-.1-1.2-1-2.2-2.2-2.2-1.3 0-2.3 1-2.5 2.1zm8.8 5c-.2 0-.3-.3-.2-.4l.5-1c.1-.2.4-.2.6-.1 0 0 1.1.6 2.3.6.7 0 1.1-.3 1.1-.8 0-.6-.5-1-1.8-1.6-1.5-.6-2.7-1.5-2.7-3.1 0-1.2 1-2.6 3.3-2.6 1.3 0 2.3.4 2.8.7.2.1.3.5.2.7l-.5.8c0 .2-.4.3-.6.2 0 0-1-.5-2-.5-.8 0-1 .4-1 .7 0 .6.6 1 1.5 1.3 1.8.8 3.2 1.5 3.2 3.3 0 1.5-1.4 2.8-3.6 2.8a5 5 0 01-3.1-1zM229.3 486.6v-15.8c0-.3.2-.5.5-.5h5.5c3 0 5.3 2.4 5.3 5.3 0 3-2.4 5.4-5.3 5.4h-3.5v5.6c0 .3-.2.5-.5.5h-1.5a.5.5 0 01-.5-.5zm2.5-8h3.3a3 3 0 003-3c0-1.7-1.3-2.9-3-2.9h-3.3v6zm10.3 3.7a5 5 0 014.8-5 5 5 0 014.9 5 5 5 0 01-4.9 5 5 5 0 01-4.8-5zm2.1 0c0 1.6 1.2 3 2.7 3 1.6 0 2.8-1.4 2.8-3s-1.2-3-2.8-3c-1.5 0-2.7 1.4-2.7 3zm9.6 4c-.2 0-.3-.3-.2-.4l.5-1c.1-.2.4-.2.6-.1 0 0 1 .6 2.3.6.7 0 1.1-.3 1.1-.8 0-.6-.5-1-1.8-1.6-1.5-.6-2.8-1.5-2.8-3.1 0-1.2 1-2.6 3.3-2.6 1.4 0 2.4.4 2.9.7.2.1.3.5.2.7l-.5.8c-.1.2-.4.3-.6.2 0 0-1-.5-2-.5-.8 0-1 .4-1 .7 0 .6.6 1 1.5 1.3 1.7.8 3.2 1.5 3.2 3.3 0 1.5-1.4 2.8-3.6 2.8a5 5 0 01-3.1-1zm9.6-1.8v-5h-1a.5.5 0 01-.5-.5v-1c0-.3.2-.5.5-.5h1v-2.7c0-.2.2-.4.5-.4h1.3c.3 0 .5.2.5.4v2.7h2.4c.3 0 .5.2.5.5v1c0 .3-.2.5-.5.5h-2.4v4.7c0 .9.3 1 .7 1a4 4 0 001.5-.4c.3-.2.5 0 .5.2l.5 1c.1.3 0 .5-.2.6-.3.2-1.7.7-2.8.7-2 0-2.5-1.1-2.5-2.8zm13.6 0v-5h-1a.5.5 0 01-.5-.5v-1c0-.3.2-.5.5-.5h1v-2.7c0-.2.2-.4.4-.4h1.4c.3 0 .4.2.4.4v2.7h2.5c.3 0 .5.2.5.5v1c0 .3-.2.5-.5.5h-2.5v4.7c0 .9.4 1 .8 1a4 4 0 001.5-.4c.3-.2.4 0 .5.2l.5 1c0 .3 0 .5-.3.6-.2.2-1.6.7-2.8.7-1.9 0-2.4-1.1-2.4-2.8zm7-2.2a5 5 0 014.8-5 5 5 0 014.8 5 5 5 0 01-4.8 5 5 5 0 01-4.8-5zm2 0c0 1.6 1.3 3 2.8 3 1.5 0 2.7-1.4 2.7-3s-1.2-3-2.7-3c-1.5 0-2.7 1.4-2.7 3zm14.6 0c0-2.8 2.4-5 5-5 1.5 0 2.6.6 3.5 1.7.2.2.1.5 0 .6l-.9.8c-.2.2-.4 0-.6-.1-.4-.5-1.1-1-2-1-1.5 0-2.7 1.4-2.7 3 0 1.7 1.2 3 2.7 3 1.3 0 1.8-.6 2.3-1.1.2-.2.4-.2.6 0l.7.5c.2.1.3.4.1.6-.7 1.2-2 2-3.7 2a5 5 0 01-5-5zm11.1 4.3v-15.8c0-.3.3-.5.5-.5h1.4c.2 0 .4.2.4.5v7.5c.3-.2 1.4-1 3-1 2.6 0 4 1.9 4 4.5v4.8c0 .3-.3.5-.5.5H319a.5.5 0 01-.4-.5v-4.8c0-1.6-.8-2.5-2-2.5-1.5 0-2.5 1.2-2.7 1.6v5.7c0 .3-.1.5-.4.5h-1.4a.5.5 0 01-.5-.5zm11.5-2.5c0-1.7 1.4-3 3.9-3 1 0 1.9.2 1.9.2 0-1.5-.3-2.1-1.5-2.1-1.1 0-2.2.3-2.7.4-.3.1-.5 0-.5-.3l-.2-1c0-.2 0-.4.3-.5.2 0 1.5-.5 3.3-.5 3 0 3.4 1.8 3.4 4.2v5.1c0 .3-.3.5-.5.5h-.7c-.2 0-.3-.1-.4-.3l-.2-.7c-.5.5-1.5 1.2-3 1.2-1.8 0-3-1.2-3-3.2zm2.1 0c0 .9.6 1.5 1.5 1.5 1 0 1.9-.7 2.2-1.2v-1.5c-.2-.1-.9-.4-1.7-.4-1.2 0-2 .6-2 1.6zm8.8 2.5V478c0-.3.2-.5.4-.5h.7c.2 0 .4.1.4.3l.3.8a5 5 0 013.4-1.3c2.9 0 4 2 4 4.5v4.8c0 .3-.2.5-.5.5h-1.3a.5.5 0 01-.5-.5v-4.9c0-1.5-.7-2.4-2-2.4-1.5 0-2.5 1.2-2.7 1.5v5.8c0 .4-.1.5-.5.5h-1.3a.5.5 0 01-.4-.5zm12.2 0V478c0-.3.2-.5.4-.5h.7c.2 0 .4.1.4.3l.3.8a5 5 0 013.4-1.3c2.9 0 4 2 4 4.5v4.8c0 .3-.2.5-.5.5h-1.4a.5.5 0 01-.4-.5v-4.9c0-1.5-.8-2.4-2-2.4-1.5 0-2.5 1.2-2.7 1.5v5.8c0 .4-.1.5-.5.5h-1.3a.5.5 0 01-.4-.5zm11.5-4.3c0-2.7 1.9-5 4.8-5a4.3 4.3 0 014.3 5c0 .3-.2.5-.4.5H360c0 1.3 1.2 2.5 2.7 2.5a4 4 0 002.2-.7c.3-.1.4-.2.6 0l.7 1c.2.1.2.3 0 .5-.7.6-2 1.2-3.6 1.2-2.9 0-4.8-2.2-4.8-5zm2.3-1h4.7c-.1-1.2-1-2.2-2.2-2.2-1.3 0-2.4 1-2.5 2.1zm9.2 5.3v-15.8c0-.3.2-.5.5-.5h1.3c.3 0 .5.2.5.5v15.8c0 .3-.2.5-.5.5h-1.3a.5.5 0 01-.5-.5zm6.8-6.2c-.9 0-1.5-.7-1.5-1.6 0-.8.6-1.5 1.5-1.5s1.5.7 1.5 1.5c0 .9-.6 1.6-1.5 1.6zm-1.5 5.4c0-.9.6-1.6 1.5-1.6s1.5.7 1.5 1.6c0 .8-.6 1.5-1.5 1.5s-1.5-.7-1.5-1.5zm10.2 1.3c-.3 0-.5-.3-.4-.6l7.4-16.2.4-.2h.2c.2 0 .4 0 .4.2l7.4 16.2c.1.3 0 .6-.4.6h-1.6a.6.6 0 01-.5-.4l-1.5-3.2h-7.8l-1.5 3.2c0 .2-.3.4-.6.4h-1.5zm4.5-5.7h6l-3-6.6-3 6.6zm13.2 5.2v-7.1h-1.1a.5.5 0 01-.5-.5v-1c0-.3.2-.5.5-.5h1.1V475c0-3 2-4.7 4.7-4.8 1.9 0 3 .8 3.3 1a4 4 0 013.1-1.2c1.7 0 3.2.7 3.7 1 .2.2.3.4.1.6l-.6 1.2c-.1.2-.3.2-.6 0-.2 0-1.4-.7-2.5-.7-1 0-2 .7-2 2.3v3h6.4c.3 0 .5.2.5.5v8.6c0 .3-.2.5-.5.5h-1.3a.5.5 0 01-.5-.5v-7.1h-4.6v7.1c0 .3-.2.5-.4.5h-1.4a.5.5 0 01-.5-.5v-7.1h-4.5v7.1c0 .3-.3.5-.5.5H403a.5.5 0 01-.5-.5zm2.4-9.1h4.5v-3l.1-1.2c-.3-.4-1.2-1-2.2-1-1.3 0-2.4.9-2.4 2.8v2.4zm16.8 9.1v-15.8c0-.3.2-.5.5-.5h1.3c.3 0 .5.2.5.5v15.8c0 .3-.2.5-.5.5h-1.3a.5.5 0 01-.5-.5zm6.5-13c-.8 0-1.4-.6-1.4-1.4 0-.8.6-1.4 1.4-1.4a1.4 1.4 0 110 2.8zm-1 13V478c0-.3.1-.5.4-.5h1.3c.3 0 .5.2.5.5v8.6c0 .3-.2.5-.5.5h-1.3a.5.5 0 01-.5-.5zm4.6-2.5c0-1.7 1.4-3 3.9-3 1 0 1.9.2 1.9.2 0-1.5-.3-2.1-1.5-2.1-1.1 0-2.2.3-2.7.4-.3.1-.5 0-.6-.3l-.1-1c-.1-.2 0-.4.3-.5.1 0 1.5-.5 3.3-.5 3 0 3.3 1.8 3.3 4.2v5.1c0 .3-.2.5-.4.5h-.7c-.2 0-.3-.1-.4-.3l-.2-.7c-.6.5-1.5 1.2-3 1.2-1.8 0-3-1.2-3-3.2zm2.1 0c0 .9.6 1.5 1.5 1.5 1 0 1.8-.7 2.1-1.2v-1.5c-.1-.1-.8-.4-1.7-.4-1.1 0-1.9.6-1.9 1.6zm9.4.4v-5h-1a.5.5 0 01-.5-.5v-1c0-.3.2-.5.5-.5h1v-2.7c0-.2.2-.4.4-.4h1.4c.3 0 .4.2.4.4v2.7h2.5c.3 0 .4.2.4.5v1c0 .3-.1.5-.4.5h-2.5v4.7c0 .9.4 1 .8 1a4 4 0 001.5-.4c.3-.2.4 0 .5.2l.5 1c0 .3 0 .5-.3.6-.2.2-1.6.7-2.8.7-1.9 0-2.4-1.1-2.4-2.8zm7-2.2c0-2.7 1.9-5 4.8-5a4.3 4.3 0 014.3 5c0 .3-.2.5-.4.5h-6.5c0 1.3 1.2 2.5 2.7 2.5a4 4 0 002.2-.7c.3-.1.4-.2.6 0l.7 1c.2.1.2.3 0 .5-.7.6-2 1.2-3.6 1.2-3 0-4.8-2.2-4.8-5zm2.3-1h4.7c-.1-1.2-1-2.2-2.3-2.2-1.2 0-2.3 1-2.4 2.1zm8.8 5c-.2 0-.3-.3-.2-.4l.5-1c.1-.2.4-.2.6-.1 0 0 1 .6 2.3.6.7 0 1.1-.3 1.1-.8 0-.6-.5-1-1.8-1.6-1.5-.6-2.8-1.5-2.8-3.1 0-1.2 1-2.6 3.3-2.6 1.4 0 2.4.4 2.9.7.2.1.3.5.2.7l-.5.8c-.1.2-.4.3-.6.2 0 0-1-.5-2-.5-.8 0-1 .4-1 .7 0 .6.6 1 1.5 1.3 1.7.8 3.2 1.5 3.2 3.3 0 1.5-1.4 2.8-3.6 2.8a5 5 0 01-3.1-1z"/><path fill="#DCE1E7" fill-rule="nonzero" d="M180 242a28 28 0 100-56 28 28 0 000 56zm0 2a30 30 0 110-60 30 30 0 010 60z"/><path fill="url(#e)" fill-rule="nonzero" d="M20 6.4a6.4 6.4 0 00-10-5.3 6.3 6.3 0 00-5-1A6.4 6.4 0 00.1 5a6.3 6.3 0 00.4 4l3.3 8A4.7 4.7 0 008 20h11l-2-5.3 2.4-5.8c.3-.8.5-1.7.5-2.5zM2.1 6.2l.1-.8A4.2 4.2 0 016.4 2c.7 0 1.4.2 2 .5L7.6 4l-3.4 8.4L2.5 8A6 6 0 012 6.2zm15.4 1.9l-2.7 6.6 1.2 3.2H8a2 2 0 01-.7-.2 2.6 2.6 0 01-1.6-3.4l3.9-9.5a4.3 4.3 0 018.3 1.6c0 .6-.1 1.1-.4 1.7z" transform="translate(170 204)"/><path fill="#DCE1E7" fill-rule="nonzero" d="M180 370a28 28 0 100-56 28 28 0 000 56zm0 2a30 30 0 110-60 30 30 0 010 60zm0 126a28 28 0 100-56 28 28 0 000 56zm0 2a30 30 0 110-60 30 30 0 010 60z"/><path fill="#000" d="M230.7 199h-1.2v-6.8h-2.3v-1h5.9v1h-2.4v6.8zm6.4-6h.7l-.2 1.2h-.5c-.5 0-1 0-1.2.4-.4.3-.5.8-.5 1.3v3.1H234v-6h1l.2 1.1.8-.8c.3-.2.7-.3 1-.3zm3 6H239v-6h1.2v6zm-1.3-7.5c0-.2 0-.4.2-.5.1-.2.3-.2.5-.2s.4 0 .5.2c.2 0 .2.3.2.5s0 .4-.2.5l-.5.2c-.2 0-.4 0-.5-.2a.7.7 0 01-.2-.5zm8.2 1.6v.7l-1 .1.2.5v.6c0 .6-.2 1-.6 1.4-.4.4-1 .6-1.7.6h-.5c-.3 0-.4.3-.4.5l.1.3.7.1h1c.7 0 1.2.1 1.6.4.3.3.5.7.5 1.2 0 .7-.3 1.2-.8 1.6-.6.4-1.4.5-2.4.5-.9 0-1.5-.1-1.9-.4-.4-.3-.6-.7-.6-1.2 0-.4 0-.7.3-1l1-.5a1 1 0 01-.4-.3.9.9 0 01-.2-.5c0-.2 0-.4.2-.6l.5-.4-.7-.7c-.2-.3-.3-.6-.3-1 0-.7.2-1.2.6-1.5.4-.4 1-.5 1.8-.5a4.2 4.2 0 01.9 0h2zm-4.7 6.8c0 .3.1.5.4.7l1 .2c.7 0 1.2-.1 1.5-.3.4-.2.5-.5.5-.8 0-.3 0-.4-.2-.6l-1-.1h-1c-.4 0-.7 0-.9.2-.2.2-.3.4-.3.7zm.5-5c0 .5.1.7.3 1l.8.2c.8 0 1.1-.3 1.1-1.1 0-.4 0-.7-.2-1l-.9-.2c-.3 0-.6 0-.8.3-.2.2-.3.5-.3.9zm10.3-1.8v.7l-1 .1.2.5v.6c0 .6-.1 1-.6 1.4-.4.4-1 .6-1.7.6h-.5c-.3 0-.4.3-.4.5 0 .1 0 .2.2.3l.7.1h1c.7 0 1.2.1 1.5.4.3.3.5.7.5 1.2 0 .7-.3 1.2-.8 1.6-.6.4-1.4.5-2.4.5-.8 0-1.5-.1-1.9-.4-.4-.3-.6-.7-.6-1.2 0-.4 0-.7.3-1l1-.5a1 1 0 01-.4-.3.9.9 0 01-.2-.5c0-.2 0-.4.2-.6l.6-.4-.8-.7c-.2-.3-.3-.6-.3-1 0-.7.2-1.2.6-1.5.4-.4 1-.5 1.8-.5a4.2 4.2 0 011 0h2zm-4.7 6.8c0 .3.1.5.4.7l1 .2c.7 0 1.2-.1 1.5-.3.4-.2.5-.5.5-.8 0-.3 0-.4-.2-.6l-1-.1h-1c-.4 0-.7 0-.9.2-.2.2-.3.4-.3.7zm.5-5c0 .5.1.7.3 1l.9.2c.7 0 1-.3 1-1.1 0-.4 0-.7-.2-1l-.8-.2c-.4 0-.7 0-.9.3-.2.2-.3.5-.3.9zm7.9 4.2c-1 0-1.7-.3-2.2-.8a3 3 0 01-.8-2.2c0-1 .3-1.8.7-2.3.5-.6 1.2-.8 2-.8s1.4.2 1.9.7c.4.4.7 1.1.7 2v.6h-4c0 .6.2 1 .5 1.3.3.4.7.5 1.2.5a4.6 4.6 0 002-.4v1c-.3.2-.6.3-1 .3l-1 .1zm-.3-5.2c-.4 0-.7.1-1 .4-.2.2-.3.6-.4 1.1h2.7c0-.5 0-.9-.3-1.1-.2-.3-.6-.4-1-.4zm7-1l.7.1-.2 1.2h-.5c-.5 0-1 0-1.3.4-.3.3-.4.8-.4 1.3v3.1h-1.3v-6h1l.2 1.1.8-.8c.3-.2.7-.3 1-.3zM233 329l-.8-2.2h-3l-.7 2.2H227l3-7.9h1.3l3 7.9h-1.4zm-1.1-3.3l-.8-2.1a13.2 13.2 0 01-.4-1.4c0 .5-.2 1-.4 1.5l-.7 2h2.3zm5.8 3.4c-1 0-1.6-.3-2-.8-.5-.5-.8-1.3-.8-2.2 0-1 .3-1.8.8-2.3.4-.6 1.1-.8 2-.8a4 4 0 011.8.3l-.4 1-1.3-.3c-1 0-1.6.7-1.6 2 0 .7.1 1.2.4 1.6.3.3.6.5 1.1.5.6 0 1.1-.2 1.6-.5v1.1c-.2.2-.4.3-.7.3l-1 .1zm5.2-1c.3 0 .6 0 1-.2v1l-.6.1-.7.1c-1.2 0-1.8-.6-1.8-1.9V324h-.8v-.5l.9-.5.4-1.3h.8v1.4h1.7v1H242v3.1c0 .3 0 .5.2.7l.6.2zm3.4.9H245v-6h1.3v6zm-1.3-7.5c0-.2 0-.4.2-.5 0-.2.3-.2.5-.2s.4 0 .5.2l.2.5c0 .2 0 .4-.2.5l-.5.2c-.2 0-.4 0-.5-.2a.7.7 0 01-.2-.5zm8.4 4.5c0 1-.3 1.7-.8 2.3-.5.5-1.2.8-2 .8-.6 0-1-.1-1.5-.4-.4-.2-.8-.6-1-1-.2-.5-.3-1-.3-1.7 0-1 .2-1.7.7-2.2.5-.6 1.2-.8 2-.8 1 0 1.6.2 2.1.8.5.5.8 1.3.8 2.2zm-4.3 0c0 1.4.5 2 1.5 2s1.5-.6 1.5-2c0-1.3-.5-2-1.5-2-.6 0-1 .2-1.2.5-.2.4-.3.9-.3 1.5zm11 3h-1.3v-3.7c0-.4-.1-.8-.3-1-.2-.2-.5-.3-.9-.3-.5 0-.9.1-1.1.5-.3.3-.4.8-.4 1.5v3h-1.3v-6h1l.2.8c.2-.2.5-.5.8-.6.4-.2.7-.2 1.1-.2 1.4 0 2.2.7 2.2 2.1v3.9zm-27 127l-.9-2.2h-3l-.7 2.2H227l3-7.9h1.3l3 7.9h-1.4zm-1.2-3.3l-.8-2.1a13.2 13.2 0 01-.4-1.4c0 .5-.2 1-.4 1.5l-.7 2h2.3zm5.8 3.4c-1 0-1.6-.3-2-.8-.5-.5-.8-1.3-.8-2.2 0-1 .3-1.8.8-2.3.4-.6 1.1-.8 2-.8a4 4 0 011.8.3l-.4 1-1.3-.3c-1 0-1.6.7-1.6 2 0 .7.1 1.2.4 1.6.3.3.6.5 1.1.5.6 0 1.1-.2 1.6-.5v1.1c-.2.2-.4.3-.7.3l-1 .1zm5.2-1c.3 0 .6 0 1-.2v1l-.6.1-.7.1c-1.2 0-1.8-.6-1.8-1.9V451h-.8v-.5l.9-.5.4-1.3h.8v1.4h1.7v1H242v3.1c0 .3 0 .5.2.7l.6.2zm3.4.9H245v-6h1.3v6zm-1.3-7.5c0-.2 0-.4.2-.5 0-.2.3-.2.5-.2s.4 0 .5.2l.2.5c0 .2 0 .4-.2.5l-.5.2c-.2 0-.4 0-.5-.2a.7.7 0 01-.2-.5zm8.4 4.5c0 1-.3 1.7-.8 2.3-.5.5-1.2.8-2 .8-.6 0-1-.1-1.5-.4-.4-.2-.8-.6-1-1-.2-.5-.3-1-.3-1.7 0-1 .2-1.7.7-2.2.5-.6 1.2-.8 2-.8 1 0 1.6.2 2.1.8.5.5.8 1.3.8 2.2zm-4.3 0c0 1.4.5 2 1.5 2s1.5-.6 1.5-2c0-1.3-.5-2-1.5-2-.6 0-1 .2-1.2.5-.2.4-.3.9-.3 1.5zm11 3h-1.3v-3.7c0-.4-.1-.8-.3-1-.2-.2-.5-.3-.9-.3-.5 0-.9.1-1.1.5-.3.3-.4.8-.4 1.5v3h-1.3v-6h1l.2.8c.2-.2.5-.5.8-.6.4-.2.7-.2 1.1-.2 1.4 0 2.2.7 2.2 2.1v3.9z" opacity=".6"/><path fill="#DCE1E7" fill-rule="nonzero" d="M179.5 243h1v69h-1zm0 129h1v69h-1z"/><use fill="#8693A3" fill-rule="nonzero" xlink:href="#f" transform="translate(154 107)"/><path fill="#FF4A00" fill-rule="nonzero" d="M55 179.5a6 6 0 01-.4 2.1 6 6 0 01-4.2 0 6 6 0 010-4.2 6 6 0 014.2 0c.3.6.4 1.4.4 2.1zm7.9-1.7h-6.2l4.4-4.4-1.2-1.3-1.3-1.2-4.3 4.4V169l-1.8-.1-1.8.1v6.2l-4.3-4.4-1.3 1.2-1.2 1.3 4.4 4.3H42l-.1 1.8.1 1.8h6.2l-4.4 4.3c.7 1 1.6 1.8 2.5 2.5l4.3-4.4v6.2l1.8.1 1.8-.1v-6.2l4.3 4.4 1.3-1.2 1.2-1.3-4.4-4.3H63l.1-1.8-.1-1.7z"/><path d="M173.2 473a2.5 2.5 0 01-5 0c0-1.4 1-2.5 2.4-2.5h2.6v2.5zm1.2 0a2.5 2.5 0 015.1 0v6.4a2.5 2.5 0 01-5 0V473z" fill="#E01E5A"/><path d="M177 463.2a2.5 2.5 0 010-5c1.4 0 2.5 1 2.5 2.4v2.6H177zm0 1.2a2.5 2.5 0 010 5.1h-6.4a2.5 2.5 0 010-5h6.4z" fill="#36C5F0"/><path d="M186.8 467a2.5 2.5 0 015 0c0 1.4-1 2.5-2.4 2.5h-2.6V467zm-1.2 0a2.5 2.5 0 01-5.1 0v-6.4a2.5 2.5 0 015 0v6.4z" fill="#2EB67D"/><path d="M183 476.8a2.5 2.5 0 010 5 2.5 2.5 0 01-2.5-2.4v-2.6h2.5zm0-1.2a2.5 2.5 0 010-5.1h6.4a2.5 2.5 0 010 5H183z" fill="#ECB22E"/><g fill="#000"><path d="M186 340.8h.6a2 2 0 000-1.2c0-.7-.3-1.1-.8-1-.4 0-.5.5-.3 1.2l.5 1m-3.8 1c.3 0 .4.2.5.1v-.2l-.7-.5c-.5-.3-1.2-.2-1.7.2-.2.1-.3.3-.3.4h.1l1.2-.2c.4 0 .7 0 1 .2m.2.2l-.8.3-.2.3h.4a3 3 0 011.3-.1h.3v-.2s-.5-.3-1-.2m2.5.4c.2.1.6 0 .7-.1 0-.3 0-.5-.4-.7-.3-.1-.6 0-.7.1-.1.3 0 .5.3.7m1.7-1c-.2 0-.3.3-.3.6s.1.6.3.6c.2 0 .3-.3.3-.6s-.1-.6-.3-.6m-14 4.8h-.4c-.2 0-.3 0-.4-.2v-.5c.2-.4.5-1 .2-1.4-.2-.4-.6-.7-1-.7-.5 0-1 0-1.2.3-.5.5-.6 1-.5 1.3h.2l.2-.1.2-.5.5-.3.7.1c.3.2.4.6.3.9l-.2.7c0 .6.4.8.8.8.3 0 .5-.2.6-.3v-.1"/><path fill-rule="nonzero" d="M192.4 345.4s0-.4-.2-.7l-.2-.7c.4-.6.4-1.3.4-1.6a2 2 0 00-.6-1.2 5 5 0 00-2.2-1l-.5-.2v-1.8l-.3-1.6c-.2-.8-.6-1.5-1.1-2 1.3-1.3 2.2-2.9 2.2-4.2 0-2.5-3.1-3.3-7-1.7l-.8.4-1.5-1.5c-4.4-3.8-18.1 11.4-13.7 15l1 .9c-.3.6-.4 1.3-.4 2.1.2 1 .7 2 1.5 2.8.8.7 2 1.1 3 1.1 1.6 4 5.6 6.4 10.1 6.5 5 .1 9-2.2 10.8-6.3.1-.3.6-1.6.6-2.7 0-1.2-.7-1.6-1-1.6m-20.2 3h-.4c-1.5 0-3.1-1.3-3.3-2.9-.2-1.7.7-3 2.3-3.4h.7c.9 0 2.2.7 2.5 2.6.2 1.7-.2 3.5-1.8 3.7m-1.6-7.3c-1 .2-1.9.7-2.4 1.5-.3-.3-1-.8-1-1-.9-1.6.9-4.7 2.1-6.4 3-4.4 7.9-7.7 10.1-7 .4 0 1.6 1.4 1.6 1.4s-2.3 1.2-4.3 3a19.3 19.3 0 00-6.1 8.5m15.5 6.7v-.1s-2.3.3-4.5-.5c.2-.8.8-.5 1.8-.4 1.7 0 3.3-.2 4.4-.5 1-.3 2.3-.9 3.4-1.7l.4 1.6.5.1c.2.1.4.4.3 1a7 7 0 01-3.7 4.8l-1.4.6c-3.5 1.2-7 0-8.2-2.8l-.2-.6c-.5-1.7 0-3.8 1.2-5.2l.2-.3-.1-.3c-.5-.6-2-1.8-1.7-4 .2-1.5 1.5-2.6 2.8-2.5h.3l1.5.1a3 3 0 002.3-.7l.8-.5h.4c.2 0 .4 0 .5.2.7.4.8 1.4.8 2.2v1.8c.1.7.3.8.7.9l.7.2c.8.2 1.3.5 1.7.8l.3.6c0 .7-.6 1.6-2.4 2.4a12 12 0 01-6 1h-.5c-1.3-.2-2 1.4-1.3 2.6.5.7 1.9 1.2 3.3 1.2 3.1 0 5.6-1.3 6.5-2.5v-.2c-.7.5-4 2.5-7.5 2l-.9-.3c-.3-.1-1-.4-1-1 2.8.8 4.6 0 4.6 0m-9.9-12.7a13 13 0 013.6-3l.1.2c0 .1-.3.5-.3.8.8-.5 2-1 3.2-1 0 0 .1 0 0 0l-.4.5c.8 0 2 .4 2.7.8a10.9 10.9 0 00-8.8 1.8s-.1 0 0 0"/></g></g></svg>