<svg xmlns="http://www.w3.org/2000/svg" xmlns:xlink="http://www.w3.org/1999/xlink" width="772" height="508"><defs><filter id="a" width="103.6%" height="104.8%" x="-1.8%" y="-2.4%" filterUnits="objectBoundingBox"><feOffset dy="2" in="SourceAlpha" result="shadowOffsetOuter1"/><feGaussianBlur in="shadowOffsetOuter1" result="shadowBlurOuter1" stdDeviation="2"/><feColorMatrix in="shadowBlurOuter1" result="shadowMatrixOuter1" values="0 0 0 0 0 0 0 0 0 0 0 0 0 0 0 0 0 0 0.1 0"/><feMerge><feMergeNode in="shadowMatrixOuter1"/><feMergeNode in="SourceGraphic"/></feMerge></filter><filter id="e" width="111.1%" height="131.5%" x="-5.6%" y="-14.7%" filterUnits="objectBoundingBox"><feOffset dy="2" in="SourceAlpha" result="shadowOffsetOuter1"/><feGaussianBlur in="shadowOffsetOuter1" result="shadowBlurOuter1" stdDeviation="10"/><feColorMatrix in="shadowBlurOuter1" values="0 0 0 0 0.862745098 0 0 0 0 0.882352941 0 0 0 0 0.905882353 0 0 0 1 0"/></filter><path id="b" d="M16 0h640a16 16 0 0116 16v484H0V16A16 16 0 0116 0z"/><path id="g" d="M11 10a1 1 0 00-1 1v9c0 .6.4 1 1 1h9c.6 0 1-.4 1-1v-9c0-.6-.4-1-1-1h-9zm0-2h9a3 3 0 013 3v9a3 3 0 01-3 3h-9a3 3 0 01-3-3v-9a3 3 0 013-3zm-6 6a1 1 0 010 2H4a3 3 0 01-3-3V4a3 3 0 013-3h9a3 3 0 013 3v1a1 1 0 01-2 0V4c0-.6-.4-1-1-1H4a1 1 0 00-1 1v9c0 .6.4 1 1 1h1z"/><linearGradient id="d" x1="10.9%" x2="90.9%" y1="39.6%" y2="41.6%"><stop offset="0%" stop-color="#0934C4"/><stop offset="100%" stop-color="#2195B7"/></linearGradient><rect id="f" width="558" height="197" rx="8"/></defs><g fill="none" fill-rule="evenodd"><g filter="url(#a)" transform="translate(4 2)"><mask id="c" fill="#fff"><use xlink:href="#b"/></mask><use fill="#E3EBF6" fill-rule="nonzero" opacity=".5" xlink:href="#b"/><rect width="36" height="33.2" x="26.5" y="155" fill="#D3D7DD" fill-rule="nonzero" mask="url(#c)" opacity=".5" rx="4"/><rect width="36" height="33.2" x="26.5" y="91" fill="#D3D7DD" fill-rule="nonzero" mask="url(#c)" opacity=".5" rx="4"/><rect width="36" height="33.2" x="26.5" y="218" fill="#D3D7DD" fill-rule="nonzero" mask="url(#c)" opacity=".5" rx="4"/><rect width="36" height="33.2" x="26.5" y="283" fill="#D3D7DD" fill-rule="nonzero" mask="url(#c)" opacity=".5" rx="4"/><rect width="36" height="33.2" x="26.5" y="347" fill="#D3D7DD" fill-rule="nonzero" mask="url(#c)" opacity=".5" rx="4"/><rect width="36" height="33.2" x="26.5" y="411" fill="#D3D7DD" fill-rule="nonzero" mask="url(#c)" opacity=".5" rx="4"/><rect width="36" height="33.2" x="26.5" y="474" fill="#D3D7DD" fill-rule="nonzero" mask="url(#c)" opacity=".5" rx="4"/><path fill="#FFF" fill-rule="nonzero" mask="url(#c)" d="M89 0h683v515H89z"/><path fill="url(#d)" fill-rule="nonzero" mask="url(#c)" d="M0 0h694v56H0z"/></g><g transform="translate(194 116)"><g fill-rule="nonzero"><use fill="#000" filter="url(#e)" xlink:href="#f"/><use fill="#FFF" xlink:href="#f"/></g><rect width="471" height="59" x="42.5" y="40.5" stroke="#B8C3CF" rx="4"/><path fill="#41465A" d="M67.6 76.5V60.7c0-.3.2-.5.4-.5h1.4c.2 0 .5.2.5.5v7.5c.2-.2 1.3-1 2.8-1 2.8 0 4 1.9 4 4.5v4.8c0 .3-.2.5-.4.5H75a.5.5 0 01-.5-.5v-4.8c0-1.6-.8-2.5-2-2.5-1.5 0-2.5 1.2-2.6 1.6v5.7c0 .3-.2.5-.5.5H68a.5.5 0 01-.4-.5zm12.8-2.1v-5h-1a.5.5 0 01-.5-.5v-1c0-.3.2-.5.5-.5h1v-2.7c0-.2.2-.4.4-.4h1.4c.2 0 .4.2.4.4v2.7h2.5c.2 0 .4.2.4.5v1c0 .3-.2.5-.4.5h-2.5V74c0 .9.3 1 .8 1a4 4 0 001.5-.4c.3-.2.4 0 .5.2l.4 1c.2.3 0 .5-.2.6-.2.2-1.6.7-2.8.7-1.9 0-2.4-1.1-2.4-2.8zm8.3 0v-5h-1a.5.5 0 01-.5-.5v-1c0-.3.2-.5.5-.5h1v-2.7c0-.2.2-.4.4-.4h1.4c.2 0 .4.2.4.4v2.7h2.5c.2 0 .4.2.4.5v1c0 .3-.2.5-.4.5h-2.5V74c0 .9.3 1 .8 1a4 4 0 001.5-.4c.3-.2.4 0 .5.2l.5 1c0 .3 0 .5-.3.6-.2.2-1.6.7-2.8.7-1.9 0-2.4-1.1-2.4-2.8zm10 2.2v7.1c0 .3-.2.5-.5.5h-1.4a.5.5 0 01-.4-.5V68c0-.3.2-.5.4-.5h.7c.2 0 .3.1.4.3l.3.6c.2-.1 1.1-1.1 3-1.1 2.6 0 4.5 2.3 4.5 5 0 2.8-2 5-4.7 5-1.2 0-2.2-.5-2.3-.6zm0-2.1s.8.7 2 .7c1.6 0 2.8-1.3 2.8-3 0-1.6-1-3-2.7-3a2.5 2.5 0 00-2.2 1.4v3.9zm9 1.8c-.2-.1-.3-.4-.2-.5l.5-1c.1-.2.4-.2.6-.1 0 0 1.1.6 2.3.6.7 0 1.2-.3 1.2-.8 0-.6-.6-1-1.9-1.6-1.5-.6-2.7-1.5-2.7-3.1 0-1.2 1-2.6 3.3-2.6 1.3 0 2.3.4 2.8.7.2.1.3.5.2.7l-.4.8c-.2.2-.5.3-.7.2 0 0-1-.5-2-.5-.8 0-1 .4-1 .7 0 .6.6 1 1.5 1.3 1.8.8 3.2 1.5 3.2 3.3 0 1.5-1.4 2.8-3.5 2.8a5 5 0 01-3.2-1zm10.4-6c-.8 0-1.5-.7-1.5-1.6 0-.8.7-1.5 1.5-1.5.9 0 1.6.7 1.6 1.5 0 .9-.7 1.6-1.6 1.6zm-1.5 5.4c0-.9.7-1.6 1.5-1.6.9 0 1.6.7 1.6 1.6 0 .8-.7 1.5-1.6 1.5-.8 0-1.5-.7-1.5-1.5zm5.3.7l4.7-15.9c0-.2.2-.3.4-.3h1.2c.3 0 .5.3.4.6l-4.7 15.9c0 .2-.3.3-.4.3h-1.2c-.3 0-.5-.3-.4-.6zm8 0l4.7-15.9c0-.2.3-.3.5-.3h1.1c.3 0 .5.3.4.6L132 76.7c-.1.2-.3.3-.5.3h-1.1c-.3 0-.6-.3-.5-.6zm8.8.1V60.7c0-.3.2-.5.5-.5h1.4c.2 0 .4.2.4.5v7c.2 0 1.1-.5 2.3-.5 2.7 0 4.8 2.2 4.8 5s-2 5-4.5 5c-2 0-3-1.3-3-1.3l-.3.7c0 .2-.2.4-.4.4h-.7a.5.5 0 01-.5-.5zm2.3-2.8c.1.3.8 1.5 2.3 1.5 1.5 0 2.5-1.4 2.5-3s-1.1-3-2.7-3c-1.3 0-2.1.6-2.1.6v4zm8.8.3c0-1.7 1.4-3 3.8-3l2 .2c0-1.5-.3-2.1-1.6-2.1-1 0-2.2.3-2.7.4-.2.1-.4 0-.5-.3l-.2-1c0-.2.1-.4.3-.5.2 0 1.6-.5 3.3-.5 3.1 0 3.4 1.8 3.4 4.2v5.1c0 .3-.2.5-.4.5h-.7c-.2 0-.3-.1-.4-.3l-.3-.7c-.5.5-1.4 1.2-3 1.2-1.7 0-3-1.2-3-3.2zm2 0c0 .9.6 1.5 1.5 1.5 1 0 2-.7 2.2-1.2v-1.5c-.1-.1-.8-.4-1.7-.4-1.1 0-2 .6-2 1.6zm8.8 2.5V68c0-.3.2-.5.5-.5h.7c.2 0 .3.1.4.3l.3.8a5 5 0 013.3-1.3c3 0 4 2 4 4.5v4.8c0 .3-.2.5-.4.5H168a.5.5 0 01-.5-.5v-4.9c0-1.5-.7-2.4-2-2.4-1.5 0-2.5 1.2-2.6 1.5v5.8c0 .4-.2.5-.6.5h-1.2a.5.5 0 01-.5-.5zm11.5-2.5c0-1.7 1.4-3 3.9-3 1 0 1.9.2 1.9.2 0-1.5-.3-2.1-1.5-2.1-1.1 0-2.2.3-2.7.4-.3.1-.5 0-.5-.3l-.2-1c-.1-.2 0-.4.3-.5.1 0 1.5-.5 3.3-.5 3 0 3.4 1.8 3.4 4.2v5.1c0 .3-.3.5-.5.5h-.7c-.2 0-.3-.1-.4-.3l-.2-.7c-.6.5-1.5 1.2-3 1.2-1.8 0-3-1.2-3-3.2zm2.1 0c0 .9.6 1.5 1.5 1.5 1 0 1.9-.7 2.1-1.2v-1.5c-.1-.1-.8-.4-1.6-.4-1.2 0-2 .6-2 1.6zm8.8 2.5V68c0-.3.2-.5.4-.5h.7c.2 0 .4.1.4.3l.3.8a5 5 0 013.4-1.3c2.9 0 4 2 4 4.5v4.8c0 .3-.2.5-.5.5h-1.4a.5.5 0 01-.4-.5v-4.9c0-1.5-.8-2.4-2-2.4-1.5 0-2.5 1.2-2.7 1.5v5.8c0 .4-.1.5-.5.5h-1.3a.5.5 0 01-.4-.5zm11.5-2.5c0-1.7 1.4-3 3.8-3l2 .2c0-1.5-.4-2.1-1.6-2.1-1 0-2.2.3-2.7.4-.3.1-.4 0-.5-.3l-.2-1c0-.2.1-.4.3-.5.2 0 1.6-.5 3.3-.5 3.1 0 3.4 1.8 3.4 4.2v5.1c0 .3-.2.5-.5.5h-.6c-.2 0-.3-.1-.4-.3l-.3-.7c-.5.5-1.4 1.2-3 1.2-1.7 0-3-1.2-3-3.2zm2 0c0 .9.6 1.5 1.5 1.5 1 0 1.9-.7 2.2-1.2v-1.5c-.2-.1-.8-.4-1.7-.4-1.1 0-2 .6-2 1.6zm8.4 2.3c-.2-.1-.3-.4-.2-.5l.5-1c.1-.2.4-.2.6-.1 0 0 1.1.6 2.3.6.7 0 1.2-.3 1.2-.8 0-.6-.6-1-1.9-1.6-1.5-.6-2.7-1.5-2.7-3.1 0-1.2 1-2.6 3.3-2.6 1.3 0 2.3.4 2.8.7.2.1.3.5.2.7l-.4.8c-.2.2-.5.3-.7.2 0 0-1-.5-2-.5-.8 0-1 .4-1 .7 0 .6.6 1 1.5 1.3 1.8.8 3.2 1.5 3.2 3.3 0 1.5-1.4 2.8-3.5 2.8a5 5 0 01-3.2-1zm8.5-.7a1.7 1.7 0 113.4 0c0 .9-.8 1.6-1.7 1.6-1 0-1.7-.7-1.7-1.6zm7.1-12.1c-.8 0-1.4-.6-1.4-1.4 0-.8.6-1.4 1.4-1.4a1.4 1.4 0 110 2.8zm-1 13V68c0-.3.1-.5.4-.5h1.3c.3 0 .5.2.5.5v8.6c0 .3-.2.5-.5.5H220a.5.5 0 01-.5-.5zm5.3 0V68c0-.3.2-.5.5-.5h.7c.2 0 .3.1.3.3l.3.8a5 5 0 013.4-1.3c3 0 4 2 4 4.5v4.8c0 .3-.2.5-.5.5h-1.3a.5.5 0 01-.5-.5v-4.9c0-1.5-.7-2.4-2-2.4-1.5 0-2.5 1.2-2.6 1.5v5.8c0 .4-.2.5-.6.5h-1.2a.5.5 0 01-.5-.5zm11.5-4.3c0-2.8 2.4-5 5-5 1.5 0 2.6.6 3.5 1.7.2.2.1.5-.1.6l-.8.8c-.3.2-.4 0-.6-.1-.5-.5-1.2-1-2-1-1.5 0-2.7 1.4-2.7 3 0 1.7 1.2 3 2.7 3 1.2 0 1.7-.6 2.3-1.1.2-.2.4-.2.6 0l.6.5c.3.1.4.4.2.6-.8 1.2-2 2-3.7 2a5 5 0 01-5-5zm10.4 4.2l4.7-15.9c0-.2.2-.3.4-.3h1.1c.4 0 .6.3.5.6l-4.7 15.9c0 .2-.3.3-.4.3H247c-.3 0-.5-.3-.4-.6zm11.6-6a.5.5 0 01-.5-.4v-1c0-2.6 3.5-3 3.5-5.1 0-1-.8-1.9-2.2-1.9-1.7 0-2.4 1-3 1.5h-.5l-.8-.8c-.2-.2-.1-.4 0-.6 0 0 1.5-2.1 4.6-2.1 2.5 0 4.4 1.5 4.4 3.8 0 3-3.7 3.6-3.7 5.3v.9c0 .3-.3.5-.5.5h-1.3zm-1 5.2a1.7 1.7 0 113.3 0c0 .9-.8 1.6-1.7 1.6-1 0-1.7-.7-1.7-1.6zm9 1v-8.7c0-.3.3-.5.5-.5h.7c.2 0 .4.1.4.3l.3.9c.1-.3 1-1.4 2.8-1.4.9 0 2 .2 1.7.8l-.5 1.2c-.2.3-.4.3-.6.2l-.8-.1c-1.4 0-2.1 1-2.2 1.1v6.1c0 .5-.3.5-.6.5h-1.2a.5.5 0 01-.4-.5zm7.4-4.4c0-2.7 2-5 4.8-5a4.3 4.3 0 014.4 5c0 .3-.2.5-.4.5h-6.6c.1 1.3 1.2 2.5 2.8 2.5a4 4 0 002.1-.7c.3-.1.5-.2.7 0l.6 1c.2.1.3.3 0 .5-.7.6-2 1.2-3.6 1.2-2.9 0-4.8-2.2-4.8-5zm2.3-1h4.7c0-1.2-1-2.2-2.2-2.2-1.3 0-2.3 1-2.5 2.1zm10 5.3v-7.1h-1.1a.5.5 0 01-.5-.5v-1c0-.3.2-.5.5-.5h1v-3c0-3 1.9-4.4 4.2-4.4 1.3 0 2.3.5 2.7 1 .2 0 .2.3.1.5l-.6 1c-.1.3-.4.3-.6.1-.3-.2-1-.6-1.6-.6-1 0-1.8.8-1.8 2.4v3h2.6c.3 0 .5.2.5.5v1c0 .3-.2.5-.5.5h-2.6v7.1c0 .3-.2.5-.4.5h-1.5a.5.5 0 01-.4-.5zm8-7.8a.5.5 0 01-.5-.4v-1c0-.3.2-.5.5-.5h7.4c.3 0 .5.2.5.5v1c0 .2-.2.4-.5.4H294zm0 5.1a.5.5 0 01-.5-.4v-1.1c0-.2.2-.5.5-.5h7.4c.3 0 .5.3.5.5v1c0 .3-.2.5-.5.5H294zm12.4-10.3c-.8 0-1.4-.6-1.4-1.4 0-.8.6-1.4 1.4-1.4a1.4 1.4 0 110 2.8zM305.2 80V67.9c0-.3.2-.5.5-.5h1.4c.2 0 .4.2.4.5v12c0 3-1.7 4.5-4 4.5-1.3 0-2.3-.5-2.8-1-.1 0-.2-.3 0-.5l.5-1c.1-.3.4-.3.6-.1.3.2 1 .6 1.6.6 1 0 1.8-.8 1.8-2.4zm4.7-7.8a5 5 0 014.9-5 5 5 0 014.8 5 5 5 0 01-4.8 5 5 5 0 01-4.9-5zm2.2 0c0 1.6 1.2 3 2.7 3 1.5 0 2.7-1.4 2.7-3s-1.2-3-2.7-3c-1.5 0-2.7 1.4-2.7 3zm10 4.3V60.7c0-.3.1-.5.4-.5h1.4c.2 0 .4.2.4.5v7.5c.3-.2 1.4-1 3-1 2.6 0 4 1.9 4 4.5v4.8c0 .3-.3.5-.5.5h-1.4a.5.5 0 01-.4-.5v-4.8c0-1.6-.8-2.5-2-2.5-1.5 0-2.5 1.2-2.7 1.6v5.7c0 .3-.1.5-.4.5h-1.4a.5.5 0 01-.5-.5zm12.1 0V68c0-.3.2-.5.5-.5h.7c.2 0 .3.1.4.3l.2.8a5 5 0 013.4-1.3c3 0 4 2 4 4.5v4.8c0 .3-.2.5-.4.5h-1.4a.5.5 0 01-.5-.5v-4.9c0-1.5-.7-2.4-2-2.4-1.5 0-2.5 1.2-2.6 1.5v5.8c0 .4-.2.5-.6.5h-1.2a.5.5 0 01-.5-.5z"/><path fill="#000" d="M87.6 137.6h7.2v1.2H89v3h5.5v1.2H89v3.4h6v1.2h-7.3v-10zm9 2.7h1.2v1l.7-.7c.4-.3.9-.5 1.4-.5.6 0 1 .2 1.4.5.2.1.4.4.5.7.3-.4.6-.7 1-.9l1.2-.3c1 0 1.7.4 2 1.1.2.4.3.9.3 1.5v4.9H105v-5c0-.6 0-.9-.3-1-.3-.3-.6-.3-1-.3s-.8.1-1.1.4c-.4.4-.6.9-.6 1.6v4.3h-1.2v-4.8c0-.5 0-.8-.2-1-.2-.4-.5-.6-1-.6s-.9.2-1.3.6c-.3.3-.5 1-.5 2v3.8h-1.3v-7.3zm12.4 5.3c0 .4.2.7.4.9.3.2.6.3 1 .3l1.2-.3c.7-.4 1-.9 1-1.6v-1a2 2 0 01-.6.2l-.7.1-.7.1-1 .3c-.4.2-.6.6-.6 1zm3-2.4c.3 0 .4-.2.5-.4l.1-.5c0-.4-.1-.7-.4-.9l-1.3-.2c-.6 0-1 .1-1.3.5-.2.2-.3.5-.3.8H108c0-.9.3-1.5.9-1.8.6-.4 1.2-.6 2-.6a4 4 0 012 .5c.5.3.8.9.8 1.5v4.5l.4.1a1.9 1.9 0 00.4 0v.9l-.4.1h-.4c-.4 0-.8-.1-1-.4l-.2-.7a3.3 3.3 0 01-2.6 1.2c-.6 0-1.2-.2-1.6-.6a2 2 0 01-.6-1.5c0-.7.2-1.2.6-1.6a3 3 0 011.6-.7l2-.2zm3.8-2.9h1.2v7.3h-1.2v-7.3zm0-2.7h1.2v1.4h-1.2v-1.4zm3.1 0h1.2v10H119v-10zm73.6 0h6.9v1.2h-5.6v3h5v1.2h-5v4.6h-1.3v-10zm9.1 8c0 .4.1.7.4.9.2.2.6.3.9.3l1.2-.3c.7-.4 1-.9 1-1.6v-1a2 2 0 01-.5.2l-.7.1-.7.1-1 .3c-.4.2-.6.6-.6 1zm3-2.4c.2 0 .4-.2.5-.4l.1-.5c0-.4-.2-.7-.4-.9l-1.3-.2c-.7 0-1.1.1-1.4.5l-.3.8h-1.1c0-.9.3-1.5.9-1.8.5-.4 1.2-.6 2-.6a4 4 0 012 .5c.5.3.8.9.8 1.5v4.5l.4.1a1.9 1.9 0 00.4 0v.9l-.4.1h-.5c-.4 0-.7-.1-.9-.4l-.2-.7a3.3 3.3 0 01-2.6 1.2c-.7 0-1.2-.2-1.6-.6a2 2 0 01-.7-1.5c0-.7.2-1.2.7-1.6a3 3 0 011.6-.7l2-.2zm6.6-3.1c.8 0 1.5.2 2 .6.5.4.8 1 .9 2h-1.2c0-.4-.2-.8-.5-1-.2-.4-.7-.5-1.2-.5-.8 0-1.4.4-1.7 1.1-.2.5-.3 1.1-.3 1.8 0 .8.1 1.4.4 1.9.4.5.8.7 1.5.7.5 0 .9-.1 1.2-.4.3-.3.5-.8.6-1.3h1.2c-.1 1-.5 1.7-1 2.1-.6.4-1.3.7-2.1.7-1 0-1.7-.4-2.3-1a4 4 0 01-.8-2.7c0-1.2.3-2.2 1-3a3 3 0 012.3-1zm7.1 0a3.3 3.3 0 012.6 1.3c.3.4.4.8.5 1.3l.1 1.6h-5.3c0 .8.2 1.4.5 1.8.4.4.9.7 1.5.7a2 2 0 002-1.5h1.2l-.3.9-.6.8c-.4.3-.8.6-1.4.7l-1 .1a3 3 0 01-2.3-1c-.6-.6-.9-1.5-.9-2.7 0-1.2.3-2.1 1-2.9.6-.7 1.4-1 2.4-1zm2 3.3c0-.6-.2-1-.4-1.3-.3-.6-.9-.9-1.6-.9-.6 0-1 .2-1.5.6-.3.4-.5 1-.6 1.6h4zm2.6-5.8h1.2v3.6a2.7 2.7 0 012.2-1c.9 0 1.6.2 2.2.9.5.6.8 1.5.8 2.7 0 1.1-.3 2.1-.8 2.9-.6.7-1.4 1-2.3 1-.6 0-1 0-1.4-.3l-.8-.8v1h-1v-10zm3.2 9.1c.6 0 1.1-.2 1.5-.8.3-.5.5-1.2.5-2s-.2-1.4-.5-2c-.4-.4-.8-.7-1.5-.7a2 2 0 00-1.4.6c-.5.4-.7 1.1-.7 2 0 .7.1 1.3.3 1.7.3.8 1 1.2 1.8 1.2zm7.5 0c.8 0 1.4-.2 1.7-.8.3-.7.4-1.3.4-2 0-.8-.1-1.3-.3-1.7-.4-.7-1-1-1.8-1-.7 0-1.3.2-1.6.8a4 4 0 00-.5 2c0 .8.2 1.5.5 2s.9.8 1.6.8zm0-6.6c1 0 1.8.3 2.4 1 .7.6 1 1.5 1 2.7 0 1.2-.3 2.1-.9 2.9-.5.7-1.4 1.1-2.6 1.1a3 3 0 01-2.4-1 4 4 0 01-.9-2.7c0-1.2.3-2.2 1-3 .6-.6 1.4-1 2.4-1zm7.7 6.7c.8 0 1.4-.3 1.7-1 .3-.6.4-1.2.4-2 0-.7 0-1.2-.3-1.6-.3-.7-1-1-1.8-1-.7 0-1.3.2-1.6.8a4 4 0 00-.5 2c0 .8.2 1.5.5 2s.9.8 1.6.8zm0-6.7c1 0 1.8.3 2.4 1 .7.6 1 1.5 1 2.7 0 1.2-.3 2.1-.9 2.9-.5.7-1.4 1.1-2.6 1.1a3 3 0 01-2.4-1 4 4 0 01-.9-2.7c0-1.2.3-2.2 1-3 .6-.6 1.4-1 2.5-1zm4.8-2.5h1.2v5.8l3.1-3h1.6l-2.8 2.6 3 4.6h-1.6l-2.3-3.7-1 1v2.7H246v-10zm86.1 0h1.4v8.8h5v1.2h-6.4v-10zm7.6 2.7h1.2v7.3h-1.2v-7.3zm0-2.7h1.2v1.4h-1.2v-1.4zm3 2.7h1.2v1l1.1-.9a3 3 0 011.3-.3c1 0 1.7.4 2 1.1.3.4.4 1 .4 1.7v4.7h-1.3V143c0-.5 0-.8-.2-1-.2-.5-.6-.8-1.2-.8l-.7.1c-.3.1-.6.3-.8.6-.2.3-.4.5-.4.8l-.1 1v3.9h-1.2v-7.3zm7.7-2.7h1.2v5.8l3.1-3h1.6l-2.8 2.6 3 4.6H355l-2.3-3.7-1 1v2.7h-1.2v-10zm10 2.5a3.3 3.3 0 012.6 1.3l.5 1.3.1 1.6h-5.3c0 .8.2 1.4.5 1.8.3.4.8.7 1.5.7a2 2 0 002-1.5h1.2l-.3.9-.6.8c-.4.3-.8.6-1.4.7l-1 .1a3 3 0 01-2.3-1c-.6-.6-1-1.5-1-2.7 0-1.2.4-2.1 1-2.9.7-.7 1.5-1 2.5-1zm2 3.3c-.1-.6-.2-1-.4-1.3-.3-.6-.9-.9-1.7-.9-.5 0-1 .2-1.4.6-.4.4-.6 1-.6 1.6h4zm3.5.6c0 .8.1 1.4.5 2 .3.5.8.8 1.5.8.6 0 1-.3 1.4-.8.4-.5.6-1.2.6-2 0-1-.2-1.7-.6-2-.4-.5-.8-.8-1.4-.8-.6 0-1 .3-1.5.7-.3.5-.5 1.2-.5 2.1zm1.8-3.8c.6 0 1 .1 1.4.3l.7.7v-3.6h1.2v10h-1v-1l-1.1 1-1.3.2c-.8 0-1.5-.3-2.1-1a4 4 0 01-1-2.7c0-1 .4-2 .9-2.8.5-.7 1.3-1.1 2.3-1.1zm5.1.1h1.2v7.3H373v-7.3zm0-2.7h1.2v1.4H373v-1.4zm3 2.7h1.2v1l1.1-.9a3 3 0 011.3-.3c1 0 1.7.4 2.1 1.1.2.4.3 1 .3 1.7v4.7h-1.2V143l-.2-1c-.3-.5-.7-.8-1.2-.8l-.7.1c-.4.1-.7.3-1 .6l-.3.8-.1 1v3.9H376v-7.3zm94-2.7v1.2h-3.4v8.8h-1.3v-8.8h-3.4v-1.2h8zm1.6 2.7l1.4 5.7 1.4-5.7h1.4l1.4 5.7 1.5-5.7h1.2l-2.1 7.3h-1.3l-1.4-5.7-1.5 5.7h-1.2l-2.1-7.3h1.3zm9.4 0h1.3v7.3h-1.3v-7.3zm0-2.7h1.3v1.4h-1.3v-1.4zm3.4.7h1.2v2h1.2v1h-1.2v4.7c0 .3 0 .5.3.5l.4.1a5.7 5.7 0 00.5 0v1h-1c-.5 0-1 0-1.1-.4a2 2 0 01-.3-1.1v-4.8h-1v-1h1v-2zm3.8 0h1.3v2h1.1v1h-1.1v4.7c0 .3 0 .5.2.5l.5.1a5.7 5.7 0 00.4 0v1h-.9c-.6 0-1 0-1.2-.4a2 2 0 01-.3-1.1v-4.8h-1v-1h1v-2zm6.6 1.8a3.3 3.3 0 012.6 1.3c.3.4.5.8.5 1.3l.1 1.6h-5.3c0 .8.2 1.4.6 1.8.3.4.8.7 1.5.7a2 2 0 002-1.5h1.1l-.3.9-.6.8c-.3.3-.8.6-1.3.7l-1 .1a3 3 0 01-2.3-1c-.7-.6-1-1.5-1-2.7 0-1.2.3-2.1 1-2.9.6-.7 1.4-1 2.4-1zm2 3.3c0-.6-.2-1-.4-1.3-.3-.6-.8-.9-1.6-.9-.6 0-1 .2-1.4.6-.4.4-.6 1-.6 1.6h4zm2.8-3h1.1v1.2l.7-1a1.8 1.8 0 011.4-.4h.3v1.3a1.8 1.8 0 00-.4 0c-.6 0-1 .1-1.4.5a2 2 0 00-.5 1.4v4.2h-1.2v-7.3z" opacity=".6"/><g fill-rule="nonzero"><path fill="#3D5C9C" d="M181.8 143.3a16 16 0 11-32 0 16 16 0 0132 0z"/><path fill="#FFF" d="M164.5 151.8h3.4v-8.2h2.2l.3-2.8H168V139c0-.7.4-.8.7-.8h1.8v-2.8H168c-2.8 0-3.4 2-3.4 3.4v1.9h-1.7v2.8h1.7v8.2z"/></g><g fill-rule="nonzero" transform="translate(288.3 127.3)"><circle cx="16" cy="16" r="16" fill="#0274B3"/><path fill="#FFF" d="M8.5 13.6h3.4v11H8.5v-11zm1.7-1.5a2 2 0 100-4 2 2 0 000 4zm14.4 6.5c0-3-.6-5.2-4-5.2-1.7 0-2.8.9-3.3 1.7v-1.5H14v11h3.4v-5.4c0-1.5.3-2.9 2-2.9 1.8 0 1.8 1.7 1.8 3v5.3h3.4v-6z"/></g><g fill-rule="nonzero" transform="translate(421.3 127.3)"><circle cx="16" cy="16" r="16" fill="#2FAAE1"/><path fill="#FFF" d="M24.1 10.9c-.6.4-1.4.7-2.1.8a3.3 3.3 0 00-5.8 2.3v.8a9.5 9.5 0 01-6.9-3.5 3.3 3.3 0 001 4.4c-.5 0-1-.1-1.5-.4 0 1.7 1.2 3 2.7 3.4a3.4 3.4 0 01-1.5 0 3.4 3.4 0 003.2 2.4 6.7 6.7 0 01-5 1.3c1.5 1 3.2 1.6 5.1 1.6A9.5 9.5 0 0023 14c.7-.5 1.2-1.1 1.7-1.8-.6.3-1.3.5-2 .6.7-.5 1.3-1.1 1.5-2z"/></g><g fill-rule="nonzero" transform="translate(42 126.6)"><circle cx="16" cy="16" r="16" fill="#37D1B3"/><path fill="#FFF" stroke="#FFF" stroke-linejoin="round" stroke-width="1.3" d="M24.5 23H8.2V9.7h16.3V23zm-16-.4h15.6V10.2H8.6v12.4zM24.2 11l-7.7 7-7.8-7v.5l7.8 7 7.7-7V11zm-9.7 5.7l-.3-.2-5.5 5.6.3.3 5.5-5.7zm9.7 5.4l-5.5-5.7-.3.3 5.5 5.7.3-.3z"/></g><path stroke="#D4D4D4" stroke-linecap="square" stroke-width="1.3" d="M136.8 127.9v32.7M274.2 128v32.8M406.5 128v32.8" opacity=".5"/><g opacity=".5" transform="translate(463 60)"><mask id="h" fill="#fff"><use xlink:href="#g"/></mask><use fill="#000" fill-rule="nonzero" xlink:href="#g"/><g fill="#000" mask="url(#h)"><path d="M0 0h24v24H0z"/></g></g></g></g></svg>