<svg xmlns="http://www.w3.org/2000/svg" xmlns:xlink="http://www.w3.org/1999/xlink" width="688" height="516"><defs><path id="b" d="M16 0h640a16 16 0 0116 16v484H0V16A16 16 0 0116 0z"/><path id="g" d="M0 .5h32.5v32.7H0z"/><path id="k" d="M9.6 0h10.8C25.7 0 30 4.3 30 9.6v7.2c0 5.3-4.3 9.6-9.6 9.6H9.6A9.6 9.6 0 010 16.8V9.6C0 4.3 4.3 0 9.6 0z"/><path id="m" d="M0 28.8l4.2-12.4A24 24 0 0126.9 0h18.4A24 24 0 0168 16.7l4 12.1H0z"/><path id="n" d="M0 0h8.4v12H0z"/><linearGradient id="d" x1="10.9%" x2="90.9%" y1="39.6%" y2="41.6%"><stop offset="0%" stop-color="#0934C4"/><stop offset="100%" stop-color="#2195B7"/></linearGradient><linearGradient id="r" x1="2%" x2="106.3%" y1="113.1%" y2="-7.9%"><stop offset="0%" stop-color="#2FDFBF"/><stop offset="0%" stop-color="#2FDFBF"/><stop offset="100%" stop-color="#2F74FF"/></linearGradient><filter id="a" width="106%" height="108%" x="-3%" y="-4%" filterUnits="objectBoundingBox"><feOffset dy="2" in="SourceAlpha" result="shadowOffsetOuter1"/><feGaussianBlur in="shadowOffsetOuter1" result="shadowBlurOuter1" stdDeviation="4"/><feColorMatrix in="shadowBlurOuter1" result="shadowMatrixOuter1" values="0 0 0 0 0 0 0 0 0 0 0 0 0 0 0 0 0 0 0.1 0"/><feMerge><feMergeNode in="shadowMatrixOuter1"/><feMergeNode in="SourceGraphic"/></feMerge></filter><filter id="e" width="113.4%" height="116.4%" x="-6.7%" y="-7.7%" filterUnits="objectBoundingBox"><feOffset dy="2" in="SourceAlpha" result="shadowOffsetOuter1"/><feGaussianBlur in="shadowOffsetOuter1" result="shadowBlurOuter1" stdDeviation="10"/><feColorMatrix in="shadowBlurOuter1" values="0 0 0 0 0.862745098 0 0 0 0 0.882352941 0 0 0 0 0.905882353 0 0 0 1 0"/></filter><rect id="f" width="464" height="379" x="139" y="37" rx="8"/><rect id="p" width="22.8" height="26.4" rx="9"/><circle id="i" cx="45.5" cy="45.5" r="45.5"/></defs><g fill="none" fill-rule="evenodd" transform="translate(8 6)"><g filter="url(#a)"><mask id="c" fill="#fff"><use xlink:href="#b"/></mask><use fill="#E3EBF6" fill-rule="nonzero" opacity=".5" xlink:href="#b"/><rect width="36" height="33.2" x="26.5" y="155" fill="#D3D7DD" fill-rule="nonzero" mask="url(#c)" opacity=".5" rx="4"/><rect width="36" height="33.2" x="26.5" y="91" fill="#D3D7DD" fill-rule="nonzero" mask="url(#c)" opacity=".5" rx="4"/><rect width="36" height="33.2" x="26.5" y="218" fill="#D3D7DD" fill-rule="nonzero" mask="url(#c)" opacity=".5" rx="4"/><rect width="36" height="33.2" x="26.5" y="283" fill="#D3D7DD" fill-rule="nonzero" mask="url(#c)" opacity=".5" rx="4"/><rect width="36" height="33.2" x="26.5" y="347" fill="#D3D7DD" fill-rule="nonzero" mask="url(#c)" opacity=".5" rx="4"/><rect width="36" height="33.2" x="26.5" y="411" fill="#D3D7DD" fill-rule="nonzero" mask="url(#c)" opacity=".5" rx="4"/><rect width="36" height="33.2" x="26.5" y="474" fill="#D3D7DD" fill-rule="nonzero" mask="url(#c)" opacity=".5" rx="4"/><path fill="#FFF" fill-rule="nonzero" mask="url(#c)" d="M89 0h683v515H89z"/><path fill="url(#d)" fill-rule="nonzero" mask="url(#c)" d="M0 0h694v56H0z"/></g><g fill-rule="nonzero"><use fill="#000" filter="url(#e)" xlink:href="#f"/><use fill="#FFF" xlink:href="#f"/></g><g transform="translate(189 221.3)"><mask id="h" fill="#fff"><use xlink:href="#g"/></mask><path fill="#B8C3CF" d="M13.9 31l16.4-16.6L30 3.3l-.2-.2-11.2-.3L2.2 19.2l.1.1 11.5 11.6M32 16L15.3 32.6c-.8.8-2.2.8-3-.1L.6 20.9c-.9-1-1-2.3-.1-3.1L17.2 1a2 2 0 011.4-.6l11.2.3c1.3 0 2.4 1.1 2.4 2.4l.3 11.3c0 .5-.2 1-.6 1.4" mask="url(#h)"/></g><path fill="#B8C3CF" d="M212.1 229.3c-.5.5-.5 1.4 0 2 .5.4 1.4.4 2 0 .4-.6.4-1.5 0-2-.6-.5-1.5-.5-2 0m3.5 3.5a3.5 3.5 0 01-5 0 3.6 3.6 0 010-5 3.5 3.5 0 015 0 3.6 3.6 0 010 5"/><g transform="translate(177 79)"><mask id="j" fill="#fff"><use xlink:href="#i"/></mask><use fill="#EFF7FF" fill-rule="nonzero" xlink:href="#i"/><g mask="url(#j)"><g transform="translate(30.7 19)"><mask id="l" fill="#fff"><use xlink:href="#k"/></mask><use fill="#41465A" fill-rule="nonzero" xlink:href="#k"/><path fill="#1D202E" fill-rule="nonzero" d="M-.8 9.6c5.1 1.3 8.4 1.9 9.9 1.7 1.4-.2 0 .8-4.4 3.1l-7.1-1 1.6-3.8z" mask="url(#l)"/></g><path fill="#1258E4" fill-rule="nonzero" d="M-17.3 130.8h126c0-1.4-1-2.4-2.4-2.4H-14.9c-1.3 0-2.4 1-2.4 2.4z"/><use fill="#3FCB99" fill-rule="nonzero" xlink:href="#m" transform="translate(9.1 67)"/><path fill="#BBAC94" fill-rule="nonzero" d="M58.3 41.8c.7 0 1.2.6 1.2 1.2v2.5c0 1.3-1 2.4-2.4 2.4V43c0-.6.5-1.2 1.2-1.2zm-25.2 0c-.7 0-1.2.6-1.2 1.2v2.5c0 1.3 1 2.4 2.4 2.4V43c0-.6-.5-1.2-1.2-1.2z"/><g transform="translate(41.5 55)"><mask id="o" fill="#fff"><use xlink:href="#n"/></mask><use fill="#BBAC94" fill-rule="nonzero" xlink:href="#n"/><path fill="#9F917B" fill-rule="nonzero" d="M-2 0l9.5-.4c1.4-.8 1.7 0 1 2.3-.6 2.3-4.1 3.3-10.4 3V0z" mask="url(#o)"/></g><g transform="translate(34.3 31)"><mask id="q" fill="#fff"><use xlink:href="#p"/></mask><use fill="#BBAC94" fill-rule="nonzero" xlink:href="#p"/><path fill="#9F917B" fill-rule="nonzero" d="M0 3.3c9 .7 16 .1 21.1-1.8C26.3-.3 19.6-1.2 1-1.2L0 3.3z" mask="url(#q)"/></g><path fill="#FFF" fill-rule="nonzero" d="M41.5 67v3.7l4.2-2 4.2 2V67z"/><path stroke="#E3EBF6" stroke-linecap="square" stroke-width="2.4" d="M-102.2 148.8h299.4" opacity=".4"/><path fill="url(#r)" fill-rule="nonzero" d="M16.8 5.4A5.4 5.4 0 008.4 1 5.3 5.3 0 004.2.1c-2 .5-3.6 2-4 4a5.3 5.3 0 00.3 3.4l2.7 6.8a4 4 0 003.5 2.5H16l-1.7-4.4 2-5a6 6 0 00.4-2zm-15-.1v-.8a3.6 3.6 0 013.6-2.7c.6 0 1.1.1 1.6.4-.2.4-.5.7-.6 1.1l-2.9 7.1-1.4-3.6a5 5 0 01-.3-1.5zm13 1.5l-2.4 5.5 1 2.8H6.9c-.3 0-.5 0-.7-.2A2.2 2.2 0 014.8 12L8 4a3.6 3.6 0 017 1.4c0 .5 0 1-.3 1.4z" transform="translate(37.9 103.1)"/><path fill="#41465A" fill-rule="nonzero" d="M43.6 19c5.4-1.4 8.2-3 8.5-4.6.5-2.5 7 1.7 3.7 7.6-2.1 4-6 4.8-11.4 2.5l-.8-5.5z"/></g></g><path fill="#41465A" d="M402.6 244.5a.5.5 0 010-.6l.9-1c.3-.2.6-.1.8.1.3.4 1 1 2 1 1.1 0 2.4-.9 2.4-3v-11.3c0-.3.2-.5.4-.5h1.6c.3 0 .5.2.5.5V241c0 3.3-2.2 5.2-5 5.2-2 0-3.2-1.2-3.6-1.7zm11.4-6.9a8.6 8.6 0 118.6 8.6 8.6 8.6 0 01-8.6-8.6zm2.4 0a6.2 6.2 0 1012.5 0 6.2 6.2 0 00-12.5 0zm18.3 8v-16c0-.2.2-.4.4-.4h1.6c.3 0 .5.2.5.5v6.7h8.8v-6.7c0-.3.2-.5.4-.5h1.6c.2 0 .5.2.5.5v15.8c0 .3-.3.5-.5.5h-1.6a.5.5 0 01-.4-.5v-6.9h-8.8v7c0 .2-.2.4-.5.4h-1.6a.5.5 0 01-.4-.5zm18.4 0v-16.2c0-.2.2-.4.5-.4h.6l10.4 12v-11.3c0-.3.2-.5.5-.5h1.5c.2 0 .5.2.5.5v16.1c0 .2-.3.4-.5.4h-.6L455.6 234v11.6c0 .3-.3.5-.5.5h-1.5a.5.5 0 01-.5-.5zm19.8 0v-12.2l-2 .9c-.1 0-.4 0-.5-.2l-.2-.8v-.5l3.4-3.1h1.2c.2 0 .4.2.4.4v15.4c0 .3-.2.5-.4.5h-1.5a.5.5 0 01-.4-.5zm12.3.6c-3.8 0-6-3.1-6-8.4 0-5.2 2.2-8.4 6-8.4s6 3.2 6 8.4c0 5.3-2.2 8.4-6 8.4zm0-2.1c2.2 0 3.5-2.3 3.5-6.3 0-3.9-1.3-6.2-3.5-6.2-2.3 0-3.5 2.3-3.5 6.2 0 4 1.2 6.3 3.5 6.3zM308.6 113.5a.5.5 0 010-.6l.9-1c.3-.2.6-.1.8.1.3.4 1 1 2 1 1.1 0 2.4-.9 2.4-3V98.7c0-.3.2-.5.4-.5h1.6c.3 0 .5.2.5.5V110c0 3.3-2.2 5.2-5 5.2-2 0-3.2-1.2-3.6-1.7zm11.1-3.3a5 5 0 014.9-5 5 5 0 014.8 5 5 5 0 01-4.8 5 5 5 0 01-4.9-5zm2.2 0c0 1.6 1.2 3 2.7 3 1.5 0 2.7-1.4 2.7-3s-1.2-3-2.7-3c-1.5 0-2.7 1.4-2.7 3zm10 4.3V98.7c0-.3.1-.5.4-.5h1.4c.2 0 .4.2.4.5v7.5c.3-.2 1.4-1 3-1 2.6 0 4 1.9 4 4.5v4.8c0 .3-.3.5-.5.5h-1.4a.5.5 0 01-.4-.5v-4.8c0-1.6-.8-2.5-2-2.5-1.5 0-2.6 1.2-2.7 1.6v5.7c0 .3-.1.5-.5.5h-1.3a.5.5 0 01-.5-.5zm12.1 0V106c0-.3.2-.5.5-.5h.7c.2 0 .3.1.4.3l.2.8a5 5 0 013.4-1.3c3 0 4 2 4 4.5v4.8c0 .3-.2.5-.4.5h-1.4a.5.5 0 01-.5-.5v-4.9c0-1.5-.7-2.4-2-2.4-1.5 0-2.5 1.2-2.6 1.5v5.8c0 .4-.2.5-.6.5h-1.2a.5.5 0 01-.5-.5zm18.3 0V98.7c0-.3.1-.5.4-.5h5.5c4.6 0 8.4 3.8 8.4 8.4 0 4.6-3.8 8.4-8.4 8.4h-5.5c-.3 0-.4-.2-.4-.5zm2.4-1.8h3.2a6 6 0 006-6.1c0-3.6-2.5-6.1-6-6.1h-3.2v12.2zm13.9-2.5a5 5 0 014.8-5 5 5 0 014.9 5 5 5 0 01-4.9 5 5 5 0 01-4.8-5zm2.1 0c0 1.6 1.2 3 2.7 3 1.6 0 2.8-1.4 2.8-3s-1.2-3-2.8-3c-1.5 0-2.7 1.4-2.7 3zm9.3 0c0-2.7 2-5 4.8-5a4.3 4.3 0 014.4 5c0 .3-.2.5-.5.5h-6.5c0 1.3 1.2 2.5 2.8 2.5a4 4 0 002.1-.7c.3-.1.5-.2.7 0l.6 1c.2.1.3.3 0 .5-.7.6-2 1.2-3.6 1.2-2.9 0-4.8-2.2-4.8-5zm2.3-1h4.7c0-1.2-1-2.2-2.2-2.2-1.3 0-2.3 1-2.5 2.1z"/><path fill="#B8C3CF" d="M238.1 236.6a8.6 8.6 0 0114.5-6.4c.2.2.2.5 0 .7l-1 1c-.2.3-.4.3-.7 0a6.5 6.5 0 00-4.1-1.6c-3.4 0-6 3-6 6.3s2.6 6.2 6 6.2c1.8 0 3-.7 4.1-1.6.3-.2.5-.1.6 0l1.1 1c.2.2.2.5 0 .7a8.6 8.6 0 01-14.5-6.3zm16.4 3.6a5 5 0 014.9-5 5 5 0 014.8 5 5 5 0 01-4.8 5 5 5 0 01-4.9-5zm2.2 0c0 1.6 1.2 3 2.7 3 1.5 0 2.7-1.4 2.7-3s-1.2-3-2.7-3c-1.5 0-2.7 1.4-2.7 3zm9.8.5v-4.8c0-.3.2-.5.5-.5h1.3c.3 0 .5.2.5.5v4.9c0 1.5.7 2.4 2 2.4 1.4 0 2.2-1.2 2.3-1.6v-5.7c0-.4.2-.5.5-.5h1.3c.2 0 .5.2.5.5v8.6c0 .3-.3.5-.5.5h-.7c-.2 0-.3-.2-.4-.4l-.2-.7c-.3.2-1.3 1.3-3.2 1.3-2.9 0-3.9-2-3.9-4.5zm14.3 3.9v7.1c0 .3-.2.5-.5.5h-1.4a.5.5 0 01-.4-.5V236c0-.3.2-.5.4-.5h.7c.2 0 .4.1.5.3l.2.6c.2-.1 1.1-1.1 3-1.1 2.6 0 4.5 2.3 4.5 5 0 2.8-2 5-4.7 5-1.2 0-2.2-.5-2.3-.6zm0-2.1s.8.7 2 .7c1.6 0 2.8-1.3 2.8-3 0-1.6-1-3-2.7-3a2.5 2.5 0 00-2.2 1.4v3.9zm8.7-2.3a5 5 0 014.9-5 5 5 0 014.8 5 5 5 0 01-4.8 5 5 5 0 01-4.9-5zm2.1 0c0 1.6 1.2 3 2.8 3 1.5 0 2.7-1.4 2.7-3s-1.2-3-2.7-3c-1.6 0-2.8 1.4-2.8 3zm10 4.3V236c0-.3.2-.5.5-.5h.7c.2 0 .3.1.3.3l.3.8a5 5 0 013.4-1.3c3 0 4 2 4 4.5v4.8c0 .3-.2.5-.5.5H309a.5.5 0 01-.5-.5v-4.9c0-1.5-.7-2.4-2-2.4-1.5 0-2.5 1.2-2.6 1.5v5.8c0 .4-.2.5-.6.5h-1.2a.5.5 0 01-.5-.5z"/><path fill="#B8C3CF" fill-rule="nonzero" d="M379 209a3 3 0 00-3 3v52a3 3 0 003 3h174a3 3 0 003-3v-52a3 3 0 00-3-3H379zm0-1h174a4 4 0 014 4v52a4 4 0 01-4 4H379a4 4 0 01-4-4v-52a4 4 0 014-4z"/><path fill="#000" d="M311.7 134h-1.5v-2h1.5v2zm-3 13.4c.7 0 1.1-.1 1.2-.2.2-.1.3-.4.3-1v-10.6h1.5v10.8c0 .7 0 1.2-.3 1.5-.4.6-1 .9-2 .9a3.5 3.5 0 01-.7 0v-1.4zm9.2-3.4c1 0 1.8-.4 2.2-1.2a6 6 0 00.5-2.7c0-.8-.1-1.6-.4-2.1-.4-.9-1.2-1.3-2.3-1.3-1 0-1.7.4-2.1 1.1-.4.7-.7 1.6-.7 2.7 0 1 .3 1.8.7 2.5.4.6 1.1 1 2 1zm0-8.7c1.3 0 2.3.4 3.1 1.2.9.8 1.3 2 1.3 3.6 0 1.5-.4 2.8-1.1 3.8-.8 1-1.9 1.4-3.5 1.4-1.2 0-2.3-.4-3-1.3-.8-.8-1.2-2-1.2-3.5 0-1.6.4-2.8 1.2-3.8a4 4 0 013.3-1.4zm6.3-3.3h1.6v4.9c.3-.5.7-.8 1-1 .5-.4 1.1-.5 1.9-.5 1.3 0 2.3.4 2.7 1.4.3.5.4 1.2.4 2.2v6h-1.6v-6c0-.6 0-1.1-.2-1.5-.3-.5-.9-.7-1.7-.7-.6 0-1.2.2-1.7.7-.6.4-.8 1.3-.8 2.5v5h-1.6v-13zm10 3.6h1.5v1.3c.4-.5.9-1 1.4-1.2.5-.2 1-.3 1.7-.3 1.3 0 2.2.4 2.7 1.4.2.5.4 1.2.4 2.2v6h-1.7v-6c0-.5 0-1-.2-1.3-.3-.6-.8-.9-1.5-.9l-1 .1c-.4.1-.8.4-1.1.8-.3.3-.4.6-.5 1l-.1 1.4v4.9h-1.6v-9.4zm19.8 1.6c0-.4-.1-.7-.4-1-.2-.3-.5-.5-1-.5-.6 0-1.2.4-1.7 1.2-.5.8-.7 1.6-.7 2.4 0 .5 0 1 .3 1.3.3.3.6.4 1 .4.8 0 1.4-.4 1.8-1.3.5-1 .7-1.8.7-2.5zm-1.7 8.2a7 7 0 01-5.7-2.3 6.3 6.3 0 01-1.6-4.3c0-1.9.7-3.5 2-4.8a7.6 7.6 0 015.7-2.3c2 0 3.7.6 5 1.6a5 5 0 011.6 3.9c0 1.3-.4 2.5-1.2 3.4-.8 1-1.7 1.4-2.7 1.4-.6 0-1-.1-1.3-.4a1.4 1.4 0 01-.4-1.2v-.2a3 3 0 01-1.1 1.4c-.5.3-1 .4-1.5.4-.7 0-1.3-.2-1.7-.7a3 3 0 01-.7-2c0-1.2.4-2.3 1.2-3.1.7-1 1.5-1.4 2.4-1.4.6 0 1.1.2 1.5.5.4.4.6.8.6 1.3l.5-1.5h1.3L355 139a12.3 12.3 0 00-.3 1.2c0 .2.1.4.3.5.1.2.3.2.5.2.7 0 1.3-.3 1.8-1s.8-1.6.8-2.8a4 4 0 00-1.4-3.2c-1-.7-2.2-1.1-3.8-1.1-2.3 0-4 .6-5.1 2a6 6 0 00-1.6 4.1c0 1.5.5 2.7 1.5 3.7 1.1 1.2 2.7 1.8 4.8 1.8a9 9 0 005-1.7l.6.7a9.4 9.4 0 01-5.8 2zm10.2-9.8h1.5v1.3l1-1a3 3 0 011.8-.5c.8 0 1.4.2 1.8.5.3.2.5.6.7 1 .4-.5.8-1 1.3-1.2.5-.2 1-.3 1.6-.3 1.2 0 2.1.4 2.6 1.3.2.5.3 1.2.3 2v6.3h-1.6v-6.5c0-.7-.2-1.1-.5-1.3-.3-.3-.7-.4-1.1-.4-.7 0-1.2.2-1.6.6-.5.5-.7 1.2-.7 2.1v5.5H368v-6.1c0-.7 0-1.1-.2-1.4-.3-.5-.7-.7-1.4-.7-.6 0-1.1.2-1.6.7-.5.5-.8 1.3-.8 2.5v5h-1.5v-9.4zm18.7 8.4c1 0 1.8-.4 2.2-1.2a6 6 0 00.5-2.7c0-.8-.1-1.6-.4-2.1-.4-.9-1.2-1.3-2.3-1.3-1 0-1.7.4-2.1 1.1-.4.7-.7 1.6-.7 2.7 0 1 .3 1.8.7 2.5.4.6 1.1 1 2 1zm0-8.7c1.3 0 2.3.4 3.1 1.2.9.8 1.3 2 1.3 3.6 0 1.5-.4 2.8-1.1 3.8-.8 1-1.9 1.4-3.5 1.4-1.3 0-2.3-.4-3-1.3-.8-.8-1.2-2-1.2-3.5 0-1.6.4-2.8 1.2-3.8a4 4 0 013.3-1.4zm6.3.3h1.5v1.3c.4-.5.9-1 1.4-1.2.5-.2 1-.3 1.6-.3 1.4 0 2.3.4 2.8 1.4.2.5.3 1.2.3 2.2v6h-1.6v-6c0-.5 0-1-.2-1.3-.3-.6-.8-.9-1.6-.9l-.9.1c-.4.1-.8.4-1.1.8-.3.3-.5.6-.5 1l-.1 1.4v4.9h-1.6v-9.4zm10-3.5h1.5v7.5l4-4h2l-3.6 3.5 3.8 5.9h-2l-3-4.7-1.2 1.2v3.5h-1.6v-13zm12.9 3.3a4.3 4.3 0 013.4 1.7c.3.4.5 1 .6 1.6l.1 2.1h-6.9c0 1 .3 1.7.7 2.3.4.6 1.1.9 2 .9a2.5 2.5 0 002.6-2h1.5c0 .4-.2.8-.4 1.2-.2.4-.5.8-.8 1-.5.5-1 .8-1.8 1l-1.2.1a4 4 0 01-3-1.2 5 5 0 01-1.2-3.6c0-1.5.4-2.8 1.2-3.7a4 4 0 013.2-1.4zm2.5 4.1c0-.6-.2-1.2-.4-1.6-.5-.8-1.2-1.1-2.2-1.1-.7 0-1.3.2-1.8.7a3 3 0 00-.8 2h5.2zm9.5-4h1.7a556.9 556.9 0 00-3 8.2c-.8 2.4-1.5 3.8-1.8 4.4-.4.5-1 .8-2 .8a3.8 3.8 0 01-1-.2v-1.4a5.5 5.5 0 001 .2c.3 0 .5 0 .6-.2.2 0 .3-.2.4-.3l.3-.8.4-1-3.5-9.6h1.8l2.5 7.7 2.6-7.7zm3-3.5h1.5v4.7a3.5 3.5 0 012.8-1.4c1.2 0 2.1.4 2.9 1.2.7.9 1 2 1 3.6 0 1.5-.3 2.7-1 3.7s-1.7 1.5-3 1.5a3 3 0 01-1.8-.5l-1-1v1.2h-1.4v-13zm4 11.9c1 0 1.6-.3 2-1a5 5 0 00.6-2.7c0-1-.2-1.8-.6-2.5-.4-.6-1-1-1.9-1-.7 0-1.3.3-1.9.9-.5.5-.8 1.4-.8 2.6 0 .9.1 1.6.4 2.1.4 1 1.1 1.6 2.3 1.6zm7.7-8.3v6.2c0 .5 0 1 .2 1.2.3.6.8.9 1.6.9 1 0 1.8-.5 2.2-1.5.3-.5.4-1.3.4-2.2v-4.6h1.5v9.4h-1.5v-1.4c-.1.4-.4.7-.7 1-.6.4-1.3.7-2.2.7-1.3 0-2.3-.5-2.7-1.4a4 4 0 01-.4-2v-6.3h1.6zm9.4 6.4c0 .6.1 1 .3 1.3.4.5 1.1.7 2.1.7a3 3 0 001.6-.4c.4-.2.6-.6.6-1.1a1 1 0 00-.5-1l-1.4-.4-1.2-.3c-.8-.2-1.4-.4-1.8-.7a2 2 0 01-1-1.8c0-.9.3-1.6 1-2.1.6-.6 1.5-.9 2.5-.9 1.5 0 2.5.5 3.1 1.3.4.5.6 1 .6 1.7h-1.5c0-.4-.2-.7-.4-1-.4-.4-1-.6-1.9-.6-.6 0-1 .1-1.3.3a1 1 0 00-.5 1c0 .4.2.7.6 1l1 .3 1 .3a8 8 0 012.4.8c.6.4.9 1 .9 1.9a3 3 0 01-1 2.1c-.6.7-1.6 1-2.9 1-1.4 0-2.3-.4-3-1-.5-.6-.8-1.4-.9-2.4h1.6zm8-6.4h1.6v9.4h-1.6v-9.4zm0-3.5h1.6v1.8h-1.6V132zm4 3.5h1.5v1.3c.5-.5 1-1 1.4-1.2.5-.2 1-.3 1.7-.3 1.3 0 2.2.4 2.7 1.4.3.5.4 1.2.4 2.2v6h-1.6v-6c0-.5-.1-1-.3-1.3-.3-.6-.8-.9-1.5-.9l-1 .1c-.4.1-.7.4-1 .8-.3.3-.5.6-.6 1l-.1 1.4v4.9h-1.6v-9.4zm14-.2a4.3 4.3 0 013.3 1.7c.3.4.5 1 .6 1.6l.2 2.1h-7c.1 1 .3 1.7.8 2.3.4.6 1 .9 2 .9a2.5 2.5 0 002.5-2h1.6c0 .4-.2.8-.5 1.2-.2.4-.4.8-.7 1-.5.5-1.1.8-1.8 1l-1.3.1a4 4 0 01-3-1.2 5 5 0 01-1.2-3.6c0-1.5.4-2.8 1.2-3.7a4 4 0 013.2-1.4zm2.5 4.1c-.1-.6-.2-1.2-.5-1.6-.4-.8-1.1-1.1-2.2-1.1-.7 0-1.3.2-1.8.7a3 3 0 00-.8 2h5.3zm4.5 2.5c0 .6.2 1 .4 1.3.4.5 1 .7 2 .7a3 3 0 001.6-.4c.4-.2.7-.6.7-1.1a1 1 0 00-.6-1l-1.3-.4-1.3-.3c-.8-.2-1.4-.4-1.8-.7a2 2 0 01-1-1.8c0-.9.3-1.6 1-2.1.6-.6 1.5-.9 2.6-.9 1.4 0 2.4.5 3 1.3.4.5.6 1 .6 1.7H484c0-.4-.1-.7-.4-1-.3-.4-1-.6-1.9-.6-.6 0-1 .1-1.3.3a1 1 0 00-.5 1c0 .4.2.7.6 1l1 .3 1.1.3a8 8 0 012.3.8c.6.4 1 1 1 1.9a3 3 0 01-1 2.1c-.7.7-1.6 1-3 1-1.3 0-2.3-.4-3-1-.5-.6-.8-1.4-.8-2.4h1.5zm9 0c0 .6.2 1 .4 1.3.4.5 1 .7 2 .7a3 3 0 001.6-.4c.4-.2.7-.6.7-1.1a1 1 0 00-.6-1l-1.3-.4-1.3-.3c-.8-.2-1.4-.4-1.8-.7a2 2 0 01-1-1.8c0-.9.3-1.6 1-2.1.6-.6 1.5-.9 2.6-.9 1.4 0 2.4.5 3 1.3.4.5.6 1 .6 1.7H493c0-.4-.1-.7-.4-1-.3-.4-1-.6-1.9-.6-.6 0-1 .1-1.3.3a1 1 0 00-.5 1c0 .4.2.7.6 1l1 .3 1.1.3a8 8 0 012.3.8c.6.4 1 1 1 1.9a3 3 0 01-1 2.1c-.7.7-1.6 1-3 1-1.3 0-2.3-.4-3-1-.5-.6-.8-1.4-.8-2.4h1.5zm8.4 1h1.8v2H497v-2zm4.6-7.4h1.6v9.4h-1.6v-9.4zm0-3.5h1.6v1.8h-1.6V132zm4 3.5h1.5v1.3c.5-.5 1-1 1.5-1.2.4-.2 1-.3 1.6-.3 1.3 0 2.2.4 2.7 1.4.3.5.4 1.2.4 2.2v6h-1.6v-6c0-.5 0-1-.3-1.3-.2-.6-.7-.9-1.5-.9l-1 .1c-.3.1-.7.4-1 .8-.3.3-.5.6-.6 1v6.3h-1.7v-9.4zm13.7-.3c1 0 1.9.3 2.6.8.6.5 1 1.4 1.2 2.7h-1.6c0-.6-.3-1.1-.6-1.5-.4-.4-.9-.6-1.6-.6-1 0-1.8.5-2.2 1.5-.3.6-.4 1.4-.4 2.4s.2 1.7.6 2.4c.4.6 1 1 1.9 1a2 2 0 001.5-.7c.4-.4.7-1 .8-1.6h1.6c-.2 1.2-.7 2.1-1.4 2.7-.7.6-1.6.9-2.7.9-1.2 0-2.2-.5-2.9-1.4-.7-.9-1.1-2-1.1-3.3 0-1.7.4-3 1.2-4 .8-.8 1.8-1.3 3-1.3z" opacity=".6"/><rect width="359" height="60" x="193" y="303" fill="#2AC38C" fill-rule="nonzero" rx="8"/><path fill="#FFF" d="M316.5 341c-.4 0-.6-.3-.4-.6l7.3-16.2.4-.2h.3c.1 0 .3 0 .4.2l7.3 16.2c.2.3 0 .6-.4.6H330a.6.6 0 01-.6-.4l-1.4-3.2h-8l-1.5 3.2c0 .2-.2.4-.5.4h-1.5zm4.4-5.7h6l-3-6.6-3 6.6zm11.9.9c0-2.8 2-5 4.7-5 1.2 0 2 .4 2.3.5v-7c0-.3.2-.5.4-.5h1.4c.3 0 .5.2.5.5v15.8c0 .3-.2.5-.5.5h-.7c-.2 0-.3-.2-.4-.4l-.2-.7s-1.2 1.3-3 1.3c-2.6 0-4.5-2.2-4.5-5zm2.2 0c0 1.6 1 3 2.5 3s2.2-1.2 2.3-1.5v-3.9s-.8-.6-2-.6c-1.7 0-2.8 1.4-2.8 3zm9.5 0c0-2.8 2-5 4.7-5 1.3 0 2.1.4 2.3.5v-7c0-.3.3-.5.5-.5h1.4c.2 0 .4.2.4.5v15.8c0 .3-.2.5-.4.5h-.7c-.2 0-.4-.2-.5-.4l-.2-.7s-1.1 1.3-3 1.3c-2.5 0-4.5-2.2-4.5-5zm2.2 0c0 1.6 1 3 2.6 3 1.5 0 2.1-1.2 2.3-1.5v-3.9s-.9-.6-2.1-.6c-1.6 0-2.8 1.4-2.8 3zm14.8 0c0-2.8 2.4-5 5-5 1.5 0 2.7.6 3.5 1.7.2.2.2.5 0 .6l-.8.8c-.3.2-.5 0-.7-.1-.4-.5-1.1-1-2-1-1.5 0-2.7 1.4-2.7 3 0 1.7 1.2 3 2.8 3 1.2 0 1.7-.6 2.2-1.1.2-.2.4-.2.6 0l.7.5c.2.1.3.4.2.6-.8 1.2-2.1 2-3.8 2a5 5 0 01-5-5zm10.4 0a5 5 0 014.9-5 5 5 0 014.8 5 5 5 0 01-4.8 5 5 5 0 01-4.9-5zm2.2 0c0 1.6 1.2 3 2.7 3 1.5 0 2.7-1.4 2.7-3s-1.2-3-2.7-3c-1.5 0-2.7 1.4-2.7 3zm9.8.5v-4.8c0-.3.2-.5.5-.5h1.3c.3 0 .5.2.5.5v4.9c0 1.5.7 2.4 2 2.4 1.4 0 2.2-1.2 2.3-1.6v-5.7c0-.4.2-.5.5-.5h1.3c.2 0 .5.2.5.5v8.6c0 .3-.3.5-.5.5h-.7c-.2 0-.3-.2-.4-.4l-.2-.7c-.3.2-1.3 1.3-3.2 1.3-2.9 0-3.9-2-3.9-4.5zm14.3 3.9v7.1c0 .3-.2.5-.5.5h-1.4a.5.5 0 01-.4-.5V332c0-.3.2-.5.4-.5h.7c.2 0 .4.1.5.3l.2.6c.2-.1 1.1-1.1 3-1.1 2.6 0 4.5 2.3 4.5 5 0 2.8-2 5-4.7 5-1.2 0-2.2-.5-2.3-.6zm0-2.1s.8.7 2 .7c1.6 0 2.8-1.3 2.8-3 0-1.6-1-3-2.7-3a2.5 2.5 0 00-2.2 1.4v3.9zm8.7-2.3a5 5 0 014.9-5 5 5 0 014.8 5 5 5 0 01-4.8 5 5 5 0 01-4.9-5zm2.1 0c0 1.6 1.2 3 2.8 3 1.5 0 2.7-1.4 2.7-3s-1.2-3-2.7-3c-1.6 0-2.8 1.4-2.8 3zm10 4.3V332c0-.3.2-.5.5-.5h.7c.2 0 .3.1.3.3l.3.8a5 5 0 013.4-1.3c3 0 4 2 4 4.5v4.8c0 .3-.2.5-.5.5h-1.3a.5.5 0 01-.5-.5v-4.9c0-1.5-.7-2.4-2-2.4-1.5 0-2.5 1.2-2.6 1.5v5.8c0 .4-.2.5-.6.5h-1.2a.5.5 0 01-.5-.5z"/></g></svg>