<svg xmlns="http://www.w3.org/2000/svg" xmlns:xlink="http://www.w3.org/1999/xlink" width="688" height="516"><defs><filter id="a" width="106%" height="108%" x="-3%" y="-4%" filterUnits="objectBoundingBox"><feOffset dy="2" in="SourceAlpha" result="shadowOffsetOuter1"/><feGaussianBlur in="shadowOffsetOuter1" result="shadowBlurOuter1" stdDeviation="4"/><feColorMatrix in="shadowBlurOuter1" result="shadowMatrixOuter1" values="0 0 0 0 0 0 0 0 0 0 0 0 0 0 0 0 0 0 0.1 0"/><feMerge><feMergeNode in="shadowMatrixOuter1"/><feMergeNode in="SourceGraphic"/></feMerge></filter><filter id="e" width="122.1%" height="120.3%" x="-11.1%" y="-9.5%" filterUnits="objectBoundingBox"><feOffset dy="2" in="SourceAlpha" result="shadowOffsetOuter1"/><feGaussianBlur in="shadowOffsetOuter1" result="shadowBlurOuter1" stdDeviation="10"/><feColorMatrix in="shadowBlurOuter1" values="0 0 0 0 0.862745098 0 0 0 0 0.882352941 0 0 0 0 0.905882353 0 0 0 1 0"/></filter><rect id="f" width="280" height="305" x="311" y="100" rx="8"/><rect id="g" width="232" height="101" rx="4"/><linearGradient id="d" x1="10.9%" x2="90.9%" y1="39.6%" y2="41.6%"><stop offset="0%" stop-color="#0934C4"/><stop offset="100%" stop-color="#2195B7"/></linearGradient><path id="b" d="M16 0h640a16 16 0 0116 16v484H0V16A16 16 0 0116 0z"/></defs><g fill="none" fill-rule="evenodd" transform="translate(8 6)"><g filter="url(#a)"><mask id="c" fill="#fff"><use xlink:href="#b"/></mask><use fill="#E3EBF6" fill-rule="nonzero" opacity=".5" xlink:href="#b"/><rect width="36" height="33.2" x="26.5" y="155" fill="#D3D7DD" fill-rule="nonzero" mask="url(#c)" opacity=".5" rx="4"/><rect width="36" height="33.2" x="26.5" y="91" fill="#D3D7DD" fill-rule="nonzero" mask="url(#c)" opacity=".5" rx="4"/><rect width="36" height="33.2" x="26.5" y="218" fill="#D3D7DD" fill-rule="nonzero" mask="url(#c)" opacity=".5" rx="4"/><rect width="36" height="33.2" x="26.5" y="283" fill="#D3D7DD" fill-rule="nonzero" mask="url(#c)" opacity=".5" rx="4"/><rect width="36" height="33.2" x="26.5" y="347" fill="#D3D7DD" fill-rule="nonzero" mask="url(#c)" opacity=".5" rx="4"/><rect width="36" height="33.2" x="26.5" y="411" fill="#D3D7DD" fill-rule="nonzero" mask="url(#c)" opacity=".5" rx="4"/><rect width="36" height="33.2" x="26.5" y="474" fill="#D3D7DD" fill-rule="nonzero" mask="url(#c)" opacity=".5" rx="4"/><path fill="#FFF" fill-rule="nonzero" mask="url(#c)" d="M89 0h683v515H89z"/><path fill="url(#d)" fill-rule="nonzero" mask="url(#c)" d="M0 0h694v56H0z"/></g><rect width="149" height="97" x="155" y="141.5" fill="#DDE8F6" fill-rule="nonzero" opacity=".3" rx="4"/><path fill="#B8C3CF" fill-rule="nonzero" d="M142 123a3 3 0 00-3 3v171a3 3 0 003 3h174a3 3 0 003-3V126a3 3 0 00-3-3H142zm0-1h174a4 4 0 014 4v171a4 4 0 01-4 4H142a4 4 0 01-4-4V126a4 4 0 014-4z"/><rect width="153" height="26" x="155" y="250.5" fill="#DDE8F6" fill-rule="nonzero" opacity=".5" rx="4"/><g fill-rule="nonzero"><use fill="#000" filter="url(#e)" xlink:href="#f"/><use fill="#FFF" xlink:href="#f"/></g><rect width="230" height="42" x="336" y="333" fill="#2AC38C" fill-rule="nonzero" rx="5.6"/><path fill="#FFF" d="M437.7 359.7v-11.1c0-.2.2-.4.4-.4h3.8c2 0 3.8 1.7 3.8 3.8 0 2-1.7 3.7-3.8 3.7h-2.4v4l-.3.3H438a.3.3 0 01-.4-.3zm1.8-5.6h2.3c1.2 0 2.1-1 2.1-2.2 0-1.1-1-2-2.1-2h-2.3v4.2zm7.2 2.5c0-1.9 1.5-3.5 3.4-3.5s3.4 1.6 3.4 3.5c0 2-1.5 3.6-3.4 3.6a3.5 3.5 0 01-3.4-3.6zm1.5 0c0 1.2.8 2.1 1.9 2.1 1 0 1.9-1 1.9-2 0-1.2-.9-2.1-2-2.1-1 0-1.8.9-1.8 2zm6.6 2.9s-.1-.2 0-.4l.3-.6c0-.2.3-.2.4-.1 0 0 .8.4 1.6.4.5 0 .8-.2.8-.5 0-.5-.4-.7-1.3-1.1-1-.5-1.9-1.1-1.9-2.2 0-.9.7-1.9 2.3-1.9 1 0 1.6.3 2 .5.1.1.2.4.1.5l-.3.6c0 .1-.3.2-.4.1 0 0-.8-.3-1.4-.3-.6 0-.8.2-.8.5 0 .4.5.6 1.1.9 1.2.5 2.3 1 2.3 2.3 0 1-1 2-2.5 2-1.2 0-1.9-.4-2.3-.7zm6.8-1.3v-3.5h-.7a.3.3 0 01-.3-.3v-.8c0-.2.1-.3.3-.3h.7v-1.9c0-.2.2-.3.3-.3h1c.1 0 .3.1.3.3v1.9h1.7c.2 0 .3.1.3.3v.8c0 .1-.1.3-.3.3h-1.7v3.3c0 .6.2.7.5.7.4 0 .8-.2 1-.3.3-.1.4 0 .4.1l.3.8c.1.1 0 .3-.1.4-.2 0-1.2.5-2 .5-1.3 0-1.7-.8-1.7-2z"/><path fill="#B8C3CF" fill-rule="nonzero" d="M338 241.5c-.8 0-1.5.7-1.5 1.5v24c0 .8.7 1.5 1.5 1.5h228c.8 0 1.5-.7 1.5-1.5v-24c0-.8-.7-1.5-1.5-1.5H338zm0-.5h228a2 2 0 012 2v24a2 2 0 01-2 2H338a2 2 0 01-2-2v-24c0-1.1.9-2 2-2z"/><g fill-rule="nonzero"><path fill="#3D5C9C" d="M438.1 302.7a13.6 13.6 0 11-27.2 0 13.6 13.6 0 0127.2 0z"/><path fill="#FFF" d="M423.4 310h2.9v-7h2l.2-2.5h-2.2v-1.4c0-.5.3-.7.6-.7h1.5V296h-2.1c-2.4 0-3 1.8-3 3v1.5H422v2.5h1.4v7z"/><g transform="translate(464.4 289)"><circle cx="13.6" cy="13.6" fill="#0274B3" r="13.6"/><path fill="#FFF" d="M7.2 11.6H10v9.3H7v-9.3zm1.4-1.3a1.7 1.7 0 100-3.3 1.7 1.7 0 000 3.3zM21 15.8c0-2.5-.6-4.4-3.5-4.4a3 3 0 00-2.7 1.5v-1.3H12v9.3h2.9v-4.6c0-1.2.2-2.4 1.7-2.4s1.5 1.4 1.5 2.5v4.5H21v-5.1z"/></g><g transform="translate(514.7 289)"><circle cx="13.6" cy="13.6" fill="#2FAAE1" r="13.6"/><path fill="#FFF" d="M20.5 9.3l-1.8.7c-.6-.6-1.3-1-2.1-1a2.9 2.9 0 00-2.8 3.6 8.1 8.1 0 01-5.9-3 2.8 2.8 0 001 3.8c-.6 0-1-.2-1.4-.4 0 1.5 1 2.6 2.3 2.9a2.9 2.9 0 01-1.3 0c.4 1.2 1.4 2 2.7 2A5.7 5.7 0 017 19.1a8 8 0 0012.5-7.2l1.4-1.5c-.6.2-1.1.4-1.7.4.6-.3 1-.9 1.3-1.5z"/></g><g transform="translate(359 288.5)"><circle cx="13.6" cy="13.6" fill="#37D1B3" r="13.6"/><path fill="#FFF" d="M20.3 19V8.9H7.5v10h12.8zm.5 1H7a.5.5 0 01-.6-.5V8.4c0-.3.3-.6.6-.6h13.8c.3 0 .6.3.6.6v11.1c0 .3-.3.5-.6.5zm-13.5-.3a.5.5 0 01-.6-.5V8.7c0-.3.3-.6.6-.6h13.2c.3 0 .5.3.5.6v10.5c0 .3-.2.5-.5.5H7.3zm.5-1H20V9.1H7.8v9.4zm5.7-3.8h.7l-.3-.3-.4.3zm6.6-5.8l.4.4h.5v.4l-.1.4-6.7 5.8c-.2.2-.5.2-.7 0L7 10.3a.5.5 0 01-.2-.4v-.4c0-.5.6-.7 1-.4l6.2 5.5 6-5.5zm.4.9v-.5.5zm-.4-.5l.4.4H20v-.3l.1-.1zm-.1 0a.5.5 0 11.9.4l-6.7 5.8c-.2.2-.5.2-.7 0L7 10l.4-.4h.5v.1l6 5.4L20 9.6v-.1zM13.9 15l.3.3h-.7l.4-.3zm-6-5.1h-.6l.3-.4.2.1v.3zm4.7 4a.5.5 0 010 .8L8 19.5c-.3.2-.6.2-.8 0l-.2-.2a.5.5 0 010-.8l4.6-4.8c.2-.2.6-.2.8 0l.2.2zm-4.7 4.8l-.2-.2-.4.4.3.2.3-.4zm3.7-4.3l.2.3.4-.4h-.5.5l-.2-.2-.4.3zm9 5.1c-.2.2-.6.2-.8 0l-4.6-4.8a.5.5 0 010-.8l.2-.2c.2-.2.6-.2.8 0l4.6 4.8c.2.3.2.6 0 .8l-.2.2zm-.2-.6v-.3l-.2-.2-.1.1-.3.2.4.4.2-.2zm-4.8-4.6l.3.4.3-.3-.4-.3-.2.2z"/></g><path fill="#D4D4D4" d="M399.4 289h1v29h-1zm52.4 0h1v29h-1zm49.7 0h1.1v29h-1z"/></g><g transform="translate(336 122)"><mask id="h" fill="#fff"><use xlink:href="#g"/></mask><use fill="#94EFCE" fill-rule="nonzero" xlink:href="#g"/><g fill="#187F86" fill-rule="nonzero" mask="url(#h)"><path d="M149.4 25.6L146 27l1.4 3.4 3.4-1.3-1.3-3.5zm3.2 5.8l-5.2 2a2 2 0 01-2.5-1.1l-2-5.2a2 2 0 011.2-2.5l5.1-2a2 2 0 012.6 1.1l2 5.2a2 2 0 01-1.2 2.5z"/><path d="M145.4 33l-.6-1.4 8.2-3.1.6.6c5.4 4.7 7.5 8.1 9.2 14 2.2 8.1-1.4 18-11.6 24.1a22.4 22.4 0 01-16.2 3.4c-2.1-.4-3.7-1.1-4.5-1.7l-.4-.2-2.2-5.8 1.2-.5c10.6-4.7 16-11 17.3-18.2a20.4 20.4 0 00-1-11.2zm3.9 3.2c.5 2.7.5 5.6 0 8.5-1.6 7.9-7.1 14.7-17.8 19.7l1 2.3.4.3 2.7.8c4.1.9 8.9.1 14.1-3 9.1-5.4 12.2-14 10.3-20.9-1.4-5.1-3.2-8-7.6-12.1l-3.8 1.5.7 2.9z"/><path d="M148.6 32l2.4-1.5.7 1.3c2 3.6 3.3 7.8 3.5 12.2.1 1.7 0 3.4-.3 5-1.5 7.7-8.3 13.9-23.5 19.3l-1-2.7c14.4-5.1 20.4-10.6 21.7-17l.3-4.4a26.7 26.7 0 00-3.8-12.2z"/></g><g fill="#187F86" fill-rule="nonzero" mask="url(#h)"><path d="M157.4 73.1l-3.5 1.4 1.4 3.4 3.4-1.3-1.3-3.5zm3.2 5.8l-5.2 2a2 2 0 01-2.5-1.1l-2-5.2a2 2 0 011.2-2.5l5.1-2a2 2 0 012.6 1.1l2 5.2a2 2 0 01-1.2 2.5z"/><path d="M153.4 80.5l-.6-1.4L161 76l.6.6c5.4 4.7 7.5 8.1 9.2 14 2.2 8.1-1.4 18-11.6 24.1a22.4 22.4 0 01-16.2 3.4c-2.1-.4-3.7-1.1-4.5-1.7l-.4-.2-2.2-5.8 1.2-.5c10.6-4.7 16-11 17.3-18.2a20.4 20.4 0 00-1-11.2zm3.9 3.2c.5 2.7.5 5.6 0 8.5-1.6 7.9-7.1 14.7-17.8 19.7l1 2.3.4.3 2.7.8c4.1.9 8.9.1 14.1-3 9.1-5.4 12.2-14 10.3-20.9-1.4-5.1-3.2-8-7.6-12.1l-3.8 1.5.7 2.9z"/><path d="M156.6 79.5L159 78l.7 1.3c2 3.6 3.3 7.8 3.5 12.2.1 1.7 0 3.4-.3 5-1.5 7.7-8.3 13.9-23.5 19.3l-1-2.7c14.4-5.1 20.4-10.6 21.7-17l.3-4.4a26.7 26.7 0 00-3.8-12.2z"/></g><g fill="#187F86" fill-rule="nonzero" mask="url(#h)"><path d="M167.6-.5h3.8l-.1 3.8h-3.7V-.6zm-1 6.6h5.6c1 0 2-.8 2-1.9v-5.5c0-1-.8-2-1.9-2h-5.5c-1.1 0-2 .8-2 1.9l-.1 5.5c0 1 .8 2 2 2z"/><path d="M174 5.1V3.6l-8.7-.2-.4.8a25.8 25.8 0 00-3.8 16.4c.7 8.3 7.4 16.4 19.1 18.6 6.7 1.3 12.2.3 16.4-2.3 1.8-1.1 3-2.3 3.6-3.2l.3-.3.1-6.2h-1.3c-11.6-.9-18.7-5-22.5-11.3a20.4 20.4 0 01-2.9-10.8zm-2.6 4.3c.5 2.7 1.4 5.4 3 8 4 6.9 11.6 11.4 23.3 12.5v2.4l-.4.4a13 13 0 01-2.2 1.8 19.6 19.6 0 01-14.4 2c-10.4-2-16.2-9-16.7-16.2-.4-5.3.2-8.6 3-14l4 .1c0 .9.2 1.9.4 3z"/><path d="M170.7 5.3l-2.8-.7-.3 1.6c-.6 4-.4 8.4.9 12.6.5 1.6 1.2 3.2 2 4.6 4 6.7 12.5 10.2 28.6 10v-2.8c-15.2 0-22.7-3-26.1-8.7-.7-1.2-1.3-2.5-1.8-4a26.7 26.7 0 01-.5-12.6z"/></g><g fill="#187F86" fill-rule="nonzero" mask="url(#h)"><path d="M173.6 49h3.8l-.1 3.8h-3.7V49zm-1 6.6h5.6c1 0 2-.8 2-1.9v-5.5c0-1-.8-2-1.9-2h-5.5c-1.1 0-2 .8-2 1.9l-.1 5.5c0 1 .8 2 2 2z"/><path d="M180 54.6v-1.5l-8.7-.2-.4.8a25.8 25.8 0 00-3.8 16.4c.7 8.3 7.4 16.4 19.1 18.6 6.7 1.3 12.2.3 16.4-2.3 1.8-1.1 3-2.3 3.6-3.2l.3-.3.1-6.2h-1.3c-11.6-.9-18.7-5-22.5-11.3a20.4 20.4 0 01-2.9-10.8zm-2.6 4.3c.5 2.7 1.4 5.4 3 8 4 6.9 11.6 11.4 23.3 12.5v2.4l-.4.4a13 13 0 01-2.2 1.8 19.6 19.6 0 01-14.4 2c-10.4-2-16.2-9-16.7-16.2-.4-5.3.2-8.6 3-14l4 .1c0 .9.2 1.9.4 3z"/><path d="M176.7 54.8l-2.8-.7-.3 1.6c-.6 4-.4 8.4.9 12.6.5 1.6 1.2 3.2 2 4.6 4 6.7 12.5 10.2 28.6 10v-2.8c-15.2 0-22.7-3-26.1-8.7-.7-1.2-1.3-2.5-1.8-4a26.7 26.7 0 01-.5-12.6z"/></g></g><path fill="#187F86" d="M379.1 162.5v-15.8c0-.3.2-.5.5-.5h2.2c.2 0 .4.2.4.5V160h6.2c.2 0 .4.2.4.5v2c0 .2-.2.4-.4.4h-8.8a.5.5 0 01-.5-.5zm10.7-4.3c0-2.7 2-5 4.9-5a4.4 4.4 0 014.4 5c0 .3-.2.5-.5.5h-6.1c0 1 1 2 2.3 2 .8 0 1.4-.2 1.9-.5.2-.2.4-.2.6 0l1 1.1c.2.2.2.4 0 .6-.8.8-2 1.3-3.6 1.3-2.9 0-5-2.2-5-5zm3-1.2h3.5c0-.9-.8-1.6-1.7-1.6-1 0-1.8.7-1.9 1.6zm8.9 3.1V156h-.8c-.3 0-.5-.2-.5-.4V154c0-.3.2-.5.5-.5h.8v-2.7c0-.2.2-.4.4-.4h2c.2 0 .4.2.4.4v2.7h2.1c.3 0 .5.2.5.5v1.6c0 .2-.2.4-.5.4h-2v3.9c0 .6.3.7.7.7l1.1-.2c.3-.1.5 0 .6.2l.5 1.5c0 .3 0 .5-.3.6a9 9 0 01-2.9.6c-1.8 0-2.6-1.1-2.6-3zm7.8-7.3l-.3-.3c-.2-.2-.2-.4 0-.5.2-.2 1.6-1.3 1.6-3 0 0-.3.2-.7.2-.9 0-1.6-.7-1.6-1.6 0-1 .7-1.6 1.7-1.6.9 0 2 .6 2 2.5 0 2.4-1.5 3.8-2.2 4.4h-.5zm4.3 9.6c-.2-.2-.3-.4-.2-.6l.7-1.2c0-.3.3-.3.5-.2 0 0 1.1.6 2.2.6.5 0 .8-.2.8-.6 0-.5-.3-.7-1.6-1.2-1.8-.8-2.7-1.7-2.7-3.2 0-1.5 1-2.8 3.5-2.8 1.4 0 2.5.4 3 .7.2.1.3.4.2.7l-.6 1.2c-.1.2-.4.2-.6.1 0 0-1-.5-2-.5-.5 0-.8.3-.8.6 0 .4.4.6 1.3 1 1.9.6 3.3 1.4 3.3 3.3 0 1.6-1.4 3-3.8 3-1.6 0-2.7-.6-3.2-1zm15.2-2.8s-.7-.8-.7-2.3c0-2.2 1.8-4.1 4.1-4.1h4.4c.3 0 .5.2.5.4v.8c0 .2-.1.4-.3.4l-1.3.4s1 .8 1 2.5c0 1.9-1.7 3.8-4.2 3.8l-2-.2c-.2 0-.8.3-.8.9 0 .5.4.8 1 .8h3c2.2 0 4 1.2 4 3.4s-1.8 4-5.3 4-4.9-1.7-4.9-3.2c0-1.5 1.2-2.2 1.5-2.3v-.1c-.4-.1-1.8-.8-1.8-2.5 0-1.9 1.8-2.7 1.8-2.7zm1.8-2.1c0 1 .8 1.7 1.7 1.7 1 0 1.7-.7 1.7-1.7s-.7-1.8-1.7-1.8-1.7.7-1.7 1.8zm-.5 9.1c0 .9.8 1.4 2.1 1.4 1.4 0 2.2-.6 2.2-1.5 0-.4-.3-1.1-1.7-1.1h-1.6c-.3.1-1 .5-1 1.2zm8.2-8.4a5 5 0 015-5 5 5 0 014.9 5 5 5 0 01-5 5 5 5 0 01-4.9-5zm2.7 0c0 1.3 1 2.4 2.3 2.4 1.2 0 2.3-1 2.3-2.4s-1-2.4-2.3-2.4c-1.3 0-2.3 1-2.3 2.4zm-68.7 24.3v-15.8c0-.3.2-.5.5-.5h2c.3 0 .5.2.5.5v6.9c.4-.2 1.2-.4 2.1-.4 2.9 0 4.8 2.2 4.8 5s-2 5-4.6 5c-2 0-3.2-1.4-3.2-1.4l-.2.7c-.1.3-.3.5-.5.5h-1a.5.5 0 01-.4-.5zm2.9-3.4a2 2 0 002 1.5c1.3 0 2.2-1 2.2-2.4 0-1.3-1-2.4-2.3-2.4-1.2 0-2 .5-2 .5v2.8zm8.4.9c0-1.8 1.4-3 3.9-3 1 0 1.7.2 1.7.2 0-1.2-.3-1.7-1.2-1.7-1 0-2.2.2-2.7.4-.4 0-.5-.1-.6-.4l-.2-1.3c0-.3.1-.5.4-.6.1 0 1.7-.4 3.2-.4 3 0 3.7 1.5 3.7 4.1v5.2c0 .3-.2.5-.4.5h-1s-.2 0-.3-.3l-.3-.7c-.6.5-1.4 1.2-3 1.2-1.9 0-3.2-1.2-3.2-3.2zm2.7 0c0 .7.5 1.2 1.2 1.2.8 0 1.5-.6 1.7-1V179l-1.4-.2c-1 0-1.5.5-1.5 1.3zm8.3 2.5V174c0-.3.2-.5.4-.5h1c.2 0 .3.1.3.3l.4.9c.3-.4 1.5-1.4 3.4-1.4 3 0 4.2 2.2 4.2 4.7v4.6c0 .3-.2.5-.4.5h-2a.5.5 0 01-.4-.5v-4.7c0-1.3-.7-2-1.8-2-1.3 0-2 .8-2.3 1.5v5.2c0 .4-.1.5-.6.5h-1.8a.5.5 0 01-.4-.5zm11.7-2.5c0-1.8 1.4-3 3.9-3 1 0 1.7.2 1.7.2 0-1.2-.3-1.7-1.2-1.7-1 0-2.2.2-2.7.4-.3 0-.5-.1-.6-.4l-.2-1.3c0-.3.1-.5.4-.6.1 0 1.7-.4 3.2-.4 3 0 3.7 1.5 3.7 4.1v5.2c0 .3-.2.5-.4.5h-.9c-.2 0-.3 0-.4-.3l-.3-.7c-.6.5-1.4 1.2-3 1.2-1.8 0-3.2-1.2-3.2-3.2zm2.7 0c0 .7.5 1.2 1.2 1.2.8 0 1.5-.6 1.7-1V179l-1.4-.2c-.9 0-1.5.5-1.5 1.3zm8.3 2.5V174c0-.3.2-.5.4-.5h1c.2 0 .3.1.4.3l.3.9c.3-.4 1.5-1.4 3.4-1.4 3 0 4.2 2.2 4.2 4.7v4.6c0 .3-.2.5-.4.5h-2a.5.5 0 01-.4-.5v-4.7c0-1.3-.7-2-1.8-2-1.3 0-2 .8-2.3 1.5v5.2c0 .4-.1.5-.6.5H418a.5.5 0 01-.4-.5zm11.7-2.5c0-1.8 1.4-3 3.9-3 1 0 1.7.2 1.7.2 0-1.2-.3-1.7-1.2-1.7-1 0-2.2.2-2.7.4-.3 0-.5-.1-.6-.4l-.2-1.3c0-.3.1-.5.4-.6.2 0 1.7-.4 3.2-.4 3 0 3.7 1.5 3.7 4.1v5.2c0 .3-.2.5-.4.5h-.9c-.2 0-.3 0-.4-.3l-.3-.7c-.5.5-1.4 1.2-3 1.2-1.8 0-3.2-1.2-3.2-3.2zm2.7 0c0 .7.5 1.2 1.2 1.2.8 0 1.5-.6 1.7-1V179l-1.4-.2c-.9 0-1.5.5-1.5 1.3zm7.9 2.4c-.1-.2-.2-.4-.1-.6l.6-1.2c.1-.3.3-.3.6-.2 0 0 1 .6 2.1.6.5 0 .9-.2.9-.6 0-.5-.4-.7-1.7-1.2-1.8-.8-2.7-1.7-2.7-3.2 0-1.5 1.1-2.8 3.6-2.8 1.4 0 2.4.4 3 .7.1.1.2.4.1.7l-.6 1.2c0 .2-.4.2-.5.1 0 0-1.1-.5-2-.5-.6 0-.9.3-.9.6 0 .4.5.6 1.4 1 1.8.6 3.2 1.4 3.2 3.3 0 1.6-1.4 3-3.8 3-1.6 0-2.7-.6-3.2-1zm11-6c-.2 0-.4-.1-.4-.3l-1-6.7v-2.7c0-.3.2-.5.5-.5h2.6c.3 0 .5.2.5.5v2.6l-1 6.8c0 .2-.2.4-.4.4h-.8zm-1.6 4.9c0-1.1 1-2 2-2s2 .9 2 2c0 1-1 2-2 2s-2-1-2-2zm-79 21.7c-.1 0-.2-.1-.2-.3l3.4-7.4.2-.1h.1l.2.1 3.4 7.4c0 .2 0 .3-.2.3h-.7c-.2 0-.2 0-.3-.2l-.7-1.5h-3.6l-.6 1.5c0 .1-.1.2-.3.2h-.7zm2-2.6h2.8l-1.3-3-1.4 3zm5.8 2.4v-7.3l.2-.2h.6l.2.2v7.3c0 .1 0 .2-.2.2h-.6a.2.2 0 01-.2-.2zm2.5 0v-7.3c0-.1 0-.2.2-.2h.6l.2.2v7.3c0 .1 0 .2-.2.2h-.6a.2.2 0 01-.2-.2zm4.9 0v-7.3c0-.1 0-.2.2-.2h.6l.2.2v3.2l1-.2c1.3 0 2.3 1 2.3 2.3 0 1.3-1 2.3-2.1 2.3-.9 0-1.4-.6-1.4-.6v.3l-.3.2h-.3a.2.2 0 01-.2-.2zm1-1.3c0 .1.4.7 1 .7.8 0 1.2-.7 1.2-1.4s-.5-1.4-1.2-1.4c-.6 0-1 .3-1 .3v1.8zm4 .1c0-.8.7-1.4 1.8-1.4l.9.1c0-.6-.1-1-.7-1-.5 0-1 .2-1.2.3-.2 0-.2 0-.3-.2v-.7l1.6-.2c1.4 0 1.5.8 1.5 2v2.3c0 .1 0 .2-.2.2h-.3l-.2-.2v-.3c-.3.3-.8.6-1.4.6-.9 0-1.5-.6-1.5-1.5zm1 0c0 .4.3.7.7.7.4 0 .8-.3 1-.5v-.7l-.8-.2c-.5 0-.9.3-.9.7zm4 1.2v-4l.2-.2h.3l.2.1.2.4s.6-.6 1.5-.6c1.3 0 1.8 1 1.8 2v2.3c0 .1 0 .2-.2.2h-.6a.2.2 0 01-.2-.2v-2.3c0-.7-.4-1-1-1s-1 .5-1.1.6v2.7c0 .1-.1.2-.3.2h-.6a.2.2 0 01-.2-.2zm5.3-1.2c0-.8.6-1.4 1.7-1.4l1 .1c0-.6-.2-1-.8-1-.5 0-1 .2-1.2.3-.1 0-.2 0-.2-.2l-.1-.4.1-.3s.7-.2 1.5-.2c1.4 0 1.6.8 1.6 2v2.3l-.2.2h-.3c-.1 0-.2 0-.2-.2l-.1-.3c-.3.3-.7.6-1.4.6-.8 0-1.4-.6-1.4-1.5zm1 0c0 .4.2.7.6.7.5 0 .9-.3 1-.5v-.7l-.8-.2c-.5 0-.9.3-.9.7zm4 1.2v-4c0-.1 0-.2.2-.2h.3l.2.1v.4c.2 0 .8-.6 1.6-.6 1.4 0 1.9 1 1.9 2v2.3l-.2.2h-.7a.2.2 0 01-.2-.2v-2.3c0-.7-.3-1-.9-1-.7 0-1.2.5-1.2.6v2.7c0 .1 0 .2-.3.2h-.5a.2.2 0 01-.2-.2zm5.2-1.2c0-.8.7-1.4 1.8-1.4l.9.1c0-.6-.2-1-.7-1-.5 0-1 .2-1.3.3 0 0-.2 0-.2-.2v-.7l1.6-.2c1.4 0 1.5.8 1.5 2v2.3c0 .1 0 .2-.2.2h-.3l-.2-.2-.1-.3c-.2.3-.7.6-1.4.6-.8 0-1.4-.6-1.4-1.5zm1 0c0 .4.2.7.7.7.4 0 .8-.3 1-.5v-.7l-.8-.2c-.6 0-1 .3-1 .7zm3.8 1s-.1 0 0-.2l.2-.4s.1-.1.2 0l1 .2c.4 0 .6-.1.6-.3 0-.3-.2-.5-.8-.8-.7-.3-1.3-.7-1.3-1.4 0-.5.5-1.2 1.5-1.2.6 0 1 .2 1.3.3.1.1.2.2 0 .3l-.1.4c0 .1-.2.2-.3.1l-.9-.2c-.4 0-.5.1-.5.3 0 .3.3.4.7.6.8.4 1.5.7 1.5 1.5 0 .7-.7 1.3-1.6 1.3-.8 0-1.3-.3-1.5-.4zm6.2.2v-.3l2.8-3.3c.6-.6.8-1.1.8-1.6 0-.6-.3-1.2-1.3-1.2-.6 0-1.1.4-1.4.7h-.3l-.4-.3v-.3s.8-1 2.1-1c1.6 0 2.5 1 2.5 2s-.5 1.5-1.1 2.2l-2 2.4h2.8c.1 0 .2 0 .2.2v.5c0 .1 0 .2-.2.2h-4.3a.2.2 0 01-.2-.2zm8.8.3c-1.7 0-2.7-1.4-2.7-3.8s1-3.9 2.7-3.9c1.7 0 2.7 1.5 2.7 3.9s-1 3.8-2.7 3.8zm0-1c1 0 1.6-1 1.6-2.8 0-1.8-.6-2.9-1.6-2.9s-1.6 1-1.6 2.9c0 1.8.6 2.8 1.6 2.8zm5.3-4c-.9 0-1.5-.6-1.5-1.4 0-.9.6-1.5 1.5-1.5a1.5 1.5 0 010 3zm-.5 4.6l3.7-7.3.2-.1h.4l.2.3-3.8 7.3-.2.1h-.4c-.1 0-.2-.2-.1-.3zm.5-5.3c.3 0 .7-.3.7-.7 0-.4-.4-.7-.7-.7-.4 0-.7.3-.7.7 0 .4.3.7.7.7zm2 4.2c0-.8.7-1.4 1.5-1.4a1.5 1.5 0 11-1.5 1.4zm.8 0a.7.7 0 101.4 0 .7.7 0 00-1.4 0zm5.5-.8c0-1.3 1-2.3 2.3-2.3 1.2 0 2.2 1 2.2 2.3 0 1.3-1 2.3-2.2 2.3-1.3 0-2.3-1-2.3-2.3zm1 0c0 .7.6 1.4 1.3 1.4.6 0 1.2-.7 1.2-1.4s-.6-1.4-1.2-1.4c-.7 0-1.3.7-1.3 1.4zm5 2v-3.3h-.6a.2.2 0 01-.2-.2v-.5c0-.1 0-.2.2-.2h.5v-1.1c0-1.5 1-2.2 2.2-2.2.7 0 1.2.3 1.4.5a2 2 0 012.6-.1c.2 0 .2.1.1.2l-.2.5h-.3l-.7-.3c-.5 0-.9.4-.9 1.1v1.4h1.2c.1 0 .2 0 .2.2v.5c0 .1 0 .2-.2.2h-1.2v3.3c0 .1 0 .2-.2.2h-.6a.2.2 0 01-.2-.2v-3.3h-2.1v3.3l-.2.2h-.7a.2.2 0 01-.2-.2zm1-4.2h2v-1.4l.1-.5c-.1-.2-.5-.4-1-.4-.6 0-1.1.3-1.1 1.2v1.1z"/><path fill="#41465A" d="M348.8 258.8v-8s0-.2.2-.2h.7l.2.2v3.8c.2 0 .7-.5 1.5-.5 1.3 0 2 1 2 2.3v2.4s-.1.2-.3.2h-.6a.2.2 0 01-.3-.2v-2.5c0-.7-.3-1.2-1-1.2s-1.2.6-1.3.8v2.9c0 .1 0 .2-.2.2h-.7a.2.2 0 01-.2-.2zm6.4-1.1v-2.5h-.5a.2.2 0 01-.2-.2v-.6c0-.1 0-.2.2-.2h.5v-1.3c0-.2.1-.3.2-.3h.7c.1 0 .2.1.2.3v1.3h1.2c.2 0 .3.1.3.2v.6s-.1.2-.3.2h-1.2v2.4c0 .4.2.5.4.5.3 0 .6-.2.7-.3l.3.1.2.6v.3l-1.5.3c-1 0-1.2-.6-1.2-1.4zm4.1 0v-2.5h-.5a.2.2 0 01-.2-.2v-.6l.2-.2h.5v-1.3c0-.2.1-.3.3-.3h.7s.2.1.2.3v1.3h1.2l.2.2v.6s0 .2-.2.2h-1.2v2.4c0 .4.1.5.4.5l.7-.3.3.1.2.6-.1.3c-.2 0-.9.3-1.4.3-1 0-1.3-.6-1.3-1.4zm5 1.1v3.6c0 .1 0 .2-.2.2h-.7a.2.2 0 01-.2-.2v-8s0-.2.2-.2h.4l.2.2v.3c.2-.1.7-.6 1.6-.6 1.3 0 2.2 1.1 2.2 2.5s-1 2.5-2.3 2.5c-.6 0-1-.3-1.2-.3zm0-1s.4.3 1 .3c.9 0 1.4-.7 1.4-1.5s-.5-1.5-1.3-1.5c-.7 0-1 .6-1 .7v2zm4.5.8v-.2l.2-.5h.3s.6.3 1.1.3c.4 0 .6-.2.6-.4 0-.4-.2-.5-.9-.8-.7-.4-1.4-.8-1.4-1.6 0-.6.5-1.3 1.7-1.3.7 0 1.2.2 1.4.4.1 0 .2.2 0 .3l-.1.4c0 .1-.2.2-.3.1l-1-.2c-.4 0-.6.1-.6.3 0 .3.3.5.8.7.9.3 1.6.7 1.6 1.6 0 .8-.7 1.4-1.8 1.4-.8 0-1.3-.3-1.6-.5zm5.3-3a.8.8 0 01-.8-.7c0-.5.3-.8.8-.8.4 0 .7.3.7.8 0 .4-.3.7-.7.7zm-.8 2.8c0-.5.3-.8.8-.8.4 0 .7.3.7.8 0 .4-.3.7-.7.7a.8.8 0 01-.8-.7zm2.6.3l2.4-8 .2-.1h.6c.1 0 .2.1.2.3l-2.3 8-.3.1h-.5c-.2 0-.3-.1-.3-.3zm4 0l2.4-8 .2-.1h.6c.2 0 .3.1.2.3l-2.3 8-.2.1h-.6c-.2 0-.3-.1-.2-.3zm4.5 0v-7.9s0-.2.2-.2h.7l.2.2v3.5l1.2-.2c1.3 0 2.3 1.1 2.3 2.5s-1 2.5-2.2 2.5c-1 0-1.5-.7-1.5-.7l-.1.4c0 .1-.1.2-.3.2h-.3a.2.2 0 01-.2-.2zm1.1-1.3c0 .1.4.7 1.1.7.8 0 1.3-.7 1.3-1.5s-.6-1.5-1.4-1.5a2 2 0 00-1 .3v2zm4.4.1c0-.9.7-1.5 2-1.5l.9.1c0-.7-.2-1-.8-1l-1.3.2c-.2 0-.3 0-.3-.2v-.5c-.1-.1 0-.2 0-.2.2 0 .8-.3 1.7-.3 1.6 0 1.7 1 1.7 2.1v2.6l-.2.2h-.4l-.2-.2v-.3a2 2 0 01-1.6.6c-.9 0-1.5-.6-1.5-1.6zm1 0c0 .4.3.8.8.8.4 0 .9-.4 1-.6v-.8l-.8-.2c-.6 0-1 .3-1 .8zm4.4 1.3v-4.4l.2-.2h.4l.2.1.1.5c.1-.1.7-.7 1.7-.7 1.5 0 2 1 2 2.3v2.4l-.2.2h-.7a.2.2 0 01-.2-.2v-2.5c0-.8-.4-1.2-1-1.2-.8 0-1.3.6-1.4.7v3c0 .1 0 .2-.2.2h-.7a.2.2 0 01-.2-.2zm5.8-1.3c0-.9.7-1.5 1.9-1.5l1 .1c0-.7-.2-1-.8-1l-1.4.2c-.1 0-.2 0-.2-.2l-.1-.5.1-.2c.1 0 .8-.3 1.7-.3 1.5 0 1.7 1 1.7 2.1v2.6s-.1.2-.3.2h-.3l-.2-.2-.1-.3a2 2 0 01-1.5.6c-.9 0-1.5-.6-1.5-1.6zm1 0c0 .4.3.8.7.8.5 0 1-.4 1.1-.6v-.8l-.8-.2c-.6 0-1 .3-1 .8zm4.4 1.3v-4.4l.2-.2h.4l.2.1.1.5c0-.1.7-.7 1.7-.7 1.4 0 2 1 2 2.3v2.4l-.2.2h-.7a.2.2 0 01-.3-.2v-2.5c0-.8-.3-1.2-1-1.2s-1.2.6-1.3.7v3c0 .1 0 .2-.3.2h-.6a.2.2 0 01-.2-.2zm5.7-1.3c0-.9.7-1.5 2-1.5l.9.1c0-.7-.1-1-.7-1l-1.4.2c-.1 0-.2 0-.2-.2l-.1-.5.1-.2c.1 0 .8-.3 1.7-.3 1.5 0 1.6 1 1.6 2.1v2.6s0 .2-.2.2h-.3c-.1 0-.2 0-.2-.2l-.1-.3a2 2 0 01-1.5.6c-1 0-1.6-.6-1.6-1.6zm1 0c0 .4.4.8.8.8.5 0 1-.4 1-.6v-.8s-.3-.2-.7-.2c-.6 0-1 .3-1 .8zm4.2 1.1v-.2l.2-.5h.3s.6.3 1.1.3c.4 0 .6-.2.6-.4 0-.4-.2-.5-.9-.8-.7-.4-1.4-.8-1.4-1.6 0-.6.5-1.3 1.7-1.3.7 0 1.2.2 1.4.4.1 0 .2.2 0 .3l-.1.4c0 .1-.2.2-.3.1l-1-.2c-.4 0-.6.1-.6.3 0 .3.3.5.8.7.9.3 1.6.7 1.6 1.6 0 .8-.7 1.4-1.8 1.4-.8 0-1.3-.3-1.6-.5zm4.3-.3a.8.8 0 111.7 0c0 .4-.4.8-.9.8a.8.8 0 01-.8-.8zm3.6-6a.7.7 0 01-.7-.8c0-.3.3-.7.7-.7a.7.7 0 110 1.4zm-.6 6.5v-4.4l.2-.2h.7l.2.2v4.4s0 .2-.2.2h-.7a.2.2 0 01-.2-.2zm2.7 0v-4.4l.2-.2h.4l.2.1.1.5c.1-.1.7-.7 1.7-.7 1.5 0 2 1 2 2.3v2.4l-.2.2h-.7a.2.2 0 01-.2-.2v-2.5c0-.8-.4-1.2-1-1.2-.8 0-1.3.6-1.4.7v3c0 .1 0 .2-.2.2h-.7a.2.2 0 01-.2-.2zm5.7-2.2c0-1.4 1.2-2.5 2.6-2.5.7 0 1.3.3 1.7.8v.4l-.4.3c-.2.2-.3 0-.4 0-.2-.3-.5-.5-1-.5-.7 0-1.3.7-1.3 1.5s.6 1.5 1.4 1.5c.6 0 .8-.3 1-.6h.4l.3.3c.1 0 .2.2.1.3-.4.6-1 1-1.9 1-1.3 0-2.5-1-2.5-2.5zm5.2 2.1l2.4-8 .2-.1h.6c.1 0 .2.1.2.3l-2.4 8-.2.1h-.5c-.2 0-.3-.1-.3-.3zm5.8-3a.2.2 0 01-.2-.2v-.5c0-1.3 1.7-1.5 1.7-2.6 0-.5-.3-.9-1-.9-.9 0-1.3.5-1.5.7h-.3l-.4-.4v-.3s.8-1 2.3-1c1.2 0 2.2.8 2.2 2 0 1.4-1.9 1.7-1.9 2.6v.4c0 .2 0 .2-.2.2h-.7zm-.5 2.6a.8.8 0 111.7 0c0 .4-.4.8-.9.8a.8.8 0 01-.8-.8zm4.6.5v-4.4s0-.2.2-.2h.4l.2.2v.4c.2-.1.6-.7 1.5-.7.4 0 1 .1.9.4l-.3.6c0 .1-.2.2-.3.1h-.4c-.7 0-1 .4-1.1.5v3c0 .3-.1.3-.3.3h-.6a.2.2 0 01-.2-.2zm3.7-2.2c0-1.4 1-2.5 2.4-2.5a2.2 2.2 0 012.1 2.5c0 .1 0 .2-.2.2H453c0 .7.6 1.3 1.3 1.3a2 2 0 001.1-.3c.2-.1.2-.2.3 0l.4.4v.3c-.4.3-1 .6-1.8.6-1.5 0-2.4-1.1-2.4-2.5zm1.1-.5h2.4c0-.6-.6-1.1-1.2-1.1s-1.1.5-1.2 1zm5 2.7v-3.6h-.6a.2.2 0 01-.2-.2v-.6l.2-.2h.6v-1.5c0-1.5.9-2.2 2-2.2.7 0 1.2.3 1.4.5 0 0 .1.2 0 .2l-.3.6h-.3l-.7-.3c-.6 0-1 .4-1 1.2v1.5h1.4l.2.2v.6l-.2.2h-1.3v3.6l-.3.2h-.7a.2.2 0 01-.2-.2zm4-4a.2.2 0 01-.3-.2v-.5s.1-.2.3-.2h3.7c.2 0 .2.1.2.2v.5c0 .2 0 .3-.2.3H462zm0 2.6a.2.2 0 01-.3-.2v-.6s.1-.2.3-.2h3.7c.2 0 .2.1.2.2v.6c0 .1 0 .2-.2.2H462zm6.2-5.2a.7.7 0 01-.7-.7c0-.3.3-.7.7-.7a.7.7 0 110 1.4zm-.6 8.3v-6c0-.2.1-.3.2-.3h.7c.2 0 .3.1.3.2v6c0 1.6-1 2.3-2 2.3a2 2 0 01-1.4-.5c-.1 0-.1-.2 0-.2l.2-.6h.3c.2.1.5.3.8.3.5 0 1-.4 1-1.2zm2.4-4c0-1.3 1-2.4 2.4-2.4 1.3 0 2.4 1.1 2.4 2.5s-1 2.5-2.4 2.5a2.5 2.5 0 01-2.4-2.5zm1 0c0 1 .6 1.6 1.4 1.6.7 0 1.3-.7 1.3-1.5s-.6-1.5-1.3-1.5c-.8 0-1.4.7-1.4 1.5zm5 2.3v-8l.2-.2h.7c.2 0 .3.1.3.2v3.8s.6-.5 1.4-.5c1.4 0 2 1 2 2.3v2.4l-.2.2h-.7a.2.2 0 01-.2-.2v-2.5c0-.7-.4-1.2-1-1.2-.8 0-1.3.6-1.3.8v2.9c0 .1-.1.2-.3.2h-.7a.2.2 0 01-.2-.2zm6.1 0v-4.4l.2-.2h.4l.2.1.1.5c.1-.1.7-.7 1.7-.7 1.5 0 2 1 2 2.3v2.4l-.2.2h-.7a.2.2 0 01-.2-.2v-2.5c0-.8-.4-1.2-1-1.2-.8 0-1.3.6-1.4.7v3c0 .1 0 .2-.2.2h-.7a.2.2 0 01-.2-.2z"/></g></svg>