<?xml version="1.0" encoding="UTF-8"?>
<svg width="640px" height="94px" viewBox="0 0 640 94" version="1.1" xmlns="http://www.w3.org/2000/svg" xmlns:xlink="http://www.w3.org/1999/xlink">
    <!-- Generator: Sketch 48.2 (47327) - http://www.bohemiancoding.com/sketch -->
    <title>logo-2018-640@2x</title>
    <desc>Created with Sketch.</desc>
    <defs></defs>
    <g id="Page-1" stroke="none" stroke-width="1" fill="none" fill-rule="evenodd">
        <g id="logo-2018-640" fill="#233D75">
            <g id="logo" transform="translate(1.000000, -1.000000)">
                <path d="M620.5876,45.331 L598.9496,45.331 L598.9496,60.745 L614.7456,60.745 C613.2156,69.789 606.2116,77.305 593.0896,77.305 C575.3836,77.305 566.2116,63.801 566.2116,48.259 C566.2116,32.847 575.3836,18.833 591.6896,18.833 C602.7696,18.833 609.6496,25.331 610.9216,32.209 L632.9616,32.209 C631.4316,15.269 615.2536,0.999 591.8156,0.999 C562.6456,0.999 545.0656,23.293 545.0656,48.387 C545.0656,72.845 561.7536,94.755 592.4536,94.755 C603.7296,94.755 613.2636,91.755 620.5876,86.427 L620.5876,93.007 L637.0096,93.007 L637.0096,60.745 L637.0096,45.331 L620.5876,45.331 Z" id="Fill-1"></path>
                <polygon id="Fill-17" points="511.609 61.7558 479.203 3.3498 457.557 3.3498 457.557 93.0078 478.307 93.0078 478.307 35.3718 510.583 93.0078 532.231 93.0078 532.231 3.3498 511.609 3.3498"></polygon>
                <polygon id="Fill-15" points="419.384 93.0082 440.39 93.0082 440.39 3.3502 419.384 3.3502"></polygon>
                <polygon id="Fill-13" points="384.6658 3.3496 355.7178 41.3916 355.7178 3.3496 334.9678 3.3496 334.9678 93.0076 355.7178 93.0076 355.7178 55.0956 384.6658 93.0076 409.6418 93.0076 374.1618 48.1796 409.6418 3.3496"></polygon>
                <path d="M274.6326,75.0762 L263.4906,75.0762 L263.4906,21.2822 L274.6326,21.2822 C291.4126,21.2822 301.1466,34.3462 301.1466,48.1802 C301.1466,62.0122 291.4126,75.0762 274.6326,75.0762 M275.6586,3.3502 L242.7406,3.3502 L242.7406,93.0082 L275.6586,93.0082 C305.5026,93.0082 322.2806,71.1062 322.2806,48.1802 C322.2806,25.2522 305.3726,3.3502 275.6586,3.3502" id="Fill-11"></path>
                <polygon id="Fill-9" points="205.4646 3.3496 184.7146 3.3496 184.7146 93.0076 230.9526 93.0076 230.9526 75.0756 205.4646 75.0756"></polygon>
                <path d="M124.6326,76.6132 C108.2386,76.6132 98.3766,62.9072 98.3766,48.1792 C98.3766,33.4492 108.2386,19.7432 124.6326,19.7432 C140.9006,19.7432 150.8906,33.4492 150.8906,48.1792 C150.8906,62.9072 140.9006,76.6132 124.6326,76.6132 M124.6326,1.0452 C94.7906,1.0452 77.1146,23.5872 77.1146,48.1792 C77.1146,72.7712 94.7906,95.3132 124.6326,95.3132 C154.3466,95.3132 172.0226,72.7712 172.0226,48.1792 C172.0226,23.5872 154.3466,1.0452 124.6326,1.0452" id="Fill-6"></path>
                <path d="M33.5582,77.125 L20.6202,77.125 L20.6202,55.095 L33.6842,55.095 C43.6762,55.095 45.9822,61.885 45.9822,66.111 C45.9822,70.465 43.6762,77.125 33.5582,77.125 Z M20.6202,18.591 L33.0442,18.591 C43.5482,18.591 45.4682,25.125 45.4682,29.095 C45.4682,33.579 43.1642,39.853 33.0442,39.853 L20.6202,39.853 L20.6202,18.591 Z M52.0022,47.667 C58.1502,46.001 66.2182,40.365 66.2182,28.197 C66.2182,19.233 61.7362,3.349 37.1442,3.349 L0.0002,3.349 L0.0002,93.007 L37.9122,93.007 C62.5042,93.007 66.9882,76.743 66.9882,67.519 C66.9882,54.071 57.2542,48.947 52.0022,47.667 Z" id="Fill-4"></path>
            </g>
        </g>
    </g>
</svg>