<svg xmlns="http://www.w3.org/2000/svg" width="637" height="95" viewbox="0 0 637 95" viewBox="-92.146 -27.898 637.34 95.859"><path fill="#282828" d="M42.977-7.519c2.647 0 4.62.75 5.914 2.246 1.296 1.498 1.944 3.397 1.944 5.698v18.479c.172-.287.891-1.366 2.158-3.237 1.266-1.87 2.086-3.065 2.46-3.583.375-.519 1.108-1.569 2.203-3.153 1.094-1.583 1.928-2.747 2.503-3.497.575-.747 1.353-1.755 2.333-3.022a88.915 88.915 0 0 1 2.72-3.367 80.895 80.895 0 0 1 2.633-2.937c1.497-1.61 2.765-2.618 3.8-3.022 1.035-.403 2.764-.605 5.182-.605h8.116v.432c-2.417 2.478-6.03 6.621-10.836 12.436-4.809 5.816-8.622 10.736-11.442 14.765.575.864 1.641 2.448 3.195 4.747a267.092 267.092 0 0 0 3.626 5.271c.864 1.21 1.987 2.719 3.368 4.534a69.617 69.617 0 0 0 4.059 4.879 44.887 44.887 0 0 0 4.145 3.971c1.497 1.209 3.052 2.018 4.663 2.418-.517 2.189-1.338 3.73-2.461 4.621-1.122.893-2.836 1.338-5.137 1.338-3.283 0-6.045-1.266-8.29-3.801-6.104-7.08-12.435-15.859-18.997-26.337v29.878h-3.887c-2.648 0-4.606-.777-5.872-2.332-1.267-1.555-1.899-3.453-1.899-5.699v-51.12h3.799zM103.681 51.632h-4.49c-1.9 0-3.57-.703-5.009-2.115-1.439-1.41-2.159-3.324-2.159-5.744V-7.519h5.354c1.612 0 3.066.591 4.362 1.771 1.295 1.18 1.942 2.692 1.942 4.534v52.846zM160.241 8.285h-.431c-1.672-2.188-4.046-3.799-7.125-4.836-3.08-1.037-6.116-1.555-9.11-1.555-5.354 0-9.758 1.757-13.211 5.268-3.454 3.511-5.182 8.117-5.182 13.816 0 6.792 1.698 11.973 5.095 15.541 3.396 3.57 7.974 5.355 13.73 5.355 2.936 0 5.871-.533 8.808-1.6 2.936-1.062 5.209-2.432 6.821-4.102h.432v4.402c0 3.742-1.77 6.607-5.31 8.596-3.541 1.982-7.643 2.977-12.306 2.977-8.061 0-14.939-2.748-20.638-8.246-5.699-5.496-8.549-12.563-8.549-21.199 0-9.153 2.791-16.622 8.376-22.408 5.583-5.785 12.866-8.677 21.847-8.677 5.008 0 9.053 1.035 12.132 3.108 3.08 2.072 4.62 5.067 4.62 8.981l.001 4.579zM170.687-7.519c2.648 0 4.621.75 5.915 2.246 1.296 1.498 1.944 3.397 1.944 5.698v18.479c.173-.287.891-1.366 2.158-3.237 1.265-1.87 2.086-3.065 2.461-3.583.374-.519 1.107-1.569 2.202-3.153 1.093-1.583 1.928-2.747 2.504-3.497.574-.747 1.352-1.755 2.332-3.022a90.932 90.932 0 0 1 2.72-3.367 80.007 80.007 0 0 1 2.634-2.937c1.495-1.61 2.764-2.618 3.8-3.022 1.035-.403 2.764-.605 5.18-.605h8.119v.432c-2.419 2.478-6.031 6.621-10.838 12.436-4.808 5.816-8.622 10.736-11.442 14.765.575.864 1.641 2.448 3.195 4.747a261.948 261.948 0 0 0 3.627 5.271c.863 1.21 1.986 2.719 3.368 4.534a68.526 68.526 0 0 0 4.059 4.879 44.645 44.645 0 0 0 4.146 3.971c1.496 1.209 3.051 2.018 4.662 2.418-.519 2.189-1.338 3.73-2.461 4.621-1.122.893-2.836 1.338-5.138 1.338-3.281 0-6.044-1.266-8.29-3.801-6.103-7.08-12.435-15.859-18.997-26.337v29.878h-3.887c-2.648 0-4.606-.777-5.872-2.332-1.267-1.555-1.899-3.453-1.899-5.699v-51.12h3.798zM264.207 50.164c-.69.75-1.412 1.254-2.16 1.514-.748.258-1.93.389-3.539.389-4.318 0-7.198-1.758-8.637-5.268l-4.402-10.711c-.635-1.553-1.268-2.816-1.899-3.797-.634-.98-1.339-1.697-2.116-2.158-.775-.461-1.438-.777-1.985-.949-.548-.174-1.31-.349-2.287-.521-3.108-.518-5.065-.775-5.872-.775v23.746h-3.799c-2.592 0-4.578-.719-5.96-2.158s-2.071-3.369-2.071-5.785V-5.877c1.266-.459 3.568-.935 6.907-1.425 3.339-.487 6.103-.734 8.289-.734h6.563c5.813 0 10.506 1.584 14.075 4.75 3.568 3.167 5.355 7.255 5.355 12.263 0 3.972-1.166 7.455-3.498 10.448-2.333 2.994-5.225 4.748-8.678 5.268 3.051 1.267 5.496 4.029 7.34 8.287l4.749 11.055c.517 1.265 1.726 3.31 3.625 6.129zM239.856 2.153h-3.282c-2.016 0-3.771.202-5.267.605v15.63c1.728.344 4.546.517 8.462.517 2.531 0 4.648-.703 6.348-2.115 1.696-1.411 2.547-3.381 2.547-5.916 0-3.338-.748-5.625-2.246-6.866-1.499-1.236-3.684-1.855-6.562-1.855zM312.389 40.578l-.082 4.146c-.059 2.533-.996 4.391-2.809 5.57s-5.168 1.77-10.062 1.77h-6.303c-7.195 0-12.664-1.957-16.406-5.873-3.742-3.914-5.611-9.643-5.611-17.183V18.041c0-5.986.372-11.541 1.122-16.666.46-3.336 1.438-5.655 2.937-6.951 1.496-1.296 3.539-1.944 6.131-1.944h30.916v3.974c0 4.143-2.65 6.216-7.947 6.216H283.98c-.576 4.088-.863 8.692-.863 13.816h22.801v4.231c0 3.626-2.393 5.439-7.17 5.439h-15.631v3.453c0 4.951.893 8.232 2.678 9.845 1.785 1.611 5.064 2.418 9.846 2.418h3.797c4.779.003 9.097-.429 12.951-1.294zM359.799 33.326c0 5.932-1.943 10.637-5.83 14.117-3.883 3.486-9.367 5.229-16.447 5.229-5.814 0-10.275-1.053-13.387-3.154-3.107-2.1-4.662-4.936-4.662-8.506v-5.268h.26c4.779 4.262 10.273 6.391 16.492 6.391 4.258 0 7.281-.66 9.068-1.984 1.781-1.324 2.674-3.254 2.674-5.787 0-2.186-.848-3.841-2.547-4.964-1.697-1.125-5.539-2.315-11.527-3.582-10.477-2.246-15.715-7.311-15.715-15.199 0-5.181 2.027-9.67 6.088-13.469 4.059-3.801 9.428-5.7 16.104-5.7 6.273 0 10.809 1.066 13.602 3.194 2.791 2.13 4.188 4.664 4.188 7.599v5.441h-.346c-3.625-3.856-8.75-5.786-15.369-5.786-8.35 0-12.521 2.534-12.521 7.598 0 1.844.963 3.355 2.895 4.534 1.93 1.182 5.57 2.346 10.924 3.497 10.702 2.242 16.056 7.511 16.056 15.799zM416.529 24.949c0 8.869-2.086 15.703-6.26 20.509-4.176 4.809-10.406 7.213-18.695 7.213-7.252 0-12.996-2.332-17.229-6.998-4.229-4.662-6.344-11.223-6.344-19.687V-7.519h4.574c2.074 0 3.814.864 5.227 2.592 1.41 1.726 2.113 4.49 2.113 8.29V25.21c0 5.585 1.023 9.713 3.064 12.391 2.047 2.678 5.312 4.018 9.803 4.018 4.086 0 7.08-1.326 8.982-3.975 1.9-2.646 2.846-6.648 2.846-12.005V-7.519h4.492c2.303 0 4.115.88 5.439 2.635 1.326 1.755 1.986 4.39 1.986 7.901v21.932h.002zM494.074 51.632h-4.492c-2.355 0-4.217-.662-5.566-1.986-1.352-1.324-2.029-3.279-2.029-5.873 0-3.912-.258-10.029-.775-18.347-.52-8.319-1.006-13.888-1.467-16.711-1.615 3.917-2.535 6.249-2.764 6.996l-8.289 25.386c-1.5 4.547-3.109 8.062-4.838 10.535h-3.197c-4.201 0-7.367-3.137-9.494-9.414l-8.467-24.952a135.107 135.107 0 0 0-3.277-8.637c-.695 3.917-1.297 10.522-1.814 19.816-.516 9.3-.777 17.027-.777 23.187h-4.145c-2.248 0-4.045-.689-5.396-2.072-1.354-1.379-2.027-3.309-2.027-5.785 0-6.445.516-15.095 1.551-25.948 1.037-10.85 2.104-19.299 3.197-25.344h2.502c4.088 0 7.527.88 10.316 2.635 2.793 1.755 4.766 4.217 5.92 7.382l8.203 23.139c1.725 4.725 2.852 8.466 3.365 11.228.23-1.205.777-3.223 1.641-6.043l6.824-20.983c1.379-4.373 2.92-8.086 4.617-11.139 1.697-3.051 3.242-5.123 4.619-6.218h1.379c3.338 0 6.033 1.037 8.076 3.108 2.045 2.073 3.297 5.125 3.756 9.155.578 4.95 1.195 12.592 1.859 22.923.661 10.333.989 18.322.989 23.962zM545.193 40.578l-.088 4.146c-.055 2.533-.994 4.391-2.805 5.57-1.814 1.18-5.17 1.77-10.064 1.77h-6.303c-7.197 0-12.664-1.957-16.406-5.873-3.742-3.914-5.609-9.643-5.609-17.183V18.041c0-5.986.373-11.541 1.123-16.666.459-3.336 1.434-5.655 2.934-6.951 1.498-1.296 3.541-1.944 6.129-1.944h30.92v3.974c0 4.143-2.65 6.216-7.947 6.216h-20.291c-.58 4.088-.863 8.692-.863 13.816h22.797v4.231c0 3.626-2.393 5.439-7.168 5.439h-15.629v3.453c0 4.951.893 8.232 2.676 9.845 1.783 1.611 5.064 2.418 9.844 2.418h3.797c4.778.003 9.092-.429 12.953-1.294z"/><linearGradient id="a" gradientUnits="userSpaceOnUse" x1="-97.454" y1="-33.206" x2="-9.975" y2="54.273"><stop offset="0" stop-color="#F02349"/><stop offset=".205" stop-color="#F1274A"/><stop offset=".409" stop-color="#F2334F"/><stop offset=".613" stop-color="#F54756"/><stop offset=".816" stop-color="#F96361"/><stop offset="1" stop-color="#FD836D"/></linearGradient><path fill="url(#a)" d="M3.713 53.654c0 7.902-6.406 14.308-14.308 14.308H-77.84c-7.902 0-14.307-6.405-14.307-14.308V-13.59c0-7.901 6.405-14.308 14.307-14.308h67.245c7.901 0 14.308 6.406 14.308 14.308v67.244z"/><path fill="#FFF" d="M-61.689-9.674c2.647 0 4.62.75 5.914 2.246 1.296 1.498 1.944 3.397 1.944 5.698v18.479c.172-.286.891-1.365 2.158-3.236 1.266-1.87 2.086-3.065 2.46-3.583a240.8 240.8 0 0 0 2.203-3.153c1.094-1.583 1.928-2.747 2.503-3.497.575-.747 1.353-1.755 2.333-3.021a87.389 87.389 0 0 1 2.719-3.367 80.955 80.955 0 0 1 2.634-2.938c1.497-1.609 2.765-2.617 3.8-3.021 1.035-.403 2.764-.605 5.182-.605h8.116v.433c-2.417 2.478-6.03 6.621-10.836 12.436-4.81 5.816-8.622 10.736-11.442 14.766.576.863 1.642 2.448 3.195 4.747a271.569 271.569 0 0 0 3.626 5.271c.864 1.21 1.987 2.72 3.368 4.533 1.383 1.812 2.734 3.44 4.059 4.879s2.707 2.763 4.146 3.972c1.497 1.209 3.052 2.017 4.664 2.418-.518 2.188-1.338 3.729-2.461 4.621-1.122.893-2.836 1.338-5.137 1.338-3.283 0-6.045-1.267-8.291-3.801-6.104-7.08-12.435-15.859-18.997-26.338v29.878h-3.887c-2.648 0-4.606-.776-5.872-2.331-1.267-1.555-1.899-3.453-1.899-5.699V-9.674h3.798z"/></svg>
