<svg xmlns="http://www.w3.org/2000/svg" viewBox="0 0 2273 690"><path fill="#379ad6" d="M335 291c19-21 35-58 35-107 0-76-64-128-142-128-79 0-180 54-180 179 0 62 39 106 82 145C50 413 0 482 0 547c0 120 92 143 162 143 66 0 182-29 182-172 0-159-194-192-194-290 0-55 36-80 77-80 34 0 45 25 45 51 0 19-11 43-15 51-11 20 54 66 78 41zM164 599c-48 0-66-22-66-57 0-45 47-84 102-103 27 25 47 49 47 77 0 47-32 83-83 83zm1711-421a60 60 0 1 0-60-59 60 60 0 0 0 60 59z"/><path fill="#379ad6" d="M2199 497c-23 41-71 97-112 95-31-2-38-40-39-72 204-232 247-386 216-463a87 87 0 0 0-77-57c-150-9-213 306-215 320v2c-10 66-20 128-17 188-22 35-69 82-102 82-28 0-27-26-23-66 8-67 36-204 56-254 18-47-77-63-96-17-10 24-38 128-50 213-38 58-104 130-174 130-45 0-78-29-80-91-3-100 50-193 103-193 19 0 27 11 27 26 0 18-13 38-17 46-23 36 45 72 70 41 18-22 37-54 37-90 0-56-28-109-107-109-127 0-199 131-208 247a296 296 0 0 0 1 62c-25 34-51 53-79 53-20 0-22-18-19-55 5-58 28-122 31-170 7-88-34-137-105-137-38 0-72 21-101 51l5-17c8-28-62-56-91-12-15 22-33 114-46 205-37 64-107 143-184 143-48 0-76-40-76-91v-20c114 44 206-63 217-135 9-59-26-124-110-124-105 0-194 116-203 247l-1 20c-15 33-72 97-110 97-28 0-27-26-23-67 4-34 24-125 45-211h41c37 0 45-87 20-86h-39c12-46 23-84 29-99 18-47-77-63-96-17-4 11-18 57-34 115h-43c-45 0-52 88-16 88h37c-18 69-33 140-37 178-10 93-18 192 97 192 61 0 116-56 146-94 27 63 83 94 145 94 78 0 137-40 177-83l-2 40c1 47 95 55 97 28 1-31 7-92 16-162 18-87 81-195 122-195 15 0 24 4 24 35 0 42-26 113-33 197-7 92 24 140 106 140 50 0 91-33 121-69 30 46 79 69 132 69 77 0 140-42 182-86 6 50 30 86 100 86 55 0 105-45 136-82l1 3c17 54 49 79 100 79 92 0 165-109 180-143s-37-72-52-45zm-137-161v-2c24-153 92-238 115-238 21 0-13 145-124 297l9-57zM829 314c19 0 30 12 28 39-3 26-59 78-113 50 21-59 59-89 85-89z"/></svg>
